<svg xmlns="http://www.w3.org/2000/svg" xmlns:xlink="http://www.w3.org/1999/xlink" viewBox="0 0 536 361.25" version="1.1" x="0px" y="0px"><title>trailer</title><desc>Created with Sketch.</desc><g stroke="none" stroke-width="1" fill="none" fill-rule="evenodd"><g transform="translate(-9340.000000, -9027.000000)" fill="#000000" fill-rule="nonzero"><path d="M9575.58522,9234.74266 C9553.18843,9234.74266 9534.94662,9252.97423 9534.94662,9275.37697 C9534.94662,9297.77972 9553.18279,9316 9575.58522,9316 C9598.00461,9316 9616.22382,9297.77972 9616.22382,9275.37697 C9616.22382,9252.98552 9598.01119,9234.74266 9575.58522,9234.74266 Z M9575.53917,9297.9309 C9563.07743,9297.9309 9552.93184,9287.78442 9552.93184,9275.32523 C9552.93184,9262.86686 9563.07243,9252.72039 9575.53917,9252.72039 C9588.01092,9252.72039 9598.15567,9262.85603 9598.15567,9275.32523 C9598.15567,9287.78442 9588.01592,9297.9309 9575.53917,9297.9309 Z M9858.10419,9237.53046 L9792.0403,9237.53046 L9792.0403,9072.78928 C9792.0403,9047.49561 9771.53615,9027 9746.23794,9027 L9385.80436,9027 C9360.49116,9027.001 9340,9047.49561 9340,9072.78928 L9340,9234.59684 C9340,9259.90249 9360.49116,9280.3971 9385.80436,9280.3971 L9527.75353,9280.3971 C9527.46177,9278.26275 9527.26693,9276.10941 9527.26693,9273.90215 C9527.26693,9247.35004 9548.80523,9225.81472 9575.3714,9225.81472 C9601.93757,9225.81472 9623.47586,9247.35004 9623.47586,9273.90215 C9623.47586,9276.10941 9623.26903,9278.26275 9622.98926,9280.3971 L9792.05229,9280.3971 L9792.05229,9273.31374 L9858.11018,9273.31374 C9867.98981,9273.31374 9875.99883,9265.30472 9875.99883,9255.4251 C9875.99883,9255.4241 9875.99883,9255.4231 9875.99883,9255.4221 L9875.99883,9255.4221 C9875.99717,9245.54033 9867.98595,9237.53046 9858.10419,9237.53046 Z M9555.40478,9080.65231 L9555.40478,9140.55855 C9555.40478,9151.60425 9546.45048,9160.55855 9535.40478,9160.55855 L9421.41659,9160.55855 C9410.37089,9160.55855 9401.41659,9151.60425 9401.41659,9140.55855 L9401.41659,9080.65231 C9401.41659,9069.60662 9410.37089,9060.65231 9421.41659,9060.65231 L9535.40478,9060.65231 C9546.45048,9060.65231 9555.40478,9069.60662 9555.40478,9080.65231 Z M9647.41427,9160.86418 L9605,9160.86418 C9593.95431,9160.86418 9585,9151.90987 9585,9140.86418 L9585,9080.95793 C9585,9069.91224 9593.95431,9060.95793 9605,9060.95793 L9647.41427,9060.95793 C9658.45996,9060.95793 9667.41427,9069.91224 9667.41427,9080.95793 L9667.41427,9140.86418 C9667.41427,9151.90987 9658.45996,9160.86418 9647.41427,9160.86418 Z M9720.58544,9192.47701 C9699.86563,9187.35037 9697,9167.12542 9697,9167.12542 L9697,9083.84358 L9697,9060.27079 L9738.53131,9060.27079 C9750.60051,9060.27079 9760.39127,9070.82571 9760.39127,9083.84358 L9760.39127,9195.73965 C9760.39127,9195.74093 9760.3923,9195.74197 9760.39358,9195.74197 L9760.39358,9195.74197 C9760.39365,9195.74197 9760.3937,9195.74202 9760.3937,9195.74208 C9760.3937,9195.74214 9760.39365,9195.74219 9760.39359,9195.7422 C9747.67461,9196.98696 9734.40523,9195.89857 9720.58544,9192.47701 Z"/></g></g><text x="0" y="304" fill="#000000" font-size="5px" font-weight="bold" font-family="'Helvetica Neue', Helvetica, Arial-Unicode, Arial, Sans-serif">Created by Silviu Ojog</text><text x="0" y="309" fill="#000000" font-size="5px" font-weight="bold" font-family="'Helvetica Neue', Helvetica, Arial-Unicode, Arial, Sans-serif">from the Noun Project</text></svg>