<svg xmlns="http://www.w3.org/2000/svg" xmlns:xlink="http://www.w3.org/1999/xlink" width="500" zoomAndPan="magnify" viewBox="0 0 375 374.999991" height="500" preserveAspectRatio="xMidYMid meet" version="1.0"><path fill="#000000" d="M 30.425781 230.820312 C 30.847656 230.820312 31.605469 230.820312 32.761719 230.820312 C 32.761719 243.113281 42.769531 253.113281 55.066406 253.113281 C 57.363281 253.113281 59.53125 252.667969 61.617188 252.019531 C 63.703125 252.667969 65.878906 253.113281 68.175781 253.113281 C 72.214844 253.113281 75.960938 251.953125 79.238281 250.066406 C 82.511719 251.953125 86.257812 253.113281 90.300781 253.113281 C 92.667969 253.113281 94.914062 252.644531 97.0625 251.953125 C 99.207031 252.644531 101.453125 253.113281 103.824219 253.113281 C 107.648438 253.113281 111.203125 252.054688 114.355469 250.347656 C 117.507812 252.054688 121.054688 253.113281 124.886719 253.113281 C 127.253906 253.113281 129.5 252.644531 131.648438 251.953125 C 133.792969 252.644531 136.039062 253.113281 138.414062 253.113281 C 150.710938 253.113281 160.722656 243.113281 160.722656 230.820312 L 317.09375 230.820312 C 318.183594 230.820312 322.039062 230.820312 326.976562 230.820312 L 326.976562 252.703125 L 331.191406 252.703125 L 331.191406 245.773438 L 337.660156 246.976562 L 337.660156 256.351562 L 341.878906 256.351562 L 341.878906 230.820312 C 349.292969 230.820312 355.945312 230.820312 357.800781 230.820312 L 357.800781 163.929688 L 334.597656 141.664062 L 17.453125 141.664062 L 17.453125 219.390625 C 17.453125 229.285156 27.417969 230.820312 30.425781 230.820312 Z M 337.652344 230.820312 L 337.652344 242.683594 L 331.183594 241.484375 L 331.183594 230.816406 C 333.285156 230.820312 335.460938 230.820312 337.652344 230.820312 Z M 138.410156 241.878906 C 132.296875 241.878906 127.347656 236.921875 127.347656 230.820312 C 127.347656 224.710938 132.296875 219.761719 138.410156 219.761719 C 144.519531 219.761719 149.472656 224.710938 149.472656 230.820312 C 149.472656 236.921875 144.519531 241.878906 138.410156 241.878906 Z M 44 230.820312 C 44 227.695312 45.308594 224.886719 47.394531 222.871094 C 46.4375 225.347656 45.863281 228.011719 45.863281 230.820312 C 45.863281 233.625 46.4375 236.285156 47.394531 238.757812 C 45.308594 236.753906 44 233.945312 44 230.820312 Z M 57.109375 230.820312 C 57.109375 224.710938 62.058594 219.761719 68.167969 219.761719 C 74.28125 219.761719 79.230469 224.710938 79.230469 230.820312 C 79.230469 236.921875 74.28125 241.878906 68.167969 241.878906 C 62.058594 241.878906 57.109375 236.921875 57.109375 230.820312 Z M 92.761719 230.820312 C 92.761719 224.710938 97.710938 219.761719 103.824219 219.761719 C 109.933594 219.761719 114.882812 224.710938 114.882812 230.820312 C 114.882812 236.921875 109.933594 241.878906 103.824219 241.878906 C 97.710938 241.878906 92.761719 236.921875 92.761719 230.820312 Z M 92.761719 230.820312 " fill-opacity="1" fill-rule="nonzero"/></svg>