<svg xmlns="http://www.w3.org/2000/svg" xmlns:xlink="http://www.w3.org/1999/xlink" width="500" zoomAndPan="magnify" viewBox="0 0 375 374.999991" height="500" preserveAspectRatio="xMidYMid meet" version="1.0"><defs><clipPath id="26ba221d59"><path d="M 62.8125 31 L 312.5625 31 L 312.5625 375 L 62.8125 375 Z M 62.8125 31 " clip-rule="nonzero"/></clipPath></defs><g clip-path="url(#26ba221d59)"><path fill="#000000" d="M 187.917969 31.304688 L 128.925781 31.351562 C 101.449219 31.351562 81.230469 53.386719 81.230469 77.386719 L 81.230469 247.390625 C 81.230469 270.644531 99.457031 289.730469 117.777344 292.679688 L 62.839844 374.960938 L 94.539062 374.960938 L 133.851562 317.449219 L 241.535156 317.449219 L 280.847656 374.960938 L 312.546875 374.960938 L 257.609375 292.679688 C 275.929688 289.730469 294.160156 270.644531 294.160156 247.390625 L 294.160156 77.386719 C 294.160156 53.386719 273.9375 31.351562 246.460938 31.351562 Z M 164.554688 41.164062 L 210.832031 41.164062 C 215.011719 41.164062 218.644531 44.667969 218.644531 48.84375 L 218.644531 62.355469 C 218.644531 66.53125 215.210938 70.109375 210.832031 70.109375 L 164.554688 70.109375 C 160.175781 70.109375 156.742188 66.53125 156.742188 62.355469 L 156.742188 48.84375 C 156.742188 44.667969 160.375 41.164062 164.554688 41.164062 Z M 130.519531 79.277344 L 244.867188 79.277344 C 260.394531 79.277344 268.628906 90.382812 268.628906 103.101562 L 268.628906 133.707031 C 268.75 148.417969 258.003906 157.410156 244.867188 157.410156 L 130.519531 157.410156 C 117.378906 157.410156 106.636719 148.417969 106.757812 133.707031 L 106.757812 103.101562 C 106.757812 90.382812 114.992188 79.277344 130.519531 79.277344 Z M 127.929688 226.128906 C 139.480469 226.128906 148.832031 235.464844 148.832031 246.996094 C 148.832031 258.527344 139.480469 267.867188 127.929688 267.867188 C 116.382812 267.867188 107.03125 258.527344 107.03125 246.996094 C 107.03125 235.464844 116.382812 226.128906 127.929688 226.128906 Z M 246.960938 226.128906 C 258.507812 226.128906 267.886719 235.464844 267.886719 246.996094 C 267.886719 258.527344 258.507812 267.867188 246.960938 267.867188 C 235.410156 267.867188 226.0625 258.527344 226.0625 246.996094 C 226.0625 235.464844 235.410156 226.128906 246.960938 226.128906 Z M 246.960938 226.128906 " fill-opacity="1" fill-rule="nonzero"/></g><path fill="#000000" d="M 170.148438 26.382812 C 162.851562 26.382812 156.9375 20.476562 156.9375 13.191406 C 156.9375 5.902344 162.851562 0 170.148438 0 C 177.445312 0 183.355469 5.90625 183.355469 13.191406 C 183.355469 20.472656 177.441406 26.382812 170.148438 26.382812 Z M 170.148438 26.382812 " fill-opacity="1" fill-rule="nonzero"/><path fill="#000000" d="M 205.242188 26.382812 C 212.539062 26.382812 218.453125 20.476562 218.453125 13.191406 C 218.453125 5.902344 212.539062 0 205.242188 0 C 197.945312 0 192.035156 5.90625 192.035156 13.191406 C 192.035156 20.472656 197.949219 26.382812 205.242188 26.382812 Z M 205.242188 26.382812 " fill-opacity="1" fill-rule="nonzero"/></svg>