<svg xmlns="http://www.w3.org/2000/svg" xmlns:xlink="http://www.w3.org/1999/xlink" width="500" zoomAndPan="magnify" viewBox="0 0 375 374.999991" height="500" preserveAspectRatio="xMidYMid meet" version="1.0"><path fill="#000000" d="M 243.886719 35.511719 C 243.886719 36.675781 243.828125 37.835938 243.714844 38.992188 C 243.601562 40.148438 243.429688 41.296875 243.203125 42.4375 C 242.976562 43.578125 242.691406 44.707031 242.355469 45.820312 C 242.015625 46.933594 241.625 48.027344 241.179688 49.101562 C 240.734375 50.175781 240.234375 51.226562 239.6875 52.25 C 239.136719 53.277344 238.539062 54.273438 237.890625 55.242188 C 237.246094 56.207031 236.550781 57.140625 235.8125 58.039062 C 235.074219 58.9375 234.292969 59.800781 233.46875 60.621094 C 232.644531 61.445312 231.78125 62.222656 230.882812 62.960938 C 229.980469 63.699219 229.046875 64.390625 228.078125 65.039062 C 227.109375 65.683594 226.113281 66.28125 225.085938 66.828125 C 224.058594 67.378906 223.003906 67.875 221.929688 68.320312 C 220.851562 68.765625 219.757812 69.15625 218.644531 69.492188 C 217.527344 69.832031 216.398438 70.113281 215.257812 70.339844 C 214.113281 70.566406 212.964844 70.738281 211.804688 70.851562 C 210.644531 70.964844 209.484375 71.023438 208.316406 71.023438 C 207.152344 71.023438 205.992188 70.964844 204.832031 70.851562 C 203.671875 70.738281 202.519531 70.566406 201.378906 70.339844 C 200.234375 70.113281 199.105469 69.832031 197.992188 69.492188 C 196.878906 69.15625 195.78125 68.765625 194.707031 68.320312 C 193.628906 67.875 192.578125 67.378906 191.550781 66.828125 C 190.523438 66.28125 189.523438 65.683594 188.554688 65.039062 C 187.585938 64.390625 186.652344 63.699219 185.753906 62.960938 C 184.851562 62.222656 183.988281 61.445312 183.167969 60.621094 C 182.34375 59.800781 181.5625 58.9375 180.824219 58.039062 C 180.082031 57.140625 179.390625 56.207031 178.742188 55.242188 C 178.097656 54.273438 177.496094 53.277344 176.949219 52.25 C 176.398438 51.226562 175.902344 50.175781 175.457031 49.101562 C 175.011719 48.027344 174.617188 46.933594 174.28125 45.820312 C 173.941406 44.707031 173.660156 43.578125 173.433594 42.4375 C 173.203125 41.296875 173.035156 40.148438 172.917969 38.992188 C 172.804688 37.835938 172.75 36.675781 172.75 35.511719 C 172.75 34.347656 172.804688 33.1875 172.917969 32.03125 C 173.035156 30.875 173.203125 29.722656 173.433594 28.582031 C 173.660156 27.441406 173.941406 26.316406 174.28125 25.203125 C 174.617188 24.089844 175.011719 22.996094 175.457031 21.921875 C 175.902344 20.847656 176.398438 19.796875 176.949219 18.769531 C 177.496094 17.746094 178.097656 16.75 178.742188 15.78125 C 179.390625 14.816406 180.082031 13.882812 180.824219 12.984375 C 181.5625 12.085938 182.34375 11.222656 183.167969 10.402344 C 183.988281 9.578125 184.851562 8.796875 185.753906 8.0625 C 186.652344 7.324219 187.585938 6.632812 188.554688 5.984375 C 189.523438 5.339844 190.523438 4.742188 191.550781 4.191406 C 192.578125 3.644531 193.628906 3.148438 194.707031 2.703125 C 195.78125 2.257812 196.878906 1.867188 197.992188 1.527344 C 199.105469 1.191406 200.234375 0.910156 201.378906 0.683594 C 202.519531 0.457031 203.671875 0.285156 204.832031 0.171875 C 205.992188 0.0585938 207.152344 0 208.316406 0 C 209.484375 0 210.644531 0.0585938 211.804688 0.171875 C 212.964844 0.285156 214.113281 0.457031 215.257812 0.683594 C 216.398438 0.910156 217.527344 1.191406 218.644531 1.527344 C 219.757812 1.867188 220.851562 2.257812 221.929688 2.703125 C 223.003906 3.148438 224.058594 3.644531 225.085938 4.191406 C 226.113281 4.742188 227.109375 5.339844 228.078125 5.984375 C 229.046875 6.632812 229.980469 7.324219 230.882812 8.0625 C 231.78125 8.796875 232.644531 9.578125 233.46875 10.402344 C 234.292969 11.222656 235.074219 12.085938 235.8125 12.984375 C 236.550781 13.882812 237.246094 14.816406 237.890625 15.78125 C 238.539062 16.75 239.136719 17.746094 239.6875 18.769531 C 240.234375 19.796875 240.734375 20.847656 241.179688 21.921875 C 241.625 22.996094 242.015625 24.089844 242.355469 25.203125 C 242.691406 26.316406 242.976562 27.441406 243.203125 28.582031 C 243.429688 29.722656 243.601562 30.875 243.714844 32.03125 C 243.828125 33.1875 243.886719 34.347656 243.886719 35.511719 Z M 243.886719 35.511719 " fill-opacity="1" fill-rule="nonzero"/><path fill="#000000" d="M 291.308594 187.144531 C 284.40625 183.992188 238.550781 161.265625 238.550781 161.265625 C 238.550781 161.265625 222.246094 126.660156 213.867188 107.714844 C 205.984375 89.859375 200.265625 85.226562 188.980469 85.226562 C 184.8125 85.226562 176.148438 85.226562 171.640625 85.226562 C 162.519531 85.226562 159.191406 88.550781 153.625 91.660156 L 106.703125 131.546875 C 102.550781 133.933594 99.929688 137.441406 98.308594 142.441406 L 88.265625 209.957031 C 86.828125 220.722656 92.492188 225.269531 98.933594 226.605469 C 104.15625 227.683594 112.054688 225.058594 113.605469 217.5 C 114.882812 211.277344 124.375 156.066406 124.375 156.066406 L 155.019531 132.585938 C 149.984375 155.996094 144.847656 181.691406 143.140625 190.371094 C 140.222656 205.285156 147.695312 216.632812 153.542969 225.46875 C 158.90625 233.566406 228.222656 342.640625 237.371094 354.515625 C 246.519531 366.390625 254.828125 372.257812 267.605469 365.171875 C 278.273438 359.246094 276.496094 345.640625 270.5625 335.582031 C 264.628906 325.527344 194.6875 211.890625 194.6875 211.890625 L 206.453125 161.292969 C 206.453125 161.292969 214.578125 172.828125 218.773438 179.347656 C 220.78125 182.457031 222.84375 183.652344 228.335938 186.675781 C 234.78125 190.226562 266.125 204.433594 275.644531 208.679688 C 284.078125 212.441406 294.578125 213.890625 298.804688 206.433594 C 303.03125 198.976562 297.640625 190.042969 291.308594 187.144531 Z M 291.308594 187.144531 " fill-opacity="1" fill-rule="nonzero"/><path fill="#000000" d="M 136.582031 233.039062 L 122.355469 282.910156 C 122.355469 282.910156 92.804688 325.625 84.578125 337.585938 C 78.417969 346.5625 73.765625 357.515625 84.339844 365.496094 C 96.191406 374.445312 105.679688 362.785156 111.824219 355.878906 C 117.460938 349.546875 140.339844 317.597656 146.824219 309.445312 C 151.136719 304.019531 153.527344 299.433594 155.363281 294.871094 C 156.585938 291.816406 161.238281 279.160156 164.210938 271.007812 Z M 136.582031 233.039062 " fill-opacity="1" fill-rule="nonzero"/></svg>