<!-- Generated by IcoMoon.io -->
<svg version="1.1" xmlns="http://www.w3.org/2000/svg" width="819" height="1024" viewBox="0 0 819 1024">
<title></title>
<g id="icomoon-ignore">
</g>
<path d="M0 530.1v-481.878c0-26.616 21.67-48.223 48.228-48.223h722.744c26.618 0 48.228 21.669 48.228 48.228v722.744c0 26.623-21.639 48.228-48.223 48.228h-722.729c-26.648 0-48.248-21.595-48.248-48.248v-240.852zM337.318 771.007c122.043-0.012 433.694-0.041 433.694-0.035 0 0-0.049-545.416-0.045-688.664l-182.728 182.728h86.396c13.307 0 24.094 10.787 24.094 24.094s-10.787 24.094-24.094 24.094h-144.565c-13.307 0-24.094-10.787-24.094-24.094v-144.565c0-13.307 10.787-24.094 24.094-24.094s24.094 10.787 24.094 24.094v86.396l182.77-182.77c-143.122 0.012-688.746 0.057-688.746 0.032v433.66h240.882c26.648 0 48.248 21.595 48.248 48.248v240.877zM289.129 530.13c0-0.037-240.882-0.060-240.882-0.060-0.037 0-0.060 240.882-0.060 240.882 0 0.037 240.882 0.060 240.882 0.060 0.037 0 0.060-240.882 0.060-240.882z"></path>
</svg>
