<svg xmlns="http://www.w3.org/2000/svg" xmlns:xlink="http://www.w3.org/1999/xlink" width="500" zoomAndPan="magnify" viewBox="0 0 375 374.999991" height="500" preserveAspectRatio="xMidYMid meet" version="1.0"><path fill="#000000" d="M 66.273438 235.609375 C 66.273438 232.03125 69.457031 229.328125 72.996094 229.847656 C 83.820312 231.4375 92.503906 236.652344 102.492188 243.96875 C 104.402344 245.371094 105.804688 247.355469 106.476562 249.628906 L 110.4375 262.992188 C 110.6875 263.84375 109.964844 264.660156 109.089844 264.511719 L 70.460938 257.957031 C 68.042969 257.542969 66.273438 255.449219 66.273438 252.992188 Z M 130.324219 274.019531 L 129.980469 273.210938 C 118.339844 246.042969 113.585938 234.953125 109.035156 224.335938 C 107.589844 220.957031 105.386719 217.953125 102.597656 215.554688 L 73.648438 190.621094 C 73.648438 190.621094 57.785156 215.421875 57.910156 263.632812 L 58.640625 263.734375 C 103.90625 270.230469 122.601562 272.914062 130.324219 274.019531 " fill-opacity="1" fill-rule="nonzero"/><path fill="#000000" d="M 74.398438 167.066406 L 74.371094 167.921875 C 74.386719 167.457031 74.398438 167.101562 74.410156 166.769531 L 74.398438 167.066406 " fill-opacity="1" fill-rule="nonzero"/><path fill="#000000" d="M 308.726562 235.609375 L 308.726562 252.992188 C 308.726562 255.449219 306.957031 257.542969 304.539062 257.957031 L 265.90625 264.511719 C 265.039062 264.660156 264.308594 263.84375 264.5625 262.992188 L 268.523438 249.628906 C 269.195312 247.355469 270.597656 245.371094 272.507812 243.96875 C 282.496094 236.652344 291.179688 231.4375 302.003906 229.847656 C 305.542969 229.328125 308.726562 232.03125 308.726562 235.609375 Z M 272.398438 215.554688 C 269.613281 217.953125 267.414062 220.957031 265.964844 224.335938 C 261.414062 234.953125 256.664062 246.042969 245.019531 273.210938 L 244.675781 274.019531 C 252.390625 272.914062 271.085938 270.230469 316.359375 263.734375 L 317.089844 263.632812 C 317.214844 215.425781 301.351562 190.625 301.351562 190.621094 L 272.398438 215.554688 " fill-opacity="1" fill-rule="nonzero"/><path fill="#000000" d="M 62.078125 152.132812 L 62.078125 108.289062 C 62.078125 106.238281 60.074219 104.578125 57.585938 104.578125 L 40.914062 104.578125 C 38.320312 104.578125 36.195312 106.269531 36.097656 108.410156 L 34.011719 152.800781 C 33.914062 154.898438 35.347656 156.738281 37.472656 157.597656 C 38.296875 157.9375 39.222656 158.125 40.207031 158.125 C 57.382812 158.125 51.433594 158.125 54.832031 158.125 C 58.832031 158.125 62.078125 155.445312 62.078125 152.132812 " fill-opacity="1" fill-rule="nonzero"/><path fill="#000000" d="M 187.5 279.433594 L 135.105469 279.433594 C 135.078125 279.429688 133.496094 279.203125 57.976562 268.371094 C 58.757812 301 62.644531 322.449219 65.371094 333.742188 C 66.734375 339.375 71.765625 343.347656 77.558594 343.347656 L 297.441406 343.347656 C 303.238281 343.347656 308.265625 339.375 309.625 333.742188 C 312.355469 322.449219 316.242188 301 317.023438 268.371094 C 241.503906 279.203125 239.921875 279.429688 239.894531 279.433594 L 187.5 279.433594 " fill-opacity="1" fill-rule="nonzero"/><path fill="#000000" d="M 87.167969 106.269531 C 87.167969 97.695312 94.117188 90.75 102.6875 90.75 L 272.3125 90.75 C 280.886719 90.75 287.832031 97.695312 287.832031 106.269531 L 287.832031 154.667969 C 255.90625 149.757812 119.09375 149.757812 87.167969 154.667969 Z M 248.84375 216.03125 L 248.851562 215.972656 L 126.148438 215.972656 C 125.796875 213.488281 125.429688 210.882812 125.042969 208.136719 L 143.480469 205.371094 L 231.523438 205.371094 L 249.957031 208.136719 C 249.570312 210.90625 249.199219 213.527344 248.84375 216.03125 Z M 246.160156 235.050781 L 128.84375 235.050781 C 128.304688 231.242188 127.703125 226.976562 127.027344 222.195312 L 247.972656 222.195312 C 247.296875 226.976562 246.695312 231.242188 246.160156 235.050781 Z M 243.46875 254.128906 L 131.535156 254.128906 C 130.972656 250.140625 129.722656 241.277344 129.722656 241.277344 L 245.277344 241.277344 C 245.277344 241.277344 244.03125 250.140625 243.46875 254.128906 Z M 240.777344 273.210938 L 134.222656 273.210938 C 133.65625 269.179688 132.414062 260.351562 132.414062 260.351562 L 242.585938 260.351562 C 242.585938 260.351562 241.347656 269.179688 240.777344 273.210938 Z M 110.980469 194.960938 L 114.871094 198.539062 C 116.4375 199.984375 117.507812 201.894531 117.914062 203.988281 C 123.644531 233.34375 127.382812 252.453125 131.429688 273.210938 L 131.625 274.203125 C 133.988281 274.542969 135.003906 274.6875 135.4375 274.753906 L 239.5625 274.753906 C 239.988281 274.691406 241 274.546875 243.375 274.203125 L 243.570312 273.210938 C 247.617188 252.453125 251.359375 233.34375 257.085938 203.988281 C 257.492188 201.894531 258.5625 199.984375 260.128906 198.539062 L 264.023438 194.960938 L 300.136719 161.703125 L 300.425781 161.691406 L 298.128906 89.675781 L 288.921875 25.585938 C 287.042969 12.503906 276.105469 2.621094 262.898438 2.074219 C 212.65625 -0.0078125 162.34375 -0.0078125 112.097656 2.074219 C 98.894531 2.621094 87.957031 12.503906 86.078125 25.585938 L 76.875 89.675781 L 74.574219 161.691406 L 74.863281 161.703125 L 110.980469 194.960938 " fill-opacity="1" fill-rule="nonzero"/><path fill="#000000" d="M 340.992188 152.800781 L 338.90625 108.410156 C 338.804688 106.269531 336.679688 104.578125 334.085938 104.578125 L 317.414062 104.578125 C 314.929688 104.578125 312.921875 106.238281 312.921875 108.285156 L 312.921875 152.132812 C 312.921875 155.445312 316.164062 158.125 320.164062 158.125 C 323.5625 158.125 317.617188 158.125 334.796875 158.125 C 335.777344 158.125 336.703125 157.9375 337.527344 157.601562 C 339.652344 156.738281 341.089844 154.898438 340.992188 152.800781 " fill-opacity="1" fill-rule="nonzero"/><path fill="#000000" d="M 297.441406 348.027344 L 269.085938 348.027344 L 269.085938 369.265625 C 269.085938 372.433594 271.652344 375 274.820312 375 L 307.1875 375 C 310.355469 375 312.921875 372.433594 312.921875 369.265625 L 312.921875 338.347656 C 310.089844 344.1875 304.15625 348.027344 297.441406 348.027344 " fill-opacity="1" fill-rule="nonzero"/><path fill="#000000" d="M 62.078125 338.347656 L 62.078125 369.265625 C 62.078125 372.433594 64.644531 375 67.8125 375 L 100.179688 375 C 103.347656 375 105.914062 372.433594 105.914062 369.265625 L 105.914062 348.027344 L 77.558594 348.027344 C 70.847656 348.027344 64.910156 344.1875 62.078125 338.347656 " fill-opacity="1" fill-rule="nonzero"/><path fill="#000000" d="M 314.632812 161.582031 L 305.222656 165.257812 L 305.375 169.875 L 305.570312 176.023438 L 328.742188 162.808594 L 320.167969 162.808594 C 318.167969 162.808594 316.285156 162.363281 314.632812 161.582031 " fill-opacity="1" fill-rule="nonzero"/><path fill="#000000" d="M 69.773438 165.257812 L 60.371094 161.582031 C 58.714844 162.363281 56.832031 162.808594 54.832031 162.808594 L 46.257812 162.808594 L 69.429688 176.023438 L 69.773438 165.257812 " fill-opacity="1" fill-rule="nonzero"/></svg>