<svg xmlns="http://www.w3.org/2000/svg" xmlns:xlink="http://www.w3.org/1999/xlink" width="500" zoomAndPan="magnify" viewBox="0 0 375 374.999991" height="500" preserveAspectRatio="xMidYMid meet" version="1.0"><defs><clipPath id="16ab2b2b2d"><path d="M 0 10 L 375 10 L 375 365.90625 L 0 365.90625 Z M 0 10 " clip-rule="nonzero"/></clipPath></defs><g clip-path="url(#16ab2b2b2d)"><path fill="#100f0d" d="M 316.046875 214.714844 C 316.046875 221.378906 311.78125 227.292969 305.457031 229.410156 C 275.28125 239.429688 233.546875 245.628906 187.476562 245.628906 C 141.417969 245.628906 99.683594 239.429688 69.492188 229.410156 C 63.183594 227.292969 58.902344 221.378906 58.902344 214.714844 L 58.902344 85.980469 C 58.902344 78.179688 65.226562 71.863281 73.046875 71.863281 L 301.917969 71.863281 C 309.738281 71.863281 316.046875 78.179688 316.046875 85.980469 Z M 316.046875 276.738281 C 316.046875 292.464844 301.164062 305.226562 282.816406 305.226562 L 241.324219 305.226562 C 231.628906 305.226562 228.527344 294.039062 237.195312 290.304688 L 303.191406 261.925781 C 309.089844 259.386719 316.046875 263.0625 316.046875 268.730469 Z M 133.628906 305.226562 L 92.136719 305.226562 C 73.789062 305.226562 58.902344 292.464844 58.902344 276.738281 L 58.902344 268.730469 C 58.902344 263.0625 65.863281 259.386719 71.757812 261.925781 L 137.757812 290.304688 C 146.421875 294.039062 143.320312 305.226562 133.628906 305.226562 Z M 119.40625 32.992188 C 119.40625 30.664062 121.296875 28.789062 123.613281 28.789062 L 251.351562 28.789062 C 253.667969 28.789062 255.542969 30.664062 255.542969 32.992188 L 255.542969 53.3125 C 255.542969 55.640625 253.667969 57.515625 251.351562 57.515625 L 123.613281 57.515625 C 121.296875 57.515625 119.40625 55.640625 119.40625 53.3125 Z M 368.292969 100.585938 L 364.332031 100.585938 L 364.332031 97.039062 C 364.332031 90.386719 358.917969 84.976562 352.261719 84.976562 L 337.34375 84.976562 L 337.34375 50.46875 C 337.34375 45.933594 336.347656 41.625 334.589844 37.738281 C 330.503906 28.667969 321.902344 22.5 312.144531 20.566406 C 310.332031 20.199219 308.515625 19.855469 306.714844 19.523438 C 249.113281 8.921875 187.476562 11.191406 187.476562 11.191406 C 187.476562 11.191406 125.835938 8.921875 68.25 19.523438 C 66.4375 19.855469 64.636719 20.199219 62.820312 20.566406 C 53.066406 22.5 44.457031 28.667969 40.359375 37.738281 C 38.621094 41.625 37.621094 45.933594 37.621094 50.46875 L 37.621094 84.976562 L 22.703125 84.976562 C 16.046875 84.976562 10.632812 90.386719 10.632812 97.039062 L 10.632812 100.585938 L 6.671875 100.585938 C 3.011719 100.585938 0.046875 103.546875 0.046875 107.207031 L 0.046875 158.988281 C 0.046875 162.644531 3.011719 165.609375 6.671875 165.609375 L 23.671875 165.609375 C 27.332031 165.609375 30.296875 162.644531 30.296875 158.988281 L 30.296875 107.207031 C 30.296875 103.546875 27.332031 100.585938 23.671875 100.585938 L 19.710938 100.585938 L 19.710938 97.039062 C 19.710938 95.390625 21.050781 94.050781 22.703125 94.050781 L 37.621094 94.050781 L 37.621094 294.65625 C 37.621094 310.875 47.265625 324.820312 61.121094 331.128906 L 61.121094 358 C 61.121094 362.378906 64.671875 365.921875 69.050781 365.921875 L 110.285156 365.921875 C 114.664062 365.921875 118.214844 362.378906 118.214844 358 L 118.214844 334.71875 L 256.753906 334.71875 L 256.753906 358 C 256.753906 362.378906 260.300781 365.921875 264.683594 365.921875 L 305.914062 365.921875 C 310.296875 365.921875 313.84375 362.378906 313.84375 358 L 313.84375 331.128906 C 327.703125 324.820312 337.34375 310.875 337.34375 294.65625 L 337.34375 94.050781 L 352.261719 94.050781 C 353.910156 94.050781 355.253906 95.390625 355.253906 97.039062 L 355.253906 100.585938 L 351.292969 100.585938 C 347.632812 100.585938 344.667969 103.546875 344.667969 107.207031 L 344.667969 158.988281 C 344.667969 162.644531 347.632812 165.609375 351.292969 165.609375 L 368.292969 165.609375 C 371.957031 165.609375 374.921875 162.644531 374.921875 158.988281 L 374.921875 107.207031 C 374.921875 103.546875 371.957031 100.585938 368.292969 100.585938 " fill-opacity="1" fill-rule="nonzero"/></g></svg>