<svg xmlns="http://www.w3.org/2000/svg" xmlns:xlink="http://www.w3.org/1999/xlink" width="500" zoomAndPan="magnify" viewBox="0 0 375 374.999991" height="500" preserveAspectRatio="xMidYMid meet" version="1.0"><defs><clipPath id="cd064fa1fe"><path d="M 3 76 L 373 76 L 373 345 L 3 345 Z M 3 76 " clip-rule="nonzero"/></clipPath></defs><g clip-path="url(#cd064fa1fe)"><path fill="#000000" d="M 124.207031 222.351562 L 251.253906 222.351562 C 256.621094 222.351562 257.84375 228.597656 255.351562 234.625 C 250.121094 247.359375 236.085938 259.910156 223.050781 255.898438 L 152.410156 255.898438 C 138.746094 255.898438 125.316406 247.355469 120.074219 234.625 C 117.613281 228.597656 118.921875 223.257812 124.207031 222.351562 Z M 306.9375 214.265625 C 319.816406 214.285156 325.757812 217.828125 328.183594 225.765625 C 332.34375 239.378906 321.851562 255.1875 307.730469 255.1875 L 286.941406 255.1875 C 272.144531 255.1875 268.355469 245.117188 270.734375 237.988281 C 274.519531 226.566406 294.074219 214.203125 306.9375 214.265625 Z M 104.714844 237.992188 C 107.09375 245.125 103.277344 255.191406 88.480469 255.191406 L 67.714844 255.191406 C 53.597656 255.191406 43.078125 239.378906 47.234375 225.773438 C 49.671875 217.832031 55.613281 214.292969 68.507812 214.269531 C 81.378906 214.203125 100.925781 226.566406 104.714844 237.992188 Z M 187.710938 92.765625 C 211.539062 92.792969 237.269531 93.613281 259.058594 95.113281 C 267.292969 95.683594 274.863281 100.125 279.957031 108.378906 C 290.886719 126.0625 300.578125 142.699219 306.722656 161.171875 C 306.722656 161.171875 238.441406 167.984375 187.710938 167.984375 C 137.023438 167.984375 68.738281 161.171875 68.738281 161.171875 C 74.882812 142.699219 84.582031 126.070312 95.492188 108.378906 C 100.566406 100.152344 108.136719 95.6875 116.402344 95.113281 C 138.179688 93.613281 163.929688 92.800781 187.710938 92.765625 Z M 187.710938 76.164062 C 160.066406 76.164062 131.84375 76.027344 104.808594 79.785156 C 92.300781 81.535156 84.210938 88.894531 78.445312 97.414062 C 65.265625 116.820312 56.746094 137.328125 49.335938 158.0625 L 16.207031 158.0625 C 6.988281 158.0625 1.472656 165.214844 3.871094 174.128906 C 6.5 183.96875 9.496094 188.804688 23.949219 192.175781 L 29.472656 193.445312 C 25.148438 201.675781 22.003906 210.355469 22.003906 218.140625 L 22.003906 281.863281 C 22.003906 292.53125 29.382812 301.523438 37.960938 304.863281 L 37.960938 334.703125 C 37.960938 340.53125 42.632812 345.207031 48.453125 345.207031 L 78.265625 345.207031 C 84.097656 345.207031 88.769531 340.535156 88.769531 334.703125 L 88.769531 306.363281 L 286.664062 306.363281 L 286.664062 334.703125 C 286.664062 340.53125 291.332031 345.207031 297.167969 345.207031 L 326.953125 345.207031 C 332.773438 345.207031 337.476562 340.535156 337.476562 334.703125 L 337.476562 304.863281 C 346.070312 301.523438 353.449219 292.53125 353.449219 281.863281 L 353.449219 218.136719 C 353.449219 210.347656 350.289062 201.667969 345.984375 193.441406 L 351.5 192.171875 C 365.957031 188.796875 368.960938 183.964844 371.589844 174.125 C 373.96875 165.207031 368.472656 158.058594 359.257812 158.058594 L 326.128906 158.058594 C 318.691406 137.324219 310.203125 116.816406 297.023438 97.410156 C 291.234375 88.894531 283.167969 81.535156 270.632812 79.78125 C 243.613281 76.027344 215.378906 76.164062 187.710938 76.164062 Z M 187.710938 76.164062 " fill-opacity="1" fill-rule="evenodd"/></g><path fill="#000000" d="M 141.265625 30.027344 C 131.757812 30.027344 124.113281 37.695312 124.113281 47.195312 L 124.113281 54.917969 C 124.113281 59.414062 127.738281 63.035156 132.238281 63.035156 L 163.777344 63.035156 L 163.777344 30.023438 L 141.265625 30.023438 Z M 141.265625 30.027344 " fill-opacity="1" fill-rule="evenodd"/><path fill="#000000" d="M 173.535156 30.027344 L 201.914062 30.027344 L 201.914062 63.042969 L 173.535156 63.042969 Z M 173.535156 30.027344 " fill-opacity="1" fill-rule="evenodd"/><path fill="#000000" d="M 211.640625 30.027344 L 211.640625 63.042969 L 243.210938 63.042969 C 247.707031 63.042969 251.335938 59.417969 251.335938 54.921875 L 251.335938 47.199219 C 251.335938 37.703125 243.699219 30.03125 234.195312 30.03125 L 211.640625 30.03125 Z M 211.640625 30.027344 " fill-opacity="1" fill-rule="evenodd"/></svg>