<svg width="1280" height="720" xmlns="http://www.w3.org/2000/svg" xmlns:xlink="http://www.w3.org/1999/xlink" overflow="hidden"><g><rect x="0" y="0" width="1280" height="720" fill="#FFFFFF"/><path d="M839.027 395.363C820.736 395.363 805.908 410.137 805.908 428.361 805.908 446.585 820.736 461.358 839.027 461.358 857.319 461.358 872.147 446.585 872.147 428.361 872.147 410.137 857.319 395.363 839.027 395.363ZM542.914 395.363C524.622 395.363 509.794 410.137 509.794 428.361 509.794 446.585 524.622 461.358 542.914 461.358 561.205 461.358 576.033 446.585 576.033 428.361 576.033 410.137 561.205 395.363 542.914 395.363ZM439.803 395.363C421.512 395.363 406.684 410.137 406.684 428.361 406.684 446.585 421.512 461.358 439.803 461.358 458.094 461.358 472.922 446.585 472.922 428.361 472.922 410.137 458.094 395.363 439.803 395.363ZM438.429 381.222C428.63 381.222 419.527 384.19 411.975 389.272L406.167 394.047 406.167 395.444 408.84 392.717C414.849 387.531 422.183 383.828 430.268 382.179L439.116 381.291ZM757.584 201.074C749.737 201.074 743.376 207.412 743.376 215.23L743.376 271.85C743.376 279.668 749.737 286.005 757.584 286.005L876.584 286.005C884.431 286.005 890.792 279.668 890.792 271.85L890.792 215.23C890.792 207.412 884.431 201.074 876.584 201.074ZM700.971 189.5 719.997 189.5 889.003 189.5 894.533 190.612C899.632 192.761 903.21 197.792 903.21 203.655L903.21 370.465 910.815 370.465C916.164 370.465 920.5 374.785 920.5 380.114L920.5 418.711C920.5 424.041 916.164 428.361 910.815 428.361L903.21 428.361 886.341 428.361C886.341 454.395 865.158 475.5 839.027 475.5 812.897 475.5 791.714 454.395 791.714 428.361 791.714 405.581 807.932 386.575 829.492 382.179L838.817 381.243 838.607 381.222C812.477 381.222 791.294 402.327 791.294 428.361L686.589 428.361 625.688 428.361 590.227 428.361C590.227 454.395 569.044 475.5 542.914 475.5 516.783 475.5 495.6 454.395 495.6 428.361 495.6 405.581 511.819 386.575 533.378 382.179L542.487 381.265 542.06 381.222C515.929 381.222 494.746 402.327 494.746 428.361L487.116 428.361C487.116 454.395 465.934 475.5 439.803 475.5 416.939 475.5 397.863 459.342 393.451 437.861L392.575 429.206 368.111 429.206C363.908 429.206 360.5 425.811 360.5 421.623L360.5 378.253C360.5 374.065 363.908 370.67 368.111 370.67L398.556 370.67 398.556 370.67 685.776 370.67 685.776 370.465 686.589 370.465 686.589 220.611 686.764 220.611 686.764 203.655C686.764 197.792 690.342 192.761 695.442 190.612Z" stroke="#000000" stroke-width="1.33333" stroke-miterlimit="8" fill-rule="evenodd"/></g></svg>