<!-- Generated by IcoMoon.io -->
<svg version="1.1" xmlns="http://www.w3.org/2000/svg" width="2844" height="1024" viewBox="0 0 2844 1024">
<title></title>
<g id="icomoon-ignore">
</g>
<path fill="#000" d="M737.633 746.228c-63.195 0-114.422 51.21-114.422 114.376 0 63.17 51.227 114.381 114.422 114.381s114.422-51.21 114.422-114.381c0-63.166-51.227-114.376-114.422-114.376zM2121.982 713.574c-63.195 0-114.422 51.21-114.422 114.376 0 63.17 51.227 114.381 114.422 114.381s114.422-51.21 114.422-114.381c0-63.166-51.227-114.376-114.422-114.376zM1839.911 40.12c-27.108 0-49.087 21.968-49.087 49.065v196.259c0 27.102 21.979 49.068 49.087 49.068h411.126c27.108 0 49.087-21.968 49.087-49.068v-196.259c0-27.097-21.979-49.065-49.087-49.065zM441.242 0.001h1008.115l121.196 121.146v506.123h24.081v-519.431h0.605v-58.772c0-20.325 12.364-37.762 29.98-45.211l19.107-3.855h649.615l19.104 3.855c17.618 7.448 29.98 24.887 29.98 45.211v578.203h26.275c18.48 0 33.46 14.973 33.46 33.446v133.788c0 18.473-14.979 33.446-33.46 33.446h-83.857c0 90.243-73.181 163.397-163.46 163.397-90.275 0-163.46-73.154-163.46-163.397 0-78.958 56.033-144.838 130.518-160.077l31.865-3.211-1.072-0.108c-90.278 0-163.46 73.154-163.46 163.394h-1056.911l-6.84-22.026-3.29-5.418 8.438 27.17c2.18 10.634 3.322 21.649 3.322 32.928 0 90.243-73.181 163.397-163.46 163.397-90.275 0-163.46-73.154-163.46-163.397l3.293-32.654h-102.763c-18.48 0-33.46-14.973-33.46-33.446v-133.788z"></path>
</svg>
