<!-- Generated by IcoMoon.io -->
<svg version="1.1" xmlns="http://www.w3.org/2000/svg" width="2844" height="1024" viewBox="0 0 2844 1024">
<title></title>
<g id="icomoon-ignore">
</g>
<path fill="#000" d="M1070.782 746.227c-63.195 0-114.422 51.21-114.422 114.376 0 63.17 51.227 114.381 114.422 114.381 63.19 0 114.422-51.21 114.422-114.381 0-63.166-51.232-114.376-114.422-114.376zM737.633 746.227c-63.195 0-114.422 51.21-114.422 114.376 0 63.17 51.227 114.381 114.422 114.381s114.422-51.21 114.422-114.381c0-63.166-51.227-114.376-114.422-114.376zM2121.982 713.573c-63.195 0-114.422 51.21-114.422 114.376 0 63.17 51.227 114.381 114.422 114.381s114.422-51.21 114.422-114.381c0-63.166-51.227-114.376-114.422-114.376zM1015.32 707.515l0.841-0.391 3.255-0.879zM1042.221 700.088l1.207-0.325 16.246-1.435zM1072.363 697.209l-0.844 0.073 31.81 3.206 0.757 0.152 22.69 7.040 13.856 5.747 20.927 11.353 2.539 1.92 22.264 18.366c7.396 7.39 14.087 15.489 19.961 24.181l11.679 21.507-5.842-14.879c-7.168-11.79-15.785-22.603-25.607-32.19l-22.456-16.986-1.923-1.587-0.616-0.331-7.832-5.926-13.094-5.427-6.227-3.38-7.629-2.366-11.61-4.812-11.081-2.227-0.363-0.114-0.394-0.038-9.126-1.833c-7.144-0.955-14.433-1.446-21.84-1.446zM1839.911 40.118c-27.108 0-49.087 21.968-49.087 49.065v196.259c0 27.102 21.979 49.068 49.087 49.068h411.126c27.108 0 49.087-21.968 49.087-49.068v-196.259c0-27.097-21.979-49.065-49.087-49.065zM441.242 0h1015.497l113.814 113.771v513.499h24.081v-519.431h0.605v-58.772c0-20.325 12.364-37.762 29.98-45.211l19.107-3.855h649.615l19.104 3.855c17.618 7.448 29.98 24.887 29.98 45.211v578.203h26.275c18.48 0 33.46 14.973 33.46 33.446v133.788c0 18.473-14.979 33.446-33.46 33.446h-83.857c0 90.243-73.181 163.397-163.46 163.397-90.275 0-163.46-73.154-163.46-163.397 0-78.958 56.033-144.838 130.518-160.077l31.865-3.211-1.072-0.108c-90.278 0-163.46 73.154-163.46 163.394l-723.871-0.274-7.562-19.256 5.981 19.256c2.176 10.634 3.322 21.649 3.322 32.928 0 90.243-73.184 163.397-163.46 163.397-90.278 0-163.46-73.154-163.46-163.397l3.29-32.654h-11.15l-6.84-22.026-3.29-5.418 8.438 27.17c2.18 10.634 3.322 21.649 3.322 32.928 0 90.243-73.181 163.397-163.46 163.397-90.275 0-163.46-73.154-163.46-163.397l3.293-32.654h-102.763c-18.48 0-33.46-14.973-33.46-33.446v-133.788z"></path>
</svg>
