<!-- Generated by IcoMoon.io -->
<svg version="1.1" xmlns="http://www.w3.org/2000/svg" width="2844" height="1024" viewBox="0 0 2844 1024">
<title></title>
<g id="icomoon-ignore">
</g>
<path fill="#000" d="M2580.278 716.338c-59.179 0-107.152 48.021-107.152 107.259s47.972 107.259 107.152 107.259c59.179 0 107.152-48.021 107.152-107.259s-47.972-107.259-107.152-107.259zM1686.031 716.338c-59.184 0-107.159 48.021-107.159 107.259s47.975 107.259 107.159 107.259c59.184 0 107.159-48.021 107.159-107.259s-47.975-107.259-107.159-107.259zM595.788 716.338c-59.179 0-107.159 48.021-107.159 107.259s47.98 107.259 107.159 107.259c59.184 0 107.162-48.021 107.162-107.259s-47.98-107.259-107.162-107.259zM262.843 716.338c-59.179 0-107.159 48.021-107.159 107.259s47.98 107.259 107.159 107.259c59.184 0 107.162-48.021 107.162-107.259s-47.98-107.259-107.162-107.259zM2316.9 84.8c-25.395 0-45.997 20.602-45.997 46.012v184.045c0 25.412 20.602 46.012 45.997 46.012h385.011c25.395 0 45.997-20.602 45.997-46.012v-184.045c0-25.412-20.602-46.012-45.997-46.012zM0.004 47.177h1766.791l129.285 129.405v458.822h191.103v-487.099h0.567v-55.115c0-19.059 11.577-35.41 28.074-42.398l17.893-3.616h608.391l17.88 3.616c16.519 6.986 28.084 23.338 28.084 42.398v542.215h24.618c17.297 0 31.324 14.045 31.324 31.368v125.461c0 17.324-14.025 31.365-31.324 31.365h-79.327c0 84.624-68.542 153.227-153.084 153.227s-153.084-68.603-153.084-153.227c0-74.048 52.475-135.826 122.246-150.114l30.222-3.052-0.615-0.061c-84.543 0-153.084 68.603-153.084 153.227h-586.848c0 84.624-68.537 153.227-153.084 153.227s-153.084-68.603-153.084-153.227c0-74.048 52.475-135.826 122.234-150.114l29.803-3.006-1.046-0.107c-84.546 0-153.084 68.603-153.084 153.227h-779.994c0-84.624-68.537-153.227-153.084-153.227l-0.995 0.101 29.859 3.012c69.759 14.287 122.234 76.066 122.234 150.114 0 84.624-68.537 153.227-153.087 153.227-84.546 0-153.084-68.603-153.084-153.227h-26.776c0 84.624-68.537 153.227-153.087 153.227-84.546 0-153.084-68.603-153.084-153.227l9.008-51.088 0.92-2.964 7.936-17.032 4.241-7.819 10.016-14.46 6.329-7.684 11.7-11.991 8.471-6.996 12.885-9.403 11.072-6.016 13.17-6.547 17.931-5.571 8.555-2.542 30.666-3.093-0.185-0.020c-10.566 0-20.887 1.072-30.849 3.113l-8.185 2.542-16.727 4.972-1.206 0.599-2.618 0.813-10.554 5.734-8.873 4.408-2.199 1.607-4.38 2.381-8.507 7.022-5.717 4.172-2.753 2.824-5.681 4.69-6.018 7.301-3.492 3.579-2.837 4.104-6.346 7.692-3.67 6.767-1.821 2.633-2.42 5.186-6.203 11.44-1.732 5.591-0.638 1.367-0.282 1.597-6.268 20.209c-2.037 9.973-3.11 20.3-3.11 30.879h-109.384z"></path>
</svg>
