<!-- Generated by IcoMoon.io -->
<svg version="1.1" xmlns="http://www.w3.org/2000/svg" width="2844" height="1024" viewBox="0 0 2844 1024">
<title></title>
<g id="icomoon-ignore">
</g>
<path fill="#000" d="M2614.845 691.051c-51.856 0-93.92 42.078-93.92 93.985s42.065 93.985 93.92 93.985c51.885 0 93.949-42.078 93.949-93.985s-42.065-93.985-93.949-93.985zM1771.773 691.051c-51.88 0-93.935 42.078-93.935 93.985s42.056 93.985 93.935 93.985c51.876 0 93.932-42.078 93.932-93.985s-42.056-93.985-93.932-93.985zM1474.219 691.051c-51.88 0-93.935 42.078-93.935 93.985s42.056 93.985 93.935 93.985c51.876 0 93.932-42.078 93.932-93.985s-42.056-93.985-93.932-93.985zM821.509 691.051c-51.88 0-93.935 42.078-93.935 93.985s42.056 93.985 93.935 93.985c51.876 0 93.932-42.078 93.932-93.985s-42.056-93.985-93.932-93.985zM526.557 691.051c-51.876 0-93.932 42.078-93.932 93.985s42.056 93.985 93.932 93.985c51.88 0 93.935-42.078 93.935-93.985s-42.056-93.985-93.935-93.985zM232.033 691.051c-51.88 0-93.935 42.078-93.935 93.985s42.056 93.985 93.935 93.985c51.876 0 93.932-42.078 93.932-93.985s-42.056-93.985-93.932-93.985zM2381.959 137.666c-22.252 0-40.305 18.052-40.305 40.318v161.269c0 22.267 18.052 40.318 40.305 40.318h337.507c22.252 0 40.276-18.052 40.276-40.318v-161.269c0-22.267-18.024-40.318-40.276-40.318zM-0.004 104.699h1894.54l113.329 113.391v402.043h172.727v-426.821h0.496v-48.295c0-16.7 10.147-31.028 24.611-37.151l15.685-3.168h533.304l15.668 3.168c14.475 6.122 24.608 20.45 24.608 37.151v475.116h21.571c15.185 0 27.475 12.307 27.475 27.486v109.935c0 15.18-12.29 27.483-27.475 27.483h-67.496c0 74.152-60.060 134.265-134.196 134.265-74.109 0-134.169-60.113-134.169-134.265 0-64.884 45.981-119.018 107.147-131.537l25.488-2.572-1.562-0.156c-74.109 0-134.196 60.113-134.196 134.265h-571.591c0 74.152-60.080 134.265-134.191 134.265s-134.191-60.113-134.191-134.265c0-64.884 45.999-119.018 107.147-131.537l26.496-2.671-0.548-0.057c-74.109 0-134.188 60.113-134.188 134.265h-25.539c0-74.152-60.080-134.265-134.191-134.265l-1.271 0.127 25.775 2.599c61.146 12.519 107.145 66.653 107.145 131.537 0 74.152-60.080 134.265-134.188 134.265-74.112 0-134.191-60.113-134.191-134.265h-384.297c0-74.152-60.080-134.265-134.191-134.265l-0.014 0.002 27.027 2.725c61.146 12.519 107.145 66.653 107.145 131.537 0 74.152-60.080 134.265-134.188 134.265-74.112 0-134.191-60.113-134.191-134.265h-25.505c0-74.152-60.080-134.265-134.191-134.265l-0.531 0.054 26.513 2.674c61.146 12.519 107.145 66.653 107.145 131.537 0 74.152-60.080 134.265-134.191 134.265-74.109 0-134.188-60.113-134.188-134.265h-24.475c0-74.152-60.080-134.265-134.191-134.265l-0.834 0.085 26.209 2.643c61.146 12.519 107.145 66.653 107.145 131.537 0 74.152-60.080 134.265-134.188 134.265-74.112 0-134.191-60.113-134.191-134.265h-97.846z"></path>
</svg>
