<!-- Generated by IcoMoon.io -->
<svg version="1.1" xmlns="http://www.w3.org/2000/svg" width="2844" height="1024" viewBox="0 0 2844 1024">
<title></title>
<g id="icomoon-ignore">
</g>
<path fill="#000" d="M2640.468 654.225l4.224-8.534 1.393-1.884zM2650.168 638.384l4.012-5.372 1.487-1.347zM2711.391 631.412c-30.092 0-54.497 24.541-54.497 54.817s24.404 54.817 54.497 54.817 54.497-24.544 54.497-54.817c0-30.277-24.404-54.817-54.497-54.817zM2220.343 631.412c-30.099 0-54.501 24.541-54.501 54.817s24.402 54.817 54.501 54.817c30.101 0 54.508-24.544 54.508-54.817 0-30.277-24.407-54.817-54.508-54.817zM2049.922 631.412c-30.101 0-54.501 24.541-54.501 54.817s24.4 54.817 54.501 54.817c30.099 0 54.501-24.544 54.501-54.817 0-30.277-24.402-54.817-54.501-54.817zM1329.288 631.412c-30.101 0-54.503 24.541-54.503 54.817s24.402 54.817 54.503 54.817c30.099 0 54.501-24.544 54.501-54.817 0-30.277-24.402-54.817-54.501-54.817zM1026.649 631.412c-30.101 0-54.501 24.541-54.501 54.817s24.4 54.817 54.501 54.817 54.501-24.544 54.501-54.817c0-30.277-24.4-54.817-54.501-54.817zM856.225 631.412c-30.099 0-54.501 24.541-54.501 54.817s24.402 54.817 54.501 54.817c30.101 0 54.503-24.544 54.503-54.817 0-30.277-24.402-54.817-54.503-54.817zM135.593 631.412c-30.1 0-54.502 24.541-54.502 54.817s24.401 54.817 54.502 54.817 54.502-24.544 54.502-54.817c0-30.277-24.402-54.817-54.502-54.817zM179.125 621.291l11.522 9.564c-3.521-3.543-7.381-6.748-11.522-9.564l-12.736-6.951zM165.899 614.071l-9.075-2.833zM151.285 609.51l-6.733-0.682zM135.593 607.918c-5.376 0-10.623 0.548-15.692 1.591h-0.003l-12.854 3.84-0.926 0.463-0.831 0.259-3.347 1.826-6.72 3.356-0.961 0.838-2.198 1.199c-4.143 2.816-8.001 6.021-11.523 9.564l-3.404 4.149-1.621 1.412-1.057 1.856-3.425 4.175c-2.798 4.165-5.209 8.617-7.178 13.302l-0.344 1.716-1.050 1.839-4.724 26.925 5.774-28.763 10.949-19.193 2.679-3.266 17.125-14.912 7.68-4.194 4.178-2.087 13.784-4.302 15.692-1.591zM2709.243 607.918c-8.071 0-15.837 1.347-23.153 3.852l-3.399 1.806-1.605 0.496c-4.65 1.982-9.087 4.406-13.217 7.22l-0.401 0.335-1.747 0.923-6.726 6.108 8.473-7.031 15.223-8.051 13.004-4.067 14.586-1.477zM2575.917 280.498c-12.91 0-23.39 11.52-23.39 25.729v102.906c0 14.211 10.479 25.729 23.39 25.729h195.824c12.91 0 23.39-11.518 23.39-25.729v-102.906c0-14.208-10.479-25.729-23.39-25.729zM-0.008 259.461h1092.917l72.085 72.356v257.266h28.87v-329.623h1092.908l72.103 72.356v256.55h100.213v-272.361h0.283v-30.817c0-10.656 5.877-19.8 14.279-23.706l9.111-2.023h309.419l9.087 2.023c8.402 3.906 14.279 13.050 14.279 23.706v303.176h12.532c8.804 0 15.931 7.853 15.931 17.539v70.149c0 9.686-7.128 17.539-15.931 17.539h-40.311l-4.626 23.118c-11.825 28.108-39.486 47.829-71.75 47.829-43.003 0-77.863-35.060-77.863-78.311l6.065-30.241-2.1 4.256c-3.917 10.251-6.113 21.521-6.113 33.35h-333.753l1.463-7.364c0-43.251-34.849-78.311-77.848-78.311l-0.448 0.045 15.243 1.545c35.487 7.303 62.158 38.877 62.158 76.72 0 43.251-34.849 78.311-77.85 78.311-32.249 0-59.92-19.722-71.74-47.829l-4.64-23.118h-16.875l1.477-7.364c0-43.251-34.86-78.311-77.86-78.311l-0.392 0.040 15.299 1.551c35.478 7.303 62.167 38.877 62.167 76.72 0 43.251-34.858 78.311-77.858 78.311-32.251 0-59.923-19.722-71.742-47.829l-4.64-23.118h-567.694l1.477-7.364-1.399-6.974-3.501-19.953-0.779-1.362-0.439-2.193c-1.971-4.685-4.38-9.137-7.179-13.302l-4.003-4.881-0.657-1.149-1.003-0.873-3.845-4.687c-3.523-3.543-7.381-6.748-11.522-9.564l-2.67-1.456-0.666-0.581-4.652-2.322-5.24-2.861-1.301-0.406-0.633-0.316-8.782-2.622-3.899-1.218c-5.070-1.043-10.316-1.591-15.693-1.591l-0.087 0.009 15.603 1.582 4.076 1.218 9.415 2.938 6.541 3.266 5.318 2.903 18.037 15.707 1.66 2.023 11.622 20.376 4.279 21.315 1.223 6.974c0 43.251-34.858 78.311-77.858 78.311-32.251 0-59.923-19.722-71.742-47.829l-4.64-23.118h-149.152l1.477-7.364c0-43.251-34.86-78.311-77.86-78.311l-0.361 0.035 15.33 1.556c35.48 7.303 62.169 38.877 62.169 76.72 0 43.251-34.86 78.311-77.86 78.311-32.249 0-59.92-19.722-71.74-47.829l-4.64-23.118h-17.052l1.477-7.364-4.838-24.102-0.494-2.825-0.111-0.191-0.675-3.364c-5.91-14.055-15.783-26.012-28.208-34.456l-3.212-1.553-0.557-0.483c-3.745-2.287-7.697-4.267-11.822-5.905l-2.183-0.651-2.605-1.258-3.281-0.5-4.789-1.43-13.864-1.406-1.218-0.184-0.305 0.031 1.523 0.154 18.653 2.837 5.886 1.758 14.562 7.040 19.151 16.677 12.945 22.696 0.605 3.016 4.23 24.102c0 43.251-34.858 78.311-77.86 78.311-32.249 0-59.92-19.722-71.74-47.829l-4.64-23.118h-567.871l1.043-5.192-5.684 28.31c-11.82 28.108-39.491 47.829-71.741 47.829s-59.922-19.722-71.74-47.829l-4.64-23.118h-59.219z"></path>
</svg>
