<!-- Generated by IcoMoon.io -->
<svg version="1.1" xmlns="http://www.w3.org/2000/svg" width="2844" height="1024" viewBox="0 0 2844 1024">
<title></title>
<g id="icomoon-ignore">
</g>
<path fill="#000" d="M2709.574 631.408c-30.092 0-54.497 24.541-54.497 54.817 0 30.274 24.404 54.817 54.497 54.817s54.497-24.544 54.497-54.817c0-30.277-24.404-54.817-54.497-54.817zM2221.463 631.408c-30.101 0-54.501 24.541-54.501 54.817 0 30.274 24.4 54.817 54.501 54.817 30.099 0 54.499-24.544 54.499-54.817 0-30.277-24.4-54.817-54.499-54.817zM1500.221 631.408c-30.101 0-54.501 24.541-54.501 54.817 0 30.274 24.4 54.817 54.501 54.817 30.099 0 54.501-24.544 54.501-54.817 0-30.277-24.402-54.817-54.501-54.817zM1329.684 631.408c-30.101 0-54.501 24.541-54.501 54.817 0 30.274 24.4 54.817 54.501 54.817 30.099 0 54.501-24.544 54.501-54.817 0-30.277-24.402-54.817-54.501-54.817zM1027.374 631.408c-30.099 0-54.501 24.541-54.501 54.817 0 30.274 24.402 54.817 54.501 54.817 30.101 0 54.501-24.544 54.501-54.817 0-30.277-24.4-54.817-54.501-54.817zM856.838 631.408c-30.101 0-54.503 24.541-54.503 54.817 0 30.274 24.402 54.817 54.503 54.817 30.099 0 54.501-24.544 54.501-54.817 0-30.277-24.402-54.817-54.501-54.817zM306.131 631.408c-30.099 0-54.501 24.541-54.501 54.817 0 30.274 24.402 54.817 54.501 54.817 30.101 0 54.501-24.544 54.501-54.817 0-30.277-24.4-54.817-54.501-54.817zM135.596 631.408c-30.1 0-54.502 24.541-54.502 54.817 0 30.274 24.401 54.817 54.502 54.817s54.502-24.544 54.502-54.817c0-30.277-24.402-54.817-54.502-54.817zM151.287 609.506l-6.733-0.682zM1027.374 607.915c43 0 77.86 35.060 77.86 78.311 0-43.251-34.86-78.311-77.86-78.311s-77.86 35.060-77.86 78.311c0-43.251 34.86-78.311 77.86-78.311zM135.596 607.915c-5.375 0-10.623 0.548-15.692 1.591h-0.003l-12.854 3.84-0.926 0.463-0.831 0.259-3.347 1.826-6.72 3.356-0.961 0.838-2.198 1.199c-4.143 2.816-8.001 6.021-11.523 9.564l-3.404 4.149-1.621 1.412-1.057 1.856-3.425 4.175c-2.798 4.165-5.209 8.617-7.178 13.302l-0.344 1.716-1.050 1.839-4.724 26.925 5.774-28.763 10.948-19.193 2.679-3.266 17.125-14.912 7.68-4.194 4.178-2.087 13.784-4.302 15.692-1.591zM2709.409 607.932l-3.706 0.375 3.54-0.392zM2575.917 280.495c-12.91 0-23.39 11.52-23.39 25.728v102.906c0 14.211 10.479 25.728 23.39 25.728h195.824c12.91 0 23.39-11.518 23.39-25.728v-102.906c0-14.208-10.479-25.728-23.39-25.728zM1193.865 259.458h1092.907l72.103 72.356v256.549h100.213v-272.36h0.283v-30.817c0-10.656 5.877-19.8 14.279-23.706l9.111-2.023h309.419l9.087 2.023c8.402 3.906 14.279 13.050 14.279 23.706v303.176h12.532c8.804 0 15.931 7.853 15.931 17.539v70.149c0 9.686-7.128 17.539-15.931 17.539h-40.973l-0.542-2.988-5.24 26.106c-11.825 28.108-39.51 47.829-71.75 47.829s-59.925-19.722-71.75-47.829l-5.57-27.825-0.873 4.706h-333.541l-4.65 23.118c-11.801 28.108-39.478 47.829-71.728 47.829-43.003 0-77.86-35.060-77.86-78.311l1.517-8.645 3.921-19.53 11.782-20.659 1.416-1.725 18.256-15.896 4.748-2.594 7.107-3.549 8.365-2.611 5.055-1.51 15.582-1.579-0.109-0.011c-5.374 0-10.623 0.548-15.691 1.591l-4.838 1.51-7.801 2.33-0.564 0.281-1.414 0.442-5.693 3.108-4.154 2.074-0.594 0.52-2.783 1.517c-4.143 2.816-8.001 6.021-11.522 9.564l-3.951 4.815-0.857 0.746-0.559 0.979-4.143 5.051c-2.797 4.165-5.207 8.617-7.177 13.302l-0.463 2.306-0.713 1.249-3.207 18.281-1.737 8.645 1.48 7.364h-568.263l-4.64 23.118c-11.82 28.108-39.491 47.829-71.74 47.829-43.003 0-77.86-35.060-77.86-78.311l1.517-8.645 3.921-19.53 11.782-20.659 1.416-1.725 18.256-15.896 4.748-2.594 7.107-3.549 8.365-2.611 5.055-1.51 15.582-1.579-0.109-0.011c-5.374 0-10.623 0.548-15.691 1.591l-4.838 1.51-7.801 2.33-0.564 0.281-1.414 0.442-5.693 3.108-4.154 2.074-0.594 0.52-2.783 1.517c-4.143 2.816-8.001 6.021-11.525 9.564l-3.949 4.815-0.857 0.746-0.559 0.979-4.143 5.051c-2.797 4.165-5.207 8.617-7.177 13.302l-0.463 2.306-0.713 1.249-3.207 18.281-1.737 8.645 1.48 7.364h-17.558l-4.64 23.118c-11.82 28.108-39.491 47.829-71.74 47.829-43 0-77.86-35.060-77.86-78.311l1.517-8.648 3.921-19.528 11.782-20.659 1.416-1.725 18.256-15.896 4.748-2.594 7.109-3.549 8.362-2.611 5.058-1.51 15.582-1.579-0.111-0.011c-5.374 0-10.623 0.548-15.691 1.591l-4.838 1.51-7.801 2.33-0.562 0.281-1.414 0.442-5.695 3.108-4.154 2.074-0.594 0.52-2.783 1.517c-4.143 2.816-8.001 6.021-11.522 9.564l-3.951 4.815-0.857 0.746-0.559 0.979-4.139 5.051c-2.799 4.165-5.209 8.617-7.179 13.302l-0.463 2.306-0.713 1.249-3.207 18.279-1.735 8.648 1.477 7.364h-149.328l-4.64 23.118c-11.82 28.108-39.491 47.829-71.742 47.829-32.249 0-59.92-19.722-71.74-47.829l-4.64-23.118h-17.774l1.477-7.364v-0.005l-4.722-26.922-1.051-1.839-0.344-1.716c-1.971-4.685-4.38-9.137-7.179-13.302l-3.425-4.178-1.057-1.852-1.621-1.412-3.403-4.149c-3.521-3.543-7.381-6.748-11.522-9.564l-2.198-1.199-0.963-0.838-6.717-3.354-3.349-1.83-0.831-0.259-0.925-0.463-12.854-3.84 13.779 4.302 4.18 2.089 7.68 4.191 17.123 14.912 2.679 3.264 10.949 19.195 5.773 28.765c0 43.251-34.858 78.311-77.858 78.311-32.251 0-59.922-19.722-71.742-47.829l-4.64-23.118h-397.943l-4.64 23.118c-11.82 28.108-39.491 47.829-71.742 47.829-43 0-77.858-35.060-77.858-78.311v-0.002l5.773-28.763 10.949-19.195 2.676-3.264 17.125-14.912 7.68-4.191 4.18-2.089 13.783-4.302 15.691-1.591c-5.374 0-10.623 0.548-15.691 1.591h-0.002l-12.856 3.84-0.925 0.463-0.831 0.259-3.349 1.83-6.717 3.354-0.963 0.838-2.198 1.199c-4.143 2.816-8.001 6.021-11.522 9.564l-3.406 4.149-1.619 1.412-1.057 1.852-3.425 4.178c-2.799 4.165-5.209 8.617-7.179 13.302l-0.344 1.716-1.051 1.839-4.722 26.927 1.477 7.364h-17.774l1.477-7.364c0-32.438-19.608-60.27-47.553-72.158 27.945 11.888 47.553 39.719 47.553 72.158 0 43.251-34.858 78.311-77.859 78.311-32.25 0-59.921-19.722-71.74-47.829l-4.64-23.118h-59.219v-434.132h1092.916l72.085 72.356v257.266h28.87z"></path>
</svg>
