<!-- Generated by IcoMoon.io -->
<svg version="1.1" xmlns="http://www.w3.org/2000/svg" width="2844" height="1024" viewBox="0 0 2844 1024">
<title></title>
<g id="icomoon-ignore">
</g>
<path fill="#000" d="M306.131 631.41c-30.099 0-54.501 24.541-54.501 54.817 0 30.274 24.402 54.817 54.501 54.817 30.101 0 54.503-24.544 54.503-54.817 0-30.277-24.402-54.817-54.503-54.817zM135.595 631.41c-30.1 0-54.502 24.541-54.502 54.817 0 30.274 24.401 54.817 54.502 54.817s54.502-24.544 54.502-54.817c0-30.277-24.402-54.817-54.502-54.817zM1499.782 630.056c-30.101 0-54.503 24.544-54.503 54.817 0 30.277 24.402 54.819 54.503 54.819 30.099 0 54.501-24.544 54.501-54.819s-24.402-54.817-54.501-54.817zM1329.246 630.056c-30.101 0-54.501 24.544-54.501 54.817 0 30.277 24.4 54.819 54.501 54.819 30.099 0 54.501-24.544 54.501-54.819s-24.402-54.817-54.501-54.817zM1027.155 630.056c-30.101 0-54.501 24.544-54.501 54.817 0 30.277 24.4 54.819 54.501 54.819 30.099 0 54.501-24.544 54.501-54.819s-24.402-54.817-54.501-54.817zM856.618 630.056c-30.099 0-54.501 24.544-54.501 54.817 0 30.277 24.402 54.819 54.501 54.819s54.501-24.544 54.501-54.819c0-30.274-24.402-54.817-54.501-54.817zM2708.321 628.703c-30.092 0-54.497 24.544-54.497 54.817s24.404 54.817 54.497 54.817c30.116 0 54.497-24.544 54.497-54.817s-24.38-54.817-54.497-54.817zM2220.804 628.703c-30.099 0-54.501 24.544-54.501 54.817s24.402 54.817 54.501 54.817c30.099 0 54.494-24.544 54.494-54.817s-24.395-54.817-54.494-54.817zM2050.268 628.703c-30.099 0-54.501 24.544-54.501 54.817s24.402 54.817 54.501 54.817c30.101 0 54.501-24.544 54.501-54.817s-24.4-54.817-54.501-54.817zM151.287 609.508l-6.733-0.682zM135.595 607.917c-5.375 0-10.623 0.548-15.692 1.591h-0.003l-12.854 3.84-0.926 0.463-0.831 0.259-3.347 1.826-6.719 3.356-0.961 0.838-2.198 1.199c-4.143 2.816-8.001 6.021-11.523 9.564l-3.404 4.149-1.621 1.412-1.057 1.856-3.425 4.175c-2.798 4.165-5.209 8.617-7.178 13.302l-0.344 1.716-1.050 1.839-4.724 26.925 5.774-28.763 10.948-19.193 2.679-3.266 17.125-14.912 7.68-4.194 4.179-2.087 13.784-4.302 15.692-1.591zM2575.914 280.497c-12.91 0-23.39 11.52-23.39 25.728v102.906c0 14.21 10.479 25.728 23.39 25.728h195.824c12.91 0 23.39-11.518 23.39-25.728v-102.906c0-14.208-10.479-25.728-23.39-25.728zM1193.864 259.46h1092.906l72.103 72.356v256.549h100.213v-272.36h0.283v-30.817c0-10.656 5.877-19.8 14.279-23.706l9.111-2.023h309.419l9.087 2.023c8.402 3.906 14.279 13.050 14.279 23.706v303.176h12.532c8.804 0 15.931 7.853 15.931 17.539v70.149c0 9.686-7.128 17.539-15.931 17.539h-40.973l-1.393-7.647-5.641 28.058c-11.825 28.108-39.486 47.829-71.749 47.829-32.24 0-59.925-19.722-71.726-47.829l-4.674-23.288-0.542 2.877h-333.752l1.463-7.364-0.472-2.443-6.065 30.217c-11.825 28.108-39.497 47.829-71.747 47.829s-59.92-19.722-71.74-47.829l-5.629-28.039-0.054 0.264 1.48 7.364h-17.774l1.477-7.364-0.491-2.443-6.065 30.217c-11.818 28.108-39.488 47.829-71.74 47.829-32.249 0-59.92-19.722-71.74-47.829l-5.629-28.039-0.052 0.264 1.477 7.364h-397.943l1.477-7.364-0.246-1.22-6.091 30.349c-11.82 28.108-39.491 47.829-71.74 47.829-32.251 0-59.922-19.722-71.742-47.829l-5.873-29.261-0.028 0.132 1.48 7.364h-17.774l1.477-7.364-0.246-1.22-6.091 30.349c-11.82 28.108-39.491 47.829-71.74 47.829-32.251 0-59.922-19.722-71.742-47.829l-5.873-29.261-0.026 0.132 1.477 7.364h-149.328l1.477-7.364-0.246-1.22-6.091 30.349c-11.82 28.108-39.491 47.829-71.74 47.829-32.251 0-59.922-19.722-71.742-47.829l-5.873-29.261-0.028 0.132 1.48 7.364h-17.774l1.477-7.364-0.243-1.223-6.093 30.352c-11.82 28.108-39.491 47.829-71.74 47.829s-59.92-19.722-71.74-47.829l-5.875-29.261-0.026 0.132 1.477 7.364h-397.943l-4.64 23.118c-11.82 28.108-39.491 47.829-71.742 47.829-43 0-77.857-35.060-77.857-78.311v-0.002l5.773-28.763 10.949-19.195 2.676-3.264 17.125-14.912 7.68-4.191 4.18-2.089 13.783-4.302 15.691-1.591c-5.374 0-10.623 0.548-15.691 1.591h-0.002l-12.856 3.84-0.925 0.463-0.831 0.259-3.349 1.83-6.717 3.354-0.963 0.838-2.198 1.199c-4.143 2.816-8.001 6.021-11.522 9.564l-3.406 4.149-1.619 1.412-1.057 1.852-3.425 4.178c-2.799 4.165-5.209 8.617-7.179 13.302l-0.344 1.716-1.051 1.839-4.722 26.927 1.477 7.364h-17.774l1.477-7.364c0-32.438-19.608-60.27-47.553-72.158 27.945 11.888 47.553 39.719 47.553 72.158 0 43.251-34.858 78.311-77.859 78.311-32.25 0-59.921-19.722-71.74-47.829l-4.64-23.118h-59.219v-434.131h1092.915l72.084 72.356v257.266h28.87z"></path>
</svg>
