<!-- Generated by IcoMoon.io -->
<svg version="1.1" xmlns="http://www.w3.org/2000/svg" width="1024" height="1024" viewBox="0 0 1024 1024">
<title></title>
<g id="icomoon-ignore">
</g>
<path d="M799.584 325.355c0-145.429-118.208-263.744-263.499-263.744h-272.576c-145.301 0-263.509 118.315-263.509 263.744v72.032c0 113.44 72.085 213.867 179.36 249.899l10.549 3.531-5.579 9.632c-14.304 24.704-33.739 63.509-59.413 118.624-3.083 6.613-1.696 14.528 3.435 19.712 5.109 5.109 13.248 6.539 19.637 3.573l308.747-141.227h79.349c145.291 0 263.499-118.315 263.499-263.744zM764.619 397.387c0 126.144-102.517 228.789-228.533 228.789h-83.157c-2.485 0-5.003 0.544-7.275 1.579l-268.533 122.848 11.627-23.104c10.624-21.109 29.824-58.315 39.051-70.357l1.035-1.355 1.472-0.896c4.576-2.773 7.595-7.403 8.277-12.725 1.195-9.28-5.099-17.824-14.315-19.456-109.685-19.2-189.312-113.963-189.312-225.323v-72.032c0-126.144 102.528-228.789 228.544-228.789h272.576c126.016 0 228.544 102.645 228.544 228.789z"></path>
<path d="M193.824 317.771c-27.392 0-49.664 22.283-49.664 49.664 0 27.392 22.283 49.675 49.664 49.675s49.664-22.283 49.664-49.675c0-27.381-22.272-49.664-49.664-49.664z"></path>
<path d="M605.76 317.771c-27.381 0-49.664 22.283-49.664 49.664 0 27.392 22.283 49.675 49.664 49.675 27.392 0 49.675-22.283 49.675-49.675 0-27.381-22.283-49.664-49.675-49.664z"></path>
<path d="M399.797 317.771c-27.392 0-49.675 22.283-49.675 49.664 0 27.392 22.283 49.675 49.675 49.675 27.381 0 49.664-22.283 49.664-49.675 0-27.381-22.283-49.664-49.664-49.664z"></path>
<path d="M354.144 739.339l-35.979 16.459c45.899 38.869 105.067 62.485 169.749 62.485h79.349l308.736 141.227c6.4 2.965 14.539 1.536 19.637-3.573 5.141-5.184 6.528-13.099 3.435-19.712-25.664-55.115-45.099-93.92-59.403-118.624l-5.579-9.632 10.549-3.541c107.275-36.021 179.36-136.448 179.36-249.888v-72.032c0-128.533-92.448-235.584-214.208-258.784 4.661 12.544 8.437 25.493 11.36 38.773 0.064 0.021 0.128 0.043 0.192 0.064-0.064-0.021-0.139-0.053-0.213-0.075 4.437 20.256 6.944 41.301 6.944 62.923v72.021c0 161.109-130.965 292.181-291.957 292.181h-73.152zM785.408 799.307v-0.011z"></path>
</svg>
