<!-- Generated by IcoMoon.io -->
<svg version="1.1" xmlns="http://www.w3.org/2000/svg" width="1024" height="1024" viewBox="0 0 1024 1024">
<title></title>
<g id="icomoon-ignore">
</g>
<path d="M137.504 0h608.384v117.685c0 23.915 19.445 43.349 43.36 43.349h117.685v842.325c0 11.371-9.28 20.64-20.64 20.64h-748.789c-11.371 0-20.64-9.269-20.64-20.64v-982.72c0-11.371 9.269-20.64 20.64-20.64zM778.923 1.792v115.893c0 5.685 4.64 10.325 10.325 10.325h115.893c-1.003-2.197-2.421-4.213-4.256-6.048l-115.915-115.915c-1.835-1.835-3.851-3.253-6.048-4.256zM346.72 768.139c-7.392 0-13.408 6.027-13.408 13.408v141.579c0 7.381 6.016 13.408 13.408 13.408h31.787c7.381 0 13.408-6.027 13.408-13.408v-141.579c0-7.381-6.027-13.408-13.408-13.408zM724.928 570.123c-7.392 0-13.408 6.016-13.408 13.408v339.595c0 7.381 6.016 13.408 13.408 13.408h31.776c7.392 0 13.419-6.027 13.419-13.408v-339.595c0-7.392-6.027-13.408-13.419-13.408zM598.859 636.128c-7.392 0-13.419 6.016-13.419 13.408 0 91.189 0 182.389 0 273.589 0 7.381 6.027 13.408 13.419 13.408 10.592 0 21.184 0 31.776 0 7.392 0 13.419-6.027 13.419-13.408 0-91.2 0-182.389 0-273.589 0-7.392-6.027-13.408-13.419-13.408-10.592 0-21.184 0-31.776 0zM472.789 702.133c-7.392 0-13.408 6.027-13.408 13.408 0 69.195 0 138.389 0 207.584 0 7.381 6.016 13.408 13.408 13.408 10.592 0 21.184 0 31.787 0 7.381 0 13.408-6.027 13.408-13.408 0-69.195 0-138.389 0-207.584 0-7.381-6.027-13.408-13.408-13.408-10.603 0-21.195 0-31.787 0zM316.384 561.461h125.259c9.12 0 16.512-7.392 16.512-16.512s-7.392-16.523-16.512-16.523h-125.259c-9.131 0-16.523 7.403-16.523 16.523s7.392 16.512 16.523 16.512zM249.483 640.725h16.928c9.12 0 16.512-7.392 16.512-16.512s-7.392-16.523-16.512-16.523h-16.928c-9.12 0-16.512 7.403-16.512 16.523s7.392 16.512 16.512 16.512zM249.483 561.461h16.928c9.12 0 16.512-7.392 16.512-16.512s-7.392-16.523-16.512-16.523h-16.928c-9.12 0-16.512 7.403-16.512 16.523s7.392 16.512 16.512 16.512zM316.384 640.725h125.259c9.12 0 16.512-7.392 16.512-16.512s-7.392-16.523-16.512-16.523h-125.259c-9.131 0-16.523 7.403-16.523 16.523s7.392 16.512 16.523 16.512zM644.864 410.176h148.395c9.131 0 16.523-7.403 16.523-16.523s-7.392-16.512-16.523-16.512h-148.395c-9.12 0-16.523 7.392-16.523 16.512s7.403 16.523 16.523 16.523zM644.864 330.912h148.395c9.131 0 16.523-7.403 16.523-16.523s-7.392-16.512-16.523-16.512h-148.395c-9.12 0-16.523 7.392-16.523 16.512s7.403 16.523 16.523 16.523zM644.864 251.648h148.395c9.131 0 16.523-7.392 16.523-16.523 0-9.12-7.392-16.512-16.523-16.512h-148.395c-9.12 0-16.523 7.392-16.523 16.512 0 9.131 7.403 16.523 16.523 16.523zM362.272 130.133c-84.235 8.299-150.048 79.339-150.048 165.749 0 91.989 74.581 166.571 166.571 166.571 24.459 0 47.691-5.28 68.619-14.752l-82.315-142.581c-1.781-2.635-2.827-5.813-2.827-9.237zM475.936 431.189c37.835-27.211 63.797-69.888 68.608-118.784h-137.195zM544.544 279.371c-7.755-78.805-70.432-141.483-149.237-149.237v149.237z"></path>
</svg>
