<?xml version="1.0" standalone="no"?>
<!DOCTYPE svg PUBLIC "-//W3C//DTD SVG 20010904//EN"
 "http://www.w3.org/TR/2001/REC-SVG-20010904/DTD/svg10.dtd">
<svg version="1.0" xmlns="http://www.w3.org/2000/svg"
 width="512.000000pt" height="492.000000pt" viewBox="0 0 512.000000 492.000000"
 preserveAspectRatio="xMidYMid meet">
<metadata>
Created by potrace 1.16, written by Peter Selinger 2001-2019
</metadata>
<g transform="translate(0.000000,492.000000) scale(0.100000,-0.100000)"
fill="#000000" stroke="none">
<path d="M2435 4910 c-103 -25 -200 -107 -249 -210 -37 -78 -47 -188 -24 -267
l15 -49 -105 -28 c-125 -34 -345 -141 -447 -218 -325 -244 -526 -606 -579
-1043 -8 -67 -17 -256 -20 -430 -6 -336 -16 -493 -47 -710 -39 -272 -99 -450
-179 -526 -33 -32 -48 -38 -97 -44 -132 -13 -199 -54 -247 -147 -54 -107 -33
-250 50 -332 82 -83 -94 -76 2014 -76 1396 0 1886 3 1911 12 69 23 116 65 149
131 78 160 7 347 -150 396 -19 6 -61 13 -93 17 -49 5 -66 12 -98 41 -80 72
-139 246 -178 518 -30 206 -41 380 -51 765 -9 352 -19 448 -61 612 -84 331
-276 623 -535 814 -133 99 -329 192 -480 228 l-72 18 15 46 c9 31 13 75 11
129 -6 108 -44 189 -127 265 -87 81 -215 116 -326 88z"/>
<path d="M2175 658 c-10 -24 -20 -80 -23 -126 -4 -68 -1 -93 18 -145 40 -109
107 -184 208 -230 67 -31 217 -31 284 0 103 47 171 123 208 233 26 77 24 198
-5 268 l-17 42 -328 0 -328 0 -17 -42z"/>
</g>
</svg>
