<!-- Generated by IcoMoon.io -->
<svg version="1.1" xmlns="http://www.w3.org/2000/svg" width="1024" height="1024" viewBox="0 0 1024 1024">
<title></title>
<g id="icomoon-ignore">
</g>
<path d="M138.016 0c-1.184 0-2.133 0.96-2.133 2.133v221.376c0 1.173 0.949 2.133 2.133 2.133h66.443c1.173 0 2.133-0.96 2.133-2.133v-165.237c0-8.245 6.688-14.933 14.933-14.933s14.933 6.688 14.933 14.933v165.237c0 1.173 0.96 2.133 2.133 2.133h38.4c1.173 0 2.133-0.96 2.133-2.133v-165.237c0-8.245 6.688-14.933 14.933-14.933s14.933 6.688 14.933 14.933v165.237c0 1.173 0.96 2.133 2.133 2.133h38.4c1.184 0 2.133-0.96 2.133-2.133v-165.237c0-8.245 6.688-14.933 14.933-14.933 8.256 0 14.933 6.688 14.933 14.933v165.237c0 1.173 0.96 2.133 2.133 2.133h38.4c1.184 0 2.133-0.96 2.133-2.133v-165.237c0-8.245 6.688-14.933 14.933-14.933 8.256 0 14.933 6.688 14.933 14.933v165.237c0 1.173 0.96 2.133 2.133 2.133h38.411c1.173 0 2.133-0.96 2.133-2.133v-165.237c0-8.245 6.677-14.933 14.933-14.933 8.245 0 14.933 6.688 14.933 14.933v165.237c0 1.173 0.949 2.133 2.133 2.133h38.4c1.173 0 2.133-0.96 2.133-2.133v-165.237c0-8.245 6.677-14.933 14.933-14.933 8.245 0 14.933 6.688 14.933 14.933v165.237c0 1.173 0.949 2.133 2.133 2.133h38.4c1.173 0 2.133-0.96 2.133-2.133v-165.237c0-8.245 6.677-14.933 14.933-14.933 8.245 0 14.933 6.688 14.933 14.933v165.237c0 1.173 0.949 2.133 2.133 2.133h37.568c1.173 0 2.133 0.96 2.133 2.133v115.093c0 1.173 0.949 2.133 2.133 2.133h24.619c1.173 0 2.133-0.96 2.133-2.133v-340.736c0-1.173-0.96-2.133-2.133-2.133h-602.24zM681.515 255.509c1.173 0 2.133 0.96 2.133 2.133v340.736c0 1.173-0.96 2.133-2.133 2.133h-24.629c-1.173 0-2.133-0.96-2.133-2.133v-115.093c0-1.173-0.949-2.133-2.133-2.133h-37.568c-1.173 0-2.133-0.96-2.133-2.133v-165.237c0-8.245-6.677-14.933-14.933-14.933-8.245 0-14.933 6.688-14.933 14.933v165.237c0 1.173-0.949 2.133-2.133 2.133h-38.4c-1.173 0-2.133-0.96-2.133-2.133v-165.237c0-8.245-6.688-14.933-14.933-14.933s-14.933 6.688-14.933 14.933v165.237c0 1.173-0.96 2.133-2.133 2.133h-38.4c-1.173 0-2.133-0.96-2.133-2.133v-165.237c0-8.245-6.688-14.933-14.933-14.933s-14.933 6.688-14.933 14.933v165.237c0 1.173-0.96 2.133-2.133 2.133h-38.4c-1.173 0-2.133-0.96-2.133-2.133v-165.237c0-8.245-6.688-14.933-14.933-14.933s-14.933 6.688-14.933 14.933v165.237c0 1.173-0.96 2.133-2.133 2.133h-38.4c-1.173 0-2.133-0.96-2.133-2.133v-165.237c0-8.245-6.688-14.933-14.933-14.933s-14.933 6.688-14.933 14.933v165.237c0 1.173-0.96 2.133-2.133 2.133h-38.4c-1.173 0-2.133-0.96-2.133-2.133v-165.237c0-8.245-6.688-14.933-14.933-14.933s-14.933 6.688-14.933 14.933v165.237c0 1.173-0.96 2.133-2.133 2.133h-38.4c-1.173 0-2.133-0.96-2.133-2.133v-165.237c0-8.245-6.688-14.933-14.933-14.933s-14.933 6.688-14.933 14.933v165.237c0 1.173-0.96 2.133-2.133 2.133h-66.464c-1.173 0-2.133-0.96-2.133-2.133v-221.376c0-1.173 0.96-2.133 2.133-2.133zM715.637 374.859h126.197c11.392 0 21.195 5.333 27.392 14.901l68.011 105.035c3.573 5.515 5.237 11.157 5.237 17.728v15.147c0 1.173-0.96 2.133-2.133 2.133h-24.981c-8.245 0-14.933 6.688-14.933 14.933s6.688 14.933 14.933 14.933h24.981c1.173 0 2.133 0.96 2.133 2.133v71.413c0 1.173-0.96 2.133-2.133 2.133h-44.107c-0.715 0-1.312-0.309-1.728-0.885-28.491-39.264-80.704-53.429-124.928-34.133-0.288 0.128-0.544 0.181-0.853 0.181h-53.099c-1.173 0-2.133-0.96-2.133-2.133v-221.387c0.011-1.173 0.96-2.133 2.144-2.133zM948.928 665.205c8.981 0 16.32 7.328 16.32 16.32v27.061c0 8.981-7.328 16.309-16.32 16.309h-36.341c-1.419 0-2.432-1.323-2.059-2.688 4.811-17.696 4.811-36.619 0-54.304-0.373-1.365 0.64-2.699 2.059-2.699h36.341zM838.987 627.211c28.117 11.68 46.101 39.456 45.259 69.888-0.064 2.091-2.784 2.859-3.925 1.099l-43.947-67.861c-1.131-1.749 0.683-3.925 2.613-3.125zM769.717 559.669h27.115c8.256 0 14.933-6.688 14.933-14.933s-6.677-14.933-14.933-14.933h-27.115c-8.245 0-14.933 6.688-14.933 14.933s6.688 14.933 14.933 14.933zM748.384 420.683v80.064c0 1.184 0.96 2.133 2.133 2.133h154.891c1.696 0 2.709-1.867 1.792-3.285l-51.851-80.075c-0.405-0.619-1.045-0.971-1.792-0.971h-103.040c-1.173 0-2.133 0.96-2.133 2.133zM656.875 630.368c-1.173 0-2.133 0.96-2.133 2.133v256.213c0 1.184 0.96 2.133 2.133 2.133h9.813c0.704 0 1.312-0.309 1.728-0.875 18.773-25.877 49.259-42.709 83.669-42.709 34.4 0 64.885 16.832 83.659 42.709 0.416 0.565 1.024 0.875 1.728 0.875h44.107c1.184 0 2.133-0.949 2.133-2.133v-71.403c0-1.173-0.949-2.133-2.133-2.133h-24.981c-8.245 0-14.933-6.688-14.933-14.933s6.688-14.933 14.933-14.933h24.981c1.184 0 2.133-0.96 2.133-2.133v-15.147c0-6.571-1.664-12.213-5.237-17.739l-68.011-105.024c-6.197-9.568-15.989-14.901-27.392-14.901zM890.176 920.715c8.981 0 16.309 7.328 16.32 16.32v27.061c0 8.981-7.339 16.309-16.32 16.309h-36.352c-1.408 0-2.421-1.323-2.059-2.688 4.811-17.696 4.811-36.619 0-54.304-0.363-1.365 0.651-2.699 2.059-2.699h36.352zM133.237 877.131c40.565 0 73.44 32.875 73.44 73.429s-32.875 73.44-73.44 73.44c-40.555 0-73.429-32.885-73.429-73.44s32.875-73.429 73.429-73.429zM133.237 931.36c-10.603 0-19.2 8.597-19.2 19.2s8.597 19.2 19.2 19.2c10.603 0 19.2-8.597 19.2-19.2s-8.597-19.2-19.2-19.2zM322.784 877.131c40.555 0 73.429 32.875 73.429 73.429s-32.875 73.44-73.429 73.44c-40.565 0-73.44-32.885-73.44-73.44s32.875-73.429 73.44-73.429zM322.784 931.36c-10.603 0-19.2 8.597-19.2 19.2s8.597 19.2 19.2 19.2c10.603 0 19.2-8.597 19.2-19.2s-8.597-19.2-19.2-19.2zM752.085 877.131c40.555 0 73.429 32.875 73.429 73.429s-32.875 73.44-73.429 73.44c-40.565 0-73.44-32.885-73.44-73.44s32.875-73.429 73.44-73.429zM752.085 931.36c-10.613 0-19.2 8.597-19.2 19.2s8.587 19.2 19.2 19.2c10.603 0 19.2-8.597 19.2-19.2s-8.597-19.2-19.2-19.2zM650.336 920.715c1.408 0 2.432 1.333 2.059 2.699-4.811 17.685-4.811 36.608 0 54.304 0.373 1.365-0.651 2.688-2.059 2.688h-225.813c-1.408 0-2.421-1.323-2.059-2.688 4.811-17.696 4.811-36.619 0-54.304-0.363-1.365 0.651-2.699 2.059-2.699h225.813zM31.499 920.715c1.408 0 2.421 1.333 2.059 2.699-4.811 17.685-4.811 36.619 0 54.304 0.363 1.365-0.651 2.688-2.059 2.688h-15.179c-8.992 0-16.32-7.328-16.32-16.309v-27.061c0-8.981 7.328-16.32 16.32-16.32h15.179zM20.501 511.019c-1.173 0-2.133 0.96-2.133 2.133v375.563c0 1.184 0.96 2.133 2.133 2.133h27.349c0.704 0 1.312-0.309 1.728-0.875 18.773-25.877 49.259-42.709 83.659-42.709 40.8 0 76.075 23.659 92.853 57.995 0.779 1.589 3.061 1.589 3.84 0 16.789-34.336 52.064-57.995 92.853-57.995 34.4 0 64.885 16.832 83.659 42.709 0.416 0.565 1.024 0.875 1.728 0.875h214.571c1.184 0 2.133-0.949 2.133-2.133v-375.563c0-1.173-0.949-2.133-2.133-2.133h-602.24zM89.088 569.291c0-8.245 6.688-14.933 14.933-14.933 8.256 0 14.933 6.688 14.933 14.933v260.299c0 8.256-6.677 14.933-14.933 14.933-8.245 0-14.933-6.677-14.933-14.933zM524.288 569.291c0-8.245 6.688-14.933 14.933-14.933s14.933 6.688 14.933 14.933v260.299c0 8.256-6.688 14.933-14.933 14.933s-14.933-6.677-14.933-14.933zM451.755 569.291c0-8.245 6.688-14.933 14.933-14.933s14.933 6.688 14.933 14.933v260.299c0 8.256-6.688 14.933-14.933 14.933s-14.933-6.677-14.933-14.933zM379.221 569.291c0-8.245 6.688-14.933 14.933-14.933s14.933 6.688 14.933 14.933v260.299c0 8.256-6.688 14.933-14.933 14.933s-14.933-6.677-14.933-14.933zM306.688 569.291c0-8.245 6.688-14.933 14.933-14.933s14.933 6.688 14.933 14.933v260.299c0 8.256-6.688 14.933-14.933 14.933s-14.933-6.677-14.933-14.933zM234.155 569.291c0-8.245 6.688-14.933 14.933-14.933s14.933 6.688 14.933 14.933v260.299c0 8.256-6.688 14.933-14.933 14.933s-14.933-6.677-14.933-14.933zM161.621 569.291c0-8.245 6.688-14.933 14.933-14.933 8.256 0 14.933 6.688 14.933 14.933v260.299c0 8.256-6.677 14.933-14.933 14.933-8.245 0-14.933-6.677-14.933-14.933zM710.965 815.179c-8.245 0-14.933-6.688-14.933-14.933s6.688-14.933 14.933-14.933h27.115c8.245 0 14.933 6.688 14.933 14.933s-6.688 14.933-14.933 14.933zM689.632 676.192c0-1.173 0.96-2.133 2.133-2.133h103.040c0.747 0 1.387 0.341 1.792 0.971l51.851 80.075c0.917 1.419-0.096 3.285-1.792 3.285h-154.891c-1.173 0-2.133-0.96-2.133-2.133zM774.389 119.349c-1.173 0-2.133 0.96-2.133 2.133v221.387c0 1.173 0.96 2.133 2.133 2.133h53.088c0.309 0 0.565-0.064 0.853-0.181 44.224-19.307 96.437-5.141 124.928 34.133 0.416 0.565 1.024 0.875 1.728 0.875h44.107c1.173 0 2.133-0.949 2.133-2.133v-71.403c0-1.173-0.96-2.133-2.133-2.133h-24.981c-8.245 0-14.933-6.688-14.933-14.933s6.688-14.933 14.933-14.933h24.981c1.173 0 2.133-0.96 2.133-2.133v-15.147c0-6.571-1.664-12.213-5.237-17.739l-68.011-105.024c-6.197-9.568-15.989-14.901-27.392-14.901zM1007.68 409.696h-36.341c-1.419 0-2.432 1.333-2.059 2.699 4.811 17.685 4.811 36.608 0 54.304-0.373 1.365 0.64 2.688 2.059 2.688h36.341c8.992 0 16.32-7.328 16.32-16.309v-27.061c0-8.992-7.339-16.32-16.32-16.32zM897.739 371.701c-1.931-0.8-3.744 1.376-2.603 3.125l43.936 67.861c1.141 1.76 3.872 0.992 3.925-1.099 0.843-30.432-17.131-58.208-45.259-69.888zM828.48 304.16c-8.256 0-14.933-6.688-14.933-14.933s6.677-14.933 14.933-14.933h27.115c8.245 0 14.933 6.688 14.933 14.933s-6.688 14.933-14.933 14.933zM807.147 165.173c0-1.173 0.949-2.133 2.133-2.133h103.040c0.747 0 1.387 0.341 1.792 0.971l51.84 80.075c0.928 1.419-0.085 3.285-1.781 3.285h-154.891c-1.184 0-2.133-0.96-2.133-2.133z"></path>
</svg>
