<!-- Generated by IcoMoon.io -->
<svg version="1.1" xmlns="http://www.w3.org/2000/svg" width="1024" height="1024" viewBox="0 0 1024 1024">
<title></title>
<g id="icomoon-ignore">
</g>
<path d="M71.179 525.109l153.6 69.931v419.595l-196.053-88.661c-17.483-8.747-28.725-26.229-28.725-46.208v-309.696c0-17.483 8.747-32.469 22.475-42.464 8.747-4.992 17.483-7.488 27.477-7.488 6.24 0 13.739 1.248 21.227 4.992zM995.275 581.312l-196.053-88.672v419.595l153.6 69.931c16.235 7.488 33.717 6.24 47.456-3.744 14.976-9.995 22.475-24.981 22.475-42.464v-309.696c1.248-18.731-9.995-37.461-27.477-44.949zM533.227 719.925c-4.992 6.24-12.48 11.232-21.227 11.232s-16.235-3.744-21.227-11.232l-102.4-149.856-113.643 28.725v423.328l474.539-112.384v-424.587l-66.187 16.235zM723.040 131.744c39.968 81.173 33.717 172.331-16.235 246.016l-194.805 284.715-194.805-283.467c-49.952-73.685-56.203-166.091-16.235-246.016 38.709-78.667 112.384-127.371 198.549-131.115 8.747 0 16.235 0 24.981 0 86.165 3.744 159.84 52.448 198.549 129.867zM649.365 241.643c0-76.181-61.195-137.365-137.365-137.365s-137.365 61.184-137.365 137.365c0 76.171 61.195 137.365 137.365 137.365s137.365-62.443 137.365-137.365zM512 154.229c-48.704 0-87.413 38.709-87.413 87.413s38.709 87.413 87.413 87.413c48.704 0 87.413-38.709 87.413-87.413s-38.709-87.413-87.413-87.413z"></path>
</svg>
