<svg xmlns="http://www.w3.org/2000/svg" xmlns:xlink="http://www.w3.org/1999/xlink" width="500" zoomAndPan="magnify" viewBox="0 0 375 374.999991" height="500" preserveAspectRatio="xMidYMid meet" version="1.0"><rect x="-37.5" width="450" fill="#ffffff" y="-37.499999" height="449.999989" fill-opacity="1"/><rect x="-37.5" width="450" fill="#ffffff" y="-37.499999" height="449.999989" fill-opacity="1"/><path fill="#007bff" d="M 374.597656 187.164062 C 374.597656 190.230469 374.519531 193.296875 374.371094 196.359375 C 374.21875 199.425781 373.996094 202.480469 373.695312 205.535156 C 373.394531 208.585938 373.015625 211.632812 372.566406 214.664062 C 372.117188 217.699219 371.59375 220.722656 370.996094 223.730469 C 370.394531 226.738281 369.722656 229.730469 368.980469 232.707031 C 368.234375 235.679688 367.414062 238.636719 366.523438 241.570312 C 365.636719 244.507812 364.671875 247.417969 363.640625 250.308594 C 362.605469 253.195312 361.503906 256.058594 360.328125 258.890625 C 359.15625 261.726562 357.910156 264.527344 356.601562 267.300781 C 355.289062 270.074219 353.910156 272.8125 352.464844 275.519531 C 351.019531 278.222656 349.507812 280.890625 347.929688 283.523438 C 346.351562 286.152344 344.710938 288.746094 343.007812 291.296875 C 341.304688 293.847656 339.539062 296.351562 337.710938 298.816406 C 335.882812 301.28125 333.996094 303.699219 332.050781 306.070312 C 330.105469 308.441406 328.101562 310.761719 326.042969 313.035156 C 323.980469 315.308594 321.867188 317.527344 319.699219 319.699219 C 317.527344 321.867188 315.308594 323.980469 313.035156 326.042969 C 310.761719 328.101562 308.441406 330.105469 306.070312 332.050781 C 303.699219 333.996094 301.28125 335.882812 298.816406 337.710938 C 296.351562 339.539062 293.847656 341.304688 291.296875 343.007812 C 288.746094 344.710938 286.152344 346.351562 283.523438 347.929688 C 280.890625 349.507812 278.222656 351.019531 275.519531 352.464844 C 272.8125 353.910156 270.074219 355.289062 267.300781 356.601562 C 264.527344 357.910156 261.726562 359.15625 258.890625 360.328125 C 256.058594 361.503906 253.195312 362.605469 250.308594 363.640625 C 247.417969 364.671875 244.507812 365.636719 241.570312 366.523438 C 238.636719 367.414062 235.679688 368.234375 232.707031 368.980469 C 229.730469 369.722656 226.738281 370.394531 223.730469 370.996094 C 220.722656 371.59375 217.699219 372.117188 214.664062 372.566406 C 211.632812 373.015625 208.585938 373.394531 205.535156 373.695312 C 202.480469 373.996094 199.425781 374.21875 196.359375 374.371094 C 193.296875 374.519531 190.230469 374.597656 187.164062 374.597656 C 184.097656 374.597656 181.03125 374.519531 177.964844 374.371094 C 174.902344 374.21875 171.84375 373.996094 168.792969 373.695312 C 165.738281 373.394531 162.695312 373.015625 159.660156 372.566406 C 156.628906 372.117188 153.605469 371.59375 150.597656 370.996094 C 147.589844 370.394531 144.597656 369.722656 141.621094 368.980469 C 138.644531 368.234375 135.691406 367.414062 132.753906 366.523438 C 129.820312 365.636719 126.90625 364.671875 124.019531 363.640625 C 121.132812 362.605469 118.269531 361.503906 115.4375 360.328125 C 112.601562 359.15625 109.796875 357.910156 107.027344 356.601562 C 104.253906 355.289062 101.511719 353.910156 98.808594 352.464844 C 96.101562 351.019531 93.433594 349.507812 90.804688 347.929688 C 88.171875 346.351562 85.582031 344.710938 83.03125 343.007812 C 80.480469 341.304688 77.972656 339.539062 75.511719 337.710938 C 73.046875 335.882812 70.628906 333.996094 68.257812 332.050781 C 65.886719 330.105469 63.5625 328.101562 61.292969 326.042969 C 59.019531 323.980469 56.796875 321.867188 54.628906 319.699219 C 52.460938 317.527344 50.34375 315.308594 48.285156 313.035156 C 46.226562 310.761719 44.222656 308.441406 42.277344 306.070312 C 40.328125 303.699219 38.441406 301.28125 36.617188 298.816406 C 34.789062 296.351562 33.023438 293.847656 31.320312 291.296875 C 29.613281 288.746094 27.972656 286.152344 26.398438 283.523438 C 24.820312 280.890625 23.308594 278.222656 21.863281 275.519531 C 20.417969 272.8125 19.039062 270.074219 17.726562 267.300781 C 16.414062 264.527344 15.171875 261.726562 14 258.890625 C 12.824219 256.058594 11.71875 253.195312 10.6875 250.308594 C 9.652344 247.417969 8.691406 244.507812 7.800781 241.570312 C 6.910156 238.636719 6.09375 235.679688 5.347656 232.707031 C 4.601562 229.730469 3.929688 226.738281 3.332031 223.730469 C 2.734375 220.722656 2.210938 217.699219 1.757812 214.664062 C 1.308594 211.632812 0.933594 208.585938 0.632812 205.535156 C 0.332031 202.480469 0.105469 199.425781 -0.0429688 196.359375 C -0.195312 193.296875 -0.269531 190.230469 -0.269531 187.164062 C -0.269531 184.097656 -0.195312 181.03125 -0.0429688 177.964844 C 0.105469 174.902344 0.332031 171.84375 0.632812 168.792969 C 0.933594 165.738281 1.308594 162.695312 1.757812 159.660156 C 2.210938 156.628906 2.734375 153.605469 3.332031 150.597656 C 3.929688 147.589844 4.601562 144.597656 5.347656 141.621094 C 6.09375 138.644531 6.910156 135.691406 7.800781 132.753906 C 8.691406 129.820312 9.652344 126.90625 10.6875 124.019531 C 11.71875 121.132812 12.824219 118.269531 14 115.4375 C 15.171875 112.601562 16.414062 109.796875 17.726562 107.027344 C 19.039062 104.253906 20.417969 101.511719 21.863281 98.808594 C 23.308594 96.101562 24.820312 93.433594 26.398438 90.804688 C 27.972656 88.171875 29.613281 85.582031 31.320312 83.03125 C 33.023438 80.480469 34.789062 77.972656 36.617188 75.511719 C 38.441406 73.046875 40.328125 70.628906 42.277344 68.257812 C 44.222656 65.886719 46.226562 63.5625 48.285156 61.292969 C 50.34375 59.019531 52.460938 56.796875 54.628906 54.628906 C 56.796875 52.460938 59.019531 50.34375 61.292969 48.285156 C 63.5625 46.226562 65.886719 44.222656 68.257812 42.277344 C 70.628906 40.328125 73.046875 38.441406 75.511719 36.617188 C 77.972656 34.789062 80.480469 33.023438 83.03125 31.320312 C 85.582031 29.613281 88.171875 27.972656 90.804688 26.398438 C 93.433594 24.820312 96.101562 23.308594 98.808594 21.863281 C 101.511719 20.417969 104.253906 19.039062 107.027344 17.726562 C 109.796875 16.414062 112.601562 15.171875 115.4375 14 C 118.269531 12.824219 121.132812 11.71875 124.019531 10.6875 C 126.90625 9.652344 129.820312 8.691406 132.753906 7.800781 C 135.691406 6.910156 138.644531 6.09375 141.621094 5.347656 C 144.597656 4.601562 147.589844 3.929688 150.597656 3.332031 C 153.605469 2.734375 156.628906 2.210938 159.660156 1.757812 C 162.695312 1.308594 165.738281 0.933594 168.792969 0.632812 C 171.84375 0.332031 174.902344 0.105469 177.964844 -0.0429688 C 181.03125 -0.195312 184.097656 -0.269531 187.164062 -0.269531 C 190.230469 -0.269531 193.296875 -0.195312 196.359375 -0.046875 C 199.425781 0.101562 202.484375 0.328125 205.539062 0.628906 C 208.589844 0.925781 211.632812 1.300781 214.667969 1.75 C 217.703125 2.199219 220.726562 2.722656 223.734375 3.320312 C 226.742188 3.917969 229.734375 4.589844 232.710938 5.335938 C 235.6875 6.078125 238.644531 6.898438 241.578125 7.785156 C 244.515625 8.675781 247.429688 9.636719 250.316406 10.671875 C 253.207031 11.703125 256.066406 12.808594 258.902344 13.980469 C 261.734375 15.152344 264.539062 16.394531 267.3125 17.707031 C 270.085938 19.019531 272.828125 20.398438 275.53125 21.84375 C 278.238281 23.289062 280.90625 24.800781 283.539062 26.375 C 286.167969 27.953125 288.761719 29.59375 291.3125 31.296875 C 293.863281 33.003906 296.371094 34.769531 298.835938 36.59375 C 301.296875 38.421875 303.714844 40.308594 306.085938 42.253906 C 308.460938 44.203125 310.78125 46.203125 313.054688 48.265625 C 315.328125 50.324219 317.546875 52.441406 319.71875 54.609375 C 321.886719 56.777344 324.003906 59 326.0625 61.273438 C 328.121094 63.546875 330.125 65.867188 332.070312 68.238281 C 334.015625 70.609375 335.902344 73.027344 337.730469 75.492188 C 339.558594 77.957031 341.324219 80.464844 343.027344 83.015625 C 344.734375 85.566406 346.375 88.15625 347.949219 90.789062 C 349.527344 93.421875 351.039062 96.089844 352.484375 98.796875 C 353.929688 101.5 355.308594 104.242188 356.621094 107.015625 C 357.929688 109.789062 359.171875 112.589844 360.347656 115.425781 C 361.519531 118.261719 362.625 121.121094 363.65625 124.011719 C 364.6875 126.898438 365.652344 129.8125 366.539062 132.746094 C 367.429688 135.683594 368.246094 138.640625 368.992188 141.613281 C 369.738281 144.589844 370.40625 147.582031 371.003906 150.59375 C 371.601562 153.601562 372.125 156.625 372.574219 159.65625 C 373.027344 162.691406 373.398438 165.738281 373.699219 168.789062 C 374 171.84375 374.222656 174.902344 374.375 177.964844 C 374.523438 181.03125 374.597656 184.09375 374.597656 187.164062 Z M 299.328125 160.234375 L 215.171875 160.234375 L 215.171875 77.15625 C 215.171875 76.601562 215.144531 76.054688 215.089844 75.503906 C 215.035156 74.957031 214.953125 74.410156 214.847656 73.871094 C 214.738281 73.332031 214.605469 72.796875 214.445312 72.269531 C 214.285156 71.742188 214.101562 71.222656 213.890625 70.714844 C 213.679688 70.203125 213.441406 69.707031 213.183594 69.21875 C 212.921875 68.734375 212.640625 68.261719 212.332031 67.804688 C 212.027344 67.34375 211.699219 66.902344 211.351562 66.476562 C 211 66.050781 210.628906 65.644531 210.242188 65.253906 C 209.851562 64.863281 209.441406 64.492188 209.015625 64.144531 C 208.589844 63.792969 208.148438 63.464844 207.691406 63.160156 C 207.230469 62.851562 206.757812 62.570312 206.273438 62.3125 C 205.789062 62.050781 205.289062 61.816406 204.78125 61.605469 C 204.269531 61.394531 203.753906 61.207031 203.226562 61.046875 C 202.699219 60.886719 202.164062 60.753906 201.621094 60.648438 C 201.082031 60.539062 200.539062 60.457031 199.988281 60.402344 C 199.441406 60.351562 198.890625 60.324219 198.339844 60.324219 L 178.140625 60.324219 C 177.589844 60.324219 177.039062 60.351562 176.492188 60.402344 C 175.945312 60.457031 175.398438 60.539062 174.859375 60.648438 C 174.316406 60.753906 173.785156 60.886719 173.257812 61.046875 C 172.726562 61.207031 172.210938 61.394531 171.699219 61.605469 C 171.191406 61.816406 170.695312 62.050781 170.207031 62.3125 C 169.722656 62.570312 169.25 62.851562 168.789062 63.160156 C 168.332031 63.464844 167.890625 63.792969 167.464844 64.144531 C 167.039062 64.492188 166.628906 64.863281 166.242188 65.253906 C 165.851562 65.644531 165.480469 66.050781 165.132812 66.476562 C 164.78125 66.902344 164.453125 67.34375 164.148438 67.804688 C 163.839844 68.261719 163.558594 68.734375 163.296875 69.21875 C 163.039062 69.707031 162.804688 70.203125 162.59375 70.714844 C 162.378906 71.222656 162.195312 71.742188 162.035156 72.269531 C 161.875 72.796875 161.742188 73.332031 161.632812 73.871094 C 161.527344 74.410156 161.445312 74.957031 161.390625 75.503906 C 161.335938 76.054688 161.3125 76.601562 161.3125 77.15625 L 161.3125 160.234375 L 77.15625 160.234375 C 76.601562 160.234375 76.054688 160.261719 75.503906 160.3125 C 74.957031 160.367188 74.410156 160.449219 73.871094 160.558594 C 73.332031 160.664062 72.796875 160.796875 72.269531 160.957031 C 71.742188 161.117188 71.222656 161.304688 70.714844 161.515625 C 70.203125 161.726562 69.707031 161.960938 69.21875 162.222656 C 68.734375 162.480469 68.261719 162.765625 67.804688 163.070312 C 67.34375 163.375 66.902344 163.703125 66.476562 164.054688 C 66.050781 164.402344 65.644531 164.773438 65.253906 165.164062 C 64.863281 165.554688 64.492188 165.960938 64.144531 166.386719 C 63.792969 166.8125 63.464844 167.253906 63.160156 167.714844 C 62.851562 168.171875 62.570312 168.644531 62.3125 169.128906 C 62.050781 169.617188 61.816406 170.113281 61.605469 170.625 C 61.394531 171.132812 61.207031 171.652344 61.046875 172.179688 C 60.886719 172.707031 60.753906 173.242188 60.648438 173.78125 C 60.539062 174.320312 60.457031 174.867188 60.402344 175.414062 C 60.351562 175.964844 60.324219 176.511719 60.324219 177.066406 L 60.324219 197.261719 C 60.324219 197.8125 60.351562 198.363281 60.402344 198.910156 C 60.457031 199.460938 60.539062 200.003906 60.648438 200.546875 C 60.753906 201.085938 60.886719 201.621094 61.046875 202.148438 C 61.207031 202.675781 61.394531 203.195312 61.605469 203.703125 C 61.816406 204.210938 62.050781 204.710938 62.3125 205.195312 C 62.570312 205.683594 62.851562 206.15625 63.160156 206.613281 C 63.464844 207.070312 63.792969 207.511719 64.144531 207.941406 C 64.492188 208.367188 64.863281 208.773438 65.253906 209.164062 C 65.644531 209.554688 66.050781 209.921875 66.476562 210.273438 C 66.902344 210.621094 67.34375 210.949219 67.804688 211.257812 C 68.261719 211.5625 68.734375 211.847656 69.21875 212.105469 C 69.707031 212.367188 70.203125 212.601562 70.714844 212.8125 C 71.222656 213.023438 71.742188 213.207031 72.269531 213.367188 C 72.796875 213.527344 73.332031 213.664062 73.871094 213.769531 C 74.410156 213.878906 74.957031 213.957031 75.503906 214.011719 C 76.054688 214.066406 76.601562 214.09375 77.15625 214.09375 L 161.3125 214.09375 L 161.3125 299.328125 C 161.3125 299.878906 161.335938 300.429688 161.390625 300.976562 C 161.445312 301.523438 161.527344 302.070312 161.632812 302.609375 C 161.742188 303.152344 161.875 303.683594 162.035156 304.210938 C 162.195312 304.738281 162.378906 305.257812 162.59375 305.769531 C 162.804688 306.277344 163.039062 306.773438 163.296875 307.261719 C 163.558594 307.746094 163.839844 308.21875 164.148438 308.675781 C 164.453125 309.136719 164.78125 309.578125 165.132812 310.003906 C 165.480469 310.429688 165.851562 310.839844 166.242188 311.226562 C 166.628906 311.617188 167.039062 311.988281 167.464844 312.335938 C 167.890625 312.6875 168.332031 313.015625 168.789062 313.320312 C 169.25 313.628906 169.722656 313.910156 170.207031 314.171875 C 170.695312 314.429688 171.191406 314.664062 171.699219 314.875 C 172.210938 315.085938 172.726562 315.273438 173.257812 315.433594 C 173.785156 315.59375 174.316406 315.726562 174.859375 315.835938 C 175.398438 315.941406 175.945312 316.023438 176.492188 316.078125 C 177.039062 316.132812 177.589844 316.15625 178.140625 316.15625 L 198.339844 316.15625 C 198.890625 316.15625 199.441406 316.132812 199.988281 316.078125 C 200.539062 316.023438 201.082031 315.941406 201.621094 315.835938 C 202.164062 315.726562 202.699219 315.59375 203.226562 315.433594 C 203.753906 315.273438 204.269531 315.085938 204.78125 314.875 C 205.289062 314.664062 205.789062 314.429688 206.273438 314.171875 C 206.757812 313.910156 207.230469 313.628906 207.691406 313.320312 C 208.148438 313.015625 208.589844 312.6875 209.015625 312.335938 C 209.441406 311.988281 209.851562 311.617188 210.242188 311.226562 C 210.628906 310.839844 211 310.429688 211.351562 310.003906 C 211.699219 309.578125 212.027344 309.136719 212.332031 308.675781 C 212.640625 308.21875 212.921875 307.746094 213.183594 307.261719 C 213.441406 306.773438 213.679688 306.277344 213.890625 305.769531 C 214.101562 305.257812 214.285156 304.738281 214.445312 304.210938 C 214.605469 303.683594 214.738281 303.152344 214.847656 302.609375 C 214.953125 302.070312 215.035156 301.523438 215.089844 300.976562 C 215.144531 300.429688 215.171875 299.878906 215.171875 299.328125 L 215.171875 214.09375 L 299.328125 214.09375 C 299.878906 214.09375 300.429688 214.066406 300.976562 214.011719 C 301.523438 213.957031 302.070312 213.878906 302.609375 213.769531 C 303.152344 213.664062 303.683594 213.527344 304.210938 213.367188 C 304.738281 213.207031 305.257812 213.023438 305.769531 212.8125 C 306.277344 212.601562 306.773438 212.367188 307.261719 212.105469 C 307.746094 211.847656 308.21875 211.5625 308.675781 211.257812 C 309.136719 210.949219 309.578125 210.621094 310.003906 210.273438 C 310.429688 209.921875 310.839844 209.554688 311.226562 209.164062 C 311.617188 208.773438 311.988281 208.367188 312.335938 207.941406 C 312.6875 207.511719 313.015625 207.070312 313.320312 206.613281 C 313.628906 206.15625 313.910156 205.683594 314.171875 205.195312 C 314.429688 204.710938 314.664062 204.210938 314.875 203.703125 C 315.085938 203.195312 315.273438 202.675781 315.433594 202.148438 C 315.59375 201.621094 315.726562 201.085938 315.835938 200.546875 C 315.941406 200.003906 316.023438 199.460938 316.078125 198.910156 C 316.132812 198.363281 316.15625 197.8125 316.15625 197.261719 L 316.15625 177.066406 C 316.15625 176.511719 316.132812 175.964844 316.078125 175.414062 C 316.023438 174.867188 315.941406 174.320312 315.835938 173.78125 C 315.726562 173.242188 315.59375 172.707031 315.433594 172.179688 C 315.273438 171.652344 315.085938 171.132812 314.875 170.625 C 314.664062 170.113281 314.429688 169.617188 314.171875 169.128906 C 313.910156 168.644531 313.628906 168.171875 313.320312 167.714844 C 313.015625 167.253906 312.6875 166.8125 312.335938 166.386719 C 311.988281 165.960938 311.617188 165.554688 311.226562 165.164062 C 310.839844 164.773438 310.429688 164.402344 310.003906 164.054688 C 309.578125 163.703125 309.136719 163.375 308.675781 163.070312 C 308.21875 162.765625 307.746094 162.480469 307.261719 162.222656 C 306.773438 161.960938 306.277344 161.726562 305.769531 161.515625 C 305.257812 161.304688 304.738281 161.117188 304.210938 160.957031 C 303.683594 160.796875 303.152344 160.664062 302.609375 160.558594 C 302.070312 160.449219 301.523438 160.367188 300.976562 160.3125 C 300.429688 160.261719 299.878906 160.234375 299.328125 160.234375 Z M 299.328125 160.234375 " fill-opacity="1" fill-rule="nonzero"/></svg>