<!-- Generated by IcoMoon.io -->
<svg version="1.1" xmlns="http://www.w3.org/2000/svg" width="1024" height="1024" viewBox="0 0 1024 1024">
<title></title>
<g id="icomoon-ignore">
</g>
<path fill="#000" d="M784.998 170.666h-545.86c-37.683 0-68.403 30.72-68.403 68.403v545.724c0 37.82 30.72 68.54 68.403 68.54h545.724c37.683 0 68.403-30.72 68.403-68.403v-545.86c0.137-37.683-30.583-68.403-68.267-68.403zM826.095 784.929c0 22.665-18.432 41.097-41.097 41.097h-545.86c-22.665 0-41.097-18.432-41.097-41.097v-545.86c0-22.665 18.432-41.097 41.097-41.097h545.724c22.801 0 41.233 18.432 41.233 41.097v545.86z"></path>
<path fill="#000" d="M603.272 430.625c4.915 0 9.421-2.594 11.878-6.827s2.458-9.421 0-13.653l-91.204-158.379c-4.915-8.465-18.842-8.465-23.62 0l-91.204 158.379c-2.458 4.233-2.458 9.421 0 13.653s6.963 6.827 11.878 6.827h35.499v162.748h-35.499c-4.915 0-9.421 2.594-11.878 6.827s-2.458 9.421 0 13.653l91.204 158.379c2.458 4.233 6.963 6.827 11.878 6.827s9.421-2.594 11.878-6.827l91.204-158.379c2.458-4.233 2.458-9.421 0-13.653s-6.963-6.827-11.878-6.827h-35.499v-162.748h35.362zM554.12 620.68h25.532l-67.584 117.419-67.584-117.419h25.532c7.509 0 13.653-6.144 13.653-13.653v-190.054c0-7.509-6.144-13.653-13.653-13.653h-25.532l67.584-117.419 67.584 117.419h-25.532c-7.509 0-13.653 6.144-13.653 13.653v190.054c0 7.509 6.144 13.653 13.653 13.653z"></path>
</svg>
