<?xml version="1.0" encoding="UTF-8"?>
<svg version="1.1" xmlns="http://www.w3.org/2000/svg" width="644" height="388">
<path d="M0 0 C0.83144531 0.32742187 1.66289062 0.65484375 2.51953125 0.9921875 C7.15189642 2.87431382 10.99698992 6.04734242 15 9 C16.26457031 9.91652344 16.26457031 9.91652344 17.5546875 10.8515625 C25.2219614 16.6557605 32.79006073 23.72126929 36 33 C36.66 33 37.32 33 38 33 C51.68807569 56.7470362 54.79479709 81.05270462 50 108 C48.94691985 111.50429224 47.59346244 114.71269953 46 118 C45.566875 119.11375 45.13375 120.2275 44.6875 121.375 C40.34277715 130.70810834 34.98290004 138.60647278 28.234375 146.30859375 C25.98182614 148.87361614 25.98182614 148.87361614 24.515625 151.53515625 C22.70316338 154.48274204 20.45339256 156.56499869 18 159 C16.38223043 161.10445991 14.82930182 163.20157535 13.3125 165.375 C12.88533691 165.98077881 12.45817383 166.58655762 12.01806641 167.21069336 C4.96799831 177.26213512 -1.79405976 187.47253339 -8.11328125 198 C-9.50529093 200.21338185 -10.92155782 202.27314528 -12.47265625 204.3671875 C-15.15796529 208.0795775 -17.15226591 212.00019236 -19.125 216.125 C-21.94265017 221.94524263 -24.9833981 227.4423009 -28.5 232.875 C-30.11679069 235.43973047 -31.31185958 237.74066649 -32.5 240.5625 C-36.61160714 249.98493304 -36.61160714 249.98493304 -41.5 252.0625 C-44.56201365 251.98594966 -46.32253049 251.51036742 -49 250 C-53.68443189 245.03166314 -56.68214496 238.76253914 -59.63671875 232.66137695 C-72.87164596 205.3364178 -89.8912599 179.97835736 -108.43237305 156.01293945 C-110.77665532 152.97100898 -113.03181254 149.95152652 -115.140625 146.73828125 C-116.90368276 144.14184534 -118.78199283 142.20040393 -121 140 C-125.24084108 134.01074198 -129.00177461 127.70038195 -132 121 C-132.33773437 120.25492188 -132.67546875 119.50984375 -133.0234375 118.7421875 C-137.82693905 107.50993952 -139.54278616 96.35099903 -139.4375 84.1875 C-139.43065186 82.96281006 -139.42380371 81.73812012 -139.41674805 80.47631836 C-139.25001972 71.04524025 -138.13115701 62.90230914 -135 54 C-134.62617188 52.85789063 -134.25234375 51.71578125 -133.8671875 50.5390625 C-130.13324875 39.93071996 -124.3333244 31.38468791 -117.1875 22.8125 C-116.70716309 22.235 -116.22682617 21.6575 -115.73193359 21.0625 C-114.53507248 19.66651584 -113.27251656 18.32738461 -112 17 C-111.34 17 -110.68 17 -110 17 C-109.66742188 16.13375 -109.66742188 16.13375 -109.328125 15.25 C-107.59675569 12.3168567 -105.53421022 10.94742573 -102.75 9 C-101.35007812 8.01 -101.35007812 8.01 -99.921875 7 C-98.95765625 6.34 -97.9934375 5.68 -97 5 C-96.06027344 4.33097656 -95.12054688 3.66195312 -94.15234375 2.97265625 C-90.49644623 0.68488891 -86.80446905 -0.95817952 -82.8125 -2.5625 C-82.06363525 -2.86623535 -81.31477051 -3.1699707 -80.54321289 -3.48291016 C-55.94249848 -13.27874158 -23.18879905 -14.32586432 0 0 Z M-97.1875 37.3125 C-110.98984248 53.07746305 -115.81398566 71.30762768 -115 92 C-113.7988996 105.0062015 -108.54162059 119.78140302 -99 129 C-98.04073516 130.18674765 -97.08248975 131.37431971 -96.125 132.5625 C-82.66089733 147.92175998 -65.74352677 154.30046909 -45.8828125 156.31640625 C-31.61121307 156.92917575 -17.92658789 152.59570402 -6 145 C-4.89140625 144.3090625 -3.7828125 143.618125 -2.640625 142.90625 C-1.76921875 142.2771875 -0.8978125 141.648125 0 141 C0 140.34 0 139.68 0 139 C0.53625 138.773125 1.0725 138.54625 1.625 138.3125 C8.26745063 134.64167202 11.51441597 130.03932434 15.38671875 123.62109375 C17 121 17 121 18.546875 118.99609375 C29.00869899 104.62514736 28.31525569 83.94713031 25.69921875 67.23046875 C24.73430884 62.77247715 23.05207416 59.03842353 21 55 C20.55914062 53.89527344 20.11828125 52.79054687 19.6640625 51.65234375 C18.06202484 47.88376001 15.83943534 44.70449255 13.3125 41.5 C12.86898193 40.93394043 12.42546387 40.36788086 11.96850586 39.78466797 C3.26070141 28.90108554 -7.92370345 21.67787647 -21 17 C-21.72316406 16.71253906 -22.44632812 16.42507812 -23.19140625 16.12890625 C-49.10291273 5.85280596 -79.0396386 18.05077286 -97.1875 37.3125 Z " fill="#EE2B2B" transform="translate(354,72)"/>
<path d="M0 0 C2.89746546 2.07861652 4.64557604 3.58230416 5.52734375 7.109375 C5.78019771 9.06293161 5.89996724 11.03268915 6 13 C7.134375 13.20625 8.26875 13.4125 9.4375 13.625 C14.60493803 14.90763194 18.97374246 17.53759472 23 21 C23.495 22.485 23.495 22.485 24 24 C25.1446875 25.051875 25.1446875 25.051875 26.3125 26.125 C33.52684809 33.8426747 34.11184854 43.37690186 34.2109375 53.48828125 C34.23896507 55.0970161 34.26762913 56.70573996 34.296875 58.31445312 C34.33835547 60.82723145 34.37528331 63.33979482 34.40136719 65.8527832 C34.42884408 68.29419955 34.47465676 70.73471042 34.5234375 73.17578125 C34.52669037 73.93095535 34.52994324 74.68612946 34.53329468 75.46418762 C34.5545018 77.80346334 34.5545018 77.80346334 35 81 C36.485 81.99 36.485 81.99 38 83 C38 83.66 38 84.32 38 85 C38.66 85 39.32 85 40 85 C43.57395876 88.4888645 44.90403216 89.80999877 45.3125 94.875 C45.209375 95.90625 45.10625 96.9375 45 98 C41.6025296 99.6987352 37.72952061 99.13792028 33.9921875 99.12939453 C33.05876526 99.13114685 32.12534302 99.13289917 31.16363525 99.13470459 C28.06740478 99.13911843 24.97123109 99.13618674 21.875 99.1328125 C19.73030588 99.13348567 17.58561183 99.13445581 15.44091797 99.13571167 C10.9417244 99.13718801 6.44255065 99.13503612 1.94335938 99.13037109 C-3.83405129 99.12467385 -9.6114155 99.1279532 -15.38882446 99.13394356 C-19.81876986 99.13755088 -24.24870418 99.13640979 -28.6786499 99.13381577 C-30.80938726 99.13314697 -32.94012562 99.13397326 -35.07086182 99.13629532 C-38.04466429 99.13882463 -41.01839072 99.13497726 -43.9921875 99.12939453 C-44.87952576 99.13141876 -45.76686401 99.13344299 -46.68109131 99.13552856 C-52.7714724 99.1142638 -52.7714724 99.1142638 -55 98 C-55.2295711 94.63295715 -55.33943529 92.58629732 -53.625 89.625 C-53.08875 89.08875 -52.5525 88.5525 -52 88 C-51.34 88 -50.68 88 -50 88 C-49.731875 87.401875 -49.46375 86.80375 -49.1875 86.1875 C-48 84 -48 84 -46.45336914 82.81079102 C-44.18609196 79.98593047 -44.59542351 77.40703715 -44.55859375 73.83984375 C-44.54538589 73.13533585 -44.53217804 72.43082794 -44.51856995 71.70497131 C-44.47769977 69.44910884 -44.45605028 67.19364823 -44.4375 64.9375 C-44.10064344 33.59622931 -44.10064344 33.59622931 -32.9921875 21.8203125 C-28.6874476 17.88696193 -24.25222876 14.57329459 -18.5625 13.125 C-17.716875 12.75375 -16.87125 12.3825 -16 12 C-15.27918311 10.00662983 -14.92580998 8.05859585 -14.55859375 5.97265625 C-13.67681473 2.85868138 -11.65581389 1.65988368 -9 0 C-5.77509551 -1.61245225 -3.43772273 -0.81573082 0 0 Z " fill="#F0292A" transform="translate(315,96)"/>
<path d="M0 0 C1.26595464 3.82318302 0.4671299 5.84976793 -1.2109375 9.51171875 C-4.00663964 18.32786857 -3.31408226 28.37712722 -3.5625 37.5625 C-3.60578362 39.06316078 -3.6494007 40.56381197 -3.69335938 42.06445312 C-3.79941797 45.70953299 -3.90096257 49.35472182 -4 53 C-4.66 53 -5.32 53 -6 53 C-6.2165625 53.928125 -6.2165625 53.928125 -6.4375 54.875 C-7 57 -7 57 -8 59 C-8.66 59 -9.32 59 -10 59 C-10.0825 59.598125 -10.165 60.19625 -10.25 60.8125 C-11.20944382 63.61087782 -12.6741216 64.2555912 -15 66 C-15.64732408 68.04669355 -15.64732408 68.04669355 -16 70 C-15.01631439 69.98525131 -14.03262878 69.97050262 -13.01913452 69.95530701 C-3.69354123 69.81627484 5.63212458 69.68362739 14.95789528 69.5570364 C19.75095351 69.49177392 24.54396017 69.42435709 29.33691406 69.35180664 C33.97287227 69.2817154 38.6088799 69.2175576 43.24497604 69.15730476 C45.00298353 69.13345419 46.76096465 69.10755946 48.51890945 69.07946587 C58.74925758 68.91749569 68.80120468 69.04896705 79 70 C78.505 66.535 78.505 66.535 78 63 C76.515 62.505 76.515 62.505 75 62 C74.690625 61.195625 74.38125 60.39125 74.0625 59.5625 C73.2414382 56.86833021 73.2414382 56.86833021 70.9375 55.75 C70.298125 55.5025 69.65875 55.255 69 55 C66.94743944 52.94743944 67.86294687 48.58620897 67.859375 45.7578125 C67.84102188 44.03384122 67.82144932 42.30988258 67.80078125 40.5859375 C67.77200833 37.86957912 67.75000527 35.15401979 67.74951172 32.4375 C67.84072622 18.68710957 67.84072622 18.68710957 62.96972656 5.99169922 C62 4 62 4 63 1 C66 2 66 2 67.1328125 3.8203125 C67.62394531 4.96113281 67.62394531 4.96113281 68.125 6.125 C68.62386719 7.24261719 68.62386719 7.24261719 69.1328125 8.3828125 C71.08553758 14.27617198 71.15073232 20.34473745 71.2109375 26.48828125 C71.23896507 28.0970161 71.26762913 29.70573996 71.296875 31.31445312 C71.33835547 33.82723145 71.37528331 36.33979482 71.40136719 38.8527832 C71.42884408 41.29419955 71.47465676 43.73471042 71.5234375 46.17578125 C71.52669037 46.93095535 71.52994324 47.68612946 71.53329468 48.46418762 C71.5545018 50.80346334 71.5545018 50.80346334 72 54 C73.485 54.99 73.485 54.99 75 56 C75 56.66 75 57.32 75 58 C75.66 58 76.32 58 77 58 C80.57395876 61.4888645 81.90403216 62.80999877 82.3125 67.875 C82.209375 68.90625 82.10625 69.9375 82 71 C78.6025296 72.6987352 74.72952061 72.13792028 70.9921875 72.12939453 C70.05876526 72.13114685 69.12534302 72.13289917 68.16363525 72.13470459 C65.06740478 72.13911843 61.97123109 72.13618674 58.875 72.1328125 C56.73030588 72.13348567 54.58561183 72.13445581 52.44091797 72.13571167 C47.9417244 72.13718801 43.44255065 72.13503612 38.94335938 72.13037109 C33.16594871 72.12467385 27.3885845 72.1279532 21.61117554 72.13394356 C17.18123014 72.13755088 12.75129582 72.13640979 8.3213501 72.13381577 C6.19061274 72.13314697 4.05987438 72.13397326 1.92913818 72.13629532 C-1.04466429 72.13882463 -4.01839072 72.13497726 -6.9921875 72.12939453 C-7.87952576 72.13141876 -8.76686401 72.13344299 -9.68109131 72.13552856 C-15.7714724 72.1142638 -15.7714724 72.1142638 -18 71 C-18.2295711 67.63295715 -18.33943529 65.58629732 -16.625 62.625 C-16.08875 62.08875 -15.5525 61.5525 -15 61 C-14.34 61 -13.68 61 -13 61 C-12.731875 60.401875 -12.46375 59.80375 -12.1875 59.1875 C-11 57 -11 57 -9.45336914 55.81079102 C-7.18609196 52.98593047 -7.59542351 50.40703715 -7.55859375 46.83984375 C-7.54538589 46.13533585 -7.53217804 45.43082794 -7.51856995 44.70497131 C-7.47769977 42.44910884 -7.45605028 40.19364823 -7.4375 37.9375 C-7.19662735 15.52661156 -7.19662735 15.52661156 -2.9375 5.4375 C-2.59589844 4.61121094 -2.25429688 3.78492187 -1.90234375 2.93359375 C-1 1 -1 1 0 0 Z " fill="#C72828" transform="translate(278,123)"/>
<path d="M0 0 C1.00023193 0.00523682 2.00046387 0.01047363 3.03100586 0.01586914 C4.1105957 0.0190918 5.19018555 0.02231445 6.30249023 0.02563477 C8.00695312 0.03820312 8.00695312 0.03820312 9.74584961 0.05102539 C11.45611328 0.05779297 11.45611328 0.05779297 13.20092773 0.06469727 C16.02845312 0.07652792 18.85587601 0.09301129 21.68334961 0.11352539 C22.51272677 3.48823244 22.77136775 4.85464849 21.62084961 8.23852539 C19.26829902 11.72940691 17.64467901 12.74229598 13.68334961 14.11352539 C8.44786106 14.67447059 5.12733934 13.94151886 0.68334961 11.11352539 C-2.32839961 8.10177617 -2.94338927 5.31271295 -3.31665039 1.11352539 C-2.31665039 0.11352539 -2.31665039 0.11352539 0 0 Z " fill="#E72828" transform="translate(300.316650390625,197.886474609375)"/>
<path d="M0 0 C0.66 0.33 1.32 0.66 2 1 C1.34773438 1.67804688 0.69546875 2.35609375 0.0234375 3.0546875 C-14.5727807 18.5981529 -21.3250639 35.8137752 -21.15625 57.2109375 C-20.81198296 65.55941314 -18.89211299 73.19129491 -16 81 C-16.99 81.495 -16.99 81.495 -18 82 C-18.474375 80.865625 -18.94875 79.73125 -19.4375 78.5625 C-20.63622083 75.24259834 -20.63622083 75.24259834 -22 74 C-22.04063832 72.33382885 -22.042721 70.66611905 -22 69 C-23.485 69.495 -23.485 69.495 -25 70 C-24.67 67.69 -24.34 65.38 -24 63 C-24.66 62.67 -25.32 62.34 -26 62 C-25.34 62 -24.68 62 -24 62 C-24.495 60.515 -24.495 60.515 -25 59 C-24.94940699 57.33025428 -24.8270063 55.66215868 -24.66015625 54 C-24.56669922 53.030625 -24.47324219 52.06125 -24.37695312 51.0625 C-24.22129883 49.5465625 -24.22129883 49.5465625 -24.0625 48 C-23.86480643 46.00010637 -23.66814575 44.00011028 -23.47265625 42 C-23.38250244 41.113125 -23.29234863 40.22625 -23.19946289 39.3125 C-22.95703243 36.88869735 -22.95703243 36.88869735 -23 34 C-22.6937566 32.66018514 -22.36548445 31.32488113 -22 30 C-20.68 29.67 -19.36 29.34 -18 29 C-17.896875 27.824375 -17.79375 26.64875 -17.6875 25.4375 C-16.96020664 19.66012739 -15.27562256 15.08972593 -11 11 C-10.67 10.13375 -10.34 9.2675 -10 8.375 C-9.67 7.59125 -9.34 6.8075 -9 6 C-8.01 5.67 -7.02 5.34 -6 5 C-6 4.34 -6 3.68 -6 3 C-4.68 3 -3.36 3 -2 3 C-2 2.34 -2 1.68 -2 1 C-1.34 0.67 -0.68 0.34 0 0 Z " fill="#D43737" transform="translate(261,103)"/>
<path d="M0 0 C1.32 0.66 2.64 1.32 4 2 C0.7 2 -2.6 2 -6 2 C-6.495 0.515 -6.495 0.515 -7 -1 C-7.99 -1 -8.98 -1 -10 -1 C-10 -1.66 -10 -2.32 -10 -3 C-11.0725 -2.979375 -12.145 -2.95875 -13.25 -2.9375 C-16.14790424 -2.9857984 -18.28612141 -3.13155885 -21 -4 C-21 -4.66 -21 -5.32 -21 -6 C-28.84393567 -6.80157007 -36.61967436 -7.10775011 -44.5 -7.125 C-45.79019043 -7.13176758 -45.79019043 -7.13176758 -47.10644531 -7.13867188 C-51.20047735 -7.12902751 -55.00732863 -7.03089466 -59 -6 C-59 -5.34 -59 -4.68 -59 -4 C-64.46108889 -2.5997208 -68.69276568 -3.57294366 -74 -5 C-53.5608222 -15.61948586 -19.19598231 -12.18019182 0 0 Z " fill="#C03435" transform="translate(354,72)"/>
<path d="M0 0 C0.99 0.33 1.98 0.66 3 1 C1.64652562 4.57291578 0.05303138 7.85513919 -1.8125 11.1875 C-3.85701072 14.87358867 -5.79242318 18.57935327 -7.625 22.375 C-12.05673906 31.25259195 -12.05673906 31.25259195 -16.4375 32.9375 C-19.58449549 33.01425599 -21.25300936 32.54958447 -24 31 C-26.46128163 28.33361156 -27.85010985 26.44967045 -29 23 C-28.01 23 -27.02 23 -26 23 C-25.67 24.65 -25.34 26.3 -25 28 C-23.56274129 28.16873478 -22.12518162 28.33490737 -20.6875 28.5 C-19.48673828 28.63921875 -19.48673828 28.63921875 -18.26171875 28.78125 C-15.88103445 29.04813463 -15.88103445 29.04813463 -13 29 C-12.87625 28.236875 -12.7525 27.47375 -12.625 26.6875 C-12 24 -12 24 -10 21 C-9.61500109 19.34450469 -9.27206865 17.6777567 -9 16 C-8.34 16 -7.68 16 -7 16 C-7 14.68 -7 13.36 -7 12 C-6.34 12 -5.68 12 -5 12 C-5 11.01 -5 10.02 -5 9 C-5.99 8.67 -6.98 8.34 -8 8 C-6.125 6.9375 -6.125 6.9375 -4 6 C-3.34 6.33 -2.68 6.66 -2 7 C-2 5.68 -2 4.36 -2 3 C-1.34 3 -0.68 3 0 3 C0 2.01 0 1.02 0 0 Z " fill="#D04848" transform="translate(329,291)"/>
<path d="M0 0 C0.33 0 0.66 0 1 0 C3.5348934 15.84308373 3.11637825 34.38552206 -4 49 C-4.58926612 50.37246793 -5.17320207 51.7472457 -5.75 53.125 C-6.1625 54.07375 -6.575 55.0225 -7 56 C-7.66 55.67 -8.32 55.34 -9 55 C-9 54.34 -9 53.68 -9 53 C-8.34 53 -7.68 53 -7 53 C-6.87625 52.113125 -6.7525 51.22625 -6.625 50.3125 C-5.80121031 44.53403319 -4.89339325 38.76802439 -4 33 C-2.515 32.505 -2.515 32.505 -1 32 C-1.00523682 31.06615479 -1.01047363 30.13230957 -1.01586914 29.17016602 C-1.0328762 25.71687204 -1.04543302 22.26362233 -1.05493164 18.81030273 C-1.05997121 17.31355082 -1.06680287 15.81680384 -1.07543945 14.32006836 C-1.08752159 12.17300193 -1.09323191 10.02600038 -1.09765625 7.87890625 C-1.10289307 6.5854126 -1.10812988 5.29191895 -1.11352539 3.95922852 C-1 1 -1 1 0 0 Z " fill="#CC4143" transform="translate(404,141)"/>
<path d="M0 0 C3 1 3 1 4.15423584 2.6971283 C6.93503001 8.78567788 7.54041192 13.85807997 7.390625 20.50390625 C7.38496521 21.4677977 7.37930542 22.43168915 7.37347412 23.42478943 C7.35127407 26.47122121 7.30110936 29.51643016 7.25 32.5625 C7.22991381 34.64125893 7.21166677 36.72003649 7.1953125 38.79882812 C7.1514631 43.86634892 7.08255081 48.93296791 7 54 C6.34 53.67 5.68 53.34 5 53 C4.99589111 51.8761792 4.99178223 50.7523584 4.98754883 49.59448242 C4.96557694 45.37642173 4.91110416 41.15927017 4.84741211 36.94165039 C4.82438815 35.12533359 4.80987347 33.30888624 4.80444336 31.49243164 C4.85666255 17.71152059 4.85666255 17.71152059 -0.0324707 4.98950195 C-1 3 -1 3 0 0 Z " fill="#C92528" transform="translate(341,124)"/>
<path d="M0 0 C0.99 0.33 1.98 0.66 3 1 C-1.57079669 11.21707494 -9.11273299 21.11273299 -17 29 C-17.62211982 19.94470046 -17.62211982 19.94470046 -15.3125 16.4375 C-12.82381756 14.89048119 -10.89907925 14.32211992 -8 14 C-8.33 13.01 -8.66 12.02 -9 11 C-8.2575 10.67 -7.515 10.34 -6.75 10 C-3.04774589 7.30745156 -1.75910085 4.13732658 0 0 Z " fill="#E5312E" transform="translate(393,197)"/>
<path d="M0 0 C7.92 0 15.84 0 24 0 C25 5 25 5 23.9375 8.125 C21.58494941 11.61588152 19.9613294 12.62877059 16 14 C10.76451145 14.5609452 7.44398973 13.82799347 3 11 C1.125 8.8125 1.125 8.8125 0 7 C0.33 6.34 0.66 5.68 1 5 C1.66 5.33 2.32 5.66 3 6 C3 6.99 3 7.98 3 9 C8.25557087 11.00212224 12.32971299 11.71207654 17.8125 10.25 C20.1792485 9.20409483 20.1792485 9.20409483 20.8125 6.875 C20.9053125 5.946875 20.9053125 5.946875 21 5 C21.66 5 22.32 5 23 5 C23 3.68 23 2.36 23 1 C19.37467934 1.13847638 15.74984096 1.28702643 12.125 1.4375 C11.09246094 1.47681641 10.05992187 1.51613281 8.99609375 1.55664062 C8.00996094 1.59853516 7.02382813 1.64042969 6.0078125 1.68359375 C5.09660645 1.72025146 4.18540039 1.75690918 3.24658203 1.79467773 C0.96516519 1.86577065 0.96516519 1.86577065 -1 3 C-0.67 2.01 -0.34 1.02 0 0 Z " fill="#C94B4A" transform="translate(298,198)"/>
<path d="M0 0 C0 0.66 0 1.32 0 2 C-1.32 2.33 -2.64 2.66 -4 3 C-4.33 4.32 -4.66 5.64 -5 7 C-8.3 7.66 -11.6 8.32 -15 9 C-15 9.66 -15 10.32 -15 11 C-16.65 11.33 -18.3 11.66 -20 12 C-20.33 12.99 -20.66 13.98 -21 15 C-22.99609375 16.421875 -22.99609375 16.421875 -25.4375 17.75 C-26.24058594 18.19859375 -27.04367188 18.6471875 -27.87109375 19.109375 C-28.92490234 19.55023438 -28.92490234 19.55023438 -30 20 C-30.66 19.67 -31.32 19.34 -32 19 C-9.48148148 0 -9.48148148 0 0 0 Z " fill="#D15D5A" transform="translate(276,68)"/>
<path d="M0 0 C0.33 0 0.66 0 1 0 C1.04898438 1.09957031 1.09796875 2.19914063 1.1484375 3.33203125 C1.71957446 15.0522929 2.89531332 25.91734596 7 37 C6.01 37.495 6.01 37.495 5 38 C4.525625 36.865625 4.05125 35.73125 3.5625 34.5625 C2.36377917 31.24259834 2.36377917 31.24259834 1 30 C0.95936168 28.33382885 0.957279 26.66611905 1 25 C0.01 25.33 -0.98 25.66 -2 26 C-1.67 23.69 -1.34 21.38 -1 19 C-1.66 18.67 -2.32 18.34 -3 18 C-2.34 18 -1.68 18 -1 18 C-1.33 17.01 -1.66 16.02 -2 15 C-1.93879821 12.99703237 -1.80598377 10.99571287 -1.625 9 C-1.48964844 7.4221875 -1.48964844 7.4221875 -1.3515625 5.8125 C-1 3 -1 3 0 0 Z " fill="#CB2328" transform="translate(238,147)"/>
<path d="M0 0 C0.99 1.485 0.99 1.485 2 3 C2.66 3.66 3.32 4.32 4 5 C5.53870555 12.0733218 4.97874705 19.45789555 4.5625 26.625 C4.51029297 27.62917969 4.45808594 28.63335937 4.40429688 29.66796875 C4.27625404 32.11242295 4.14139033 34.55628782 4 37 C2.51611328 35.74511719 2.51611328 35.74511719 1 34 C0.80365872 31.01323269 0.76988757 28.22730955 0.875 25.25 C0.90778476 23.54043894 0.9363724 21.83079267 0.9609375 20.12109375 C0.97350586 19.26499512 0.98607422 18.40889648 0.99902344 17.52685547 C1.00128718 11.66942608 0.48832324 5.83371875 0 0 Z " fill="#D14F50" transform="translate(379,135)"/>
<path d="M0 0 C1.12377697 3.30435084 0.89554742 5.0506862 -0.4375 8.25 C-0.72496094 8.95640625 -1.01242187 9.6628125 -1.30859375 10.390625 C-1.53675781 10.92171875 -1.76492188 11.4528125 -2 12 C-2.66 12 -3.32 12 -4 12 C-4.71607228 25.33113286 -5.37633718 38.66423114 -6 52 C-6.33 52 -6.66 52 -7 52 C-7.04998439 47.76824446 -7.08599164 43.53665204 -7.10986328 39.3046875 C-7.11983031 37.86943564 -7.13340887 36.43420358 -7.15087891 34.99902344 C-7.27278041 24.71627281 -7.0005672 15.06218009 -2.9375 5.4375 C-2.59589844 4.61121094 -2.25429688 3.78492187 -1.90234375 2.93359375 C-1 1 -1 1 0 0 Z " fill="#DD8C8C" transform="translate(278,123)"/>
<path d="M0 0 C9.4924296 1.59607223 18.77806115 3.8629648 27 9 C28.32 9.66 29.64 10.32 31 11 C27.7 11 24.4 11 21 11 C20.67 10.01 20.34 9.02 20 8 C19.01 8 18.02 8 17 8 C17 7.34 17 6.68 17 6 C15.9275 6.020625 14.855 6.04125 13.75 6.0625 C10.85209576 6.0142016 8.71387859 5.86844115 6 5 C6 4.34 6 3.68 6 3 C4.35 3 2.7 3 1 3 C0.67 2.01 0.34 1.02 0 0 Z " fill="#C6353A" transform="translate(327,63)"/>
<path d="M0 0 C0.66 0 1.32 0 2 0 C2.02505615 0.74459473 2.0501123 1.48918945 2.07592773 2.25634766 C2.69839894 21.64672644 2.69839894 21.64672644 4 41 C3.67 41 3.34 41 3 41 C0.3672652 31.58606854 -0.38727055 22.93527849 -0.1875 13.1875 C-0.17396484 11.91068359 -0.16042969 10.63386719 -0.14648438 9.31835938 C-0.11157893 6.21177452 -0.06255244 3.10612984 0 0 Z " fill="#CF4D4B" transform="translate(215,142)"/>
<path d="M0 0 C10.25763426 0.85784486 10.25763426 0.85784486 13.9375 1.5625 C21.44717504 2.63531072 28.68809926 2.34160274 36.01953125 0.4453125 C38.69993692 -0.15738227 41.26684168 -0.14016197 44 0 C43.67 0.66 43.34 1.32 43 2 C35.9873573 4.03129773 29.33133132 4.33537235 22.0625 4.3125 C21.04220703 4.32861328 20.02191406 4.34472656 18.97070312 4.36132812 C12.16049965 4.36567414 6.39563491 3.34025517 0 1 C0 0.67 0 0.34 0 0 Z " fill="#CE6866" transform="translate(288,225)"/>
<path d="M0 0 C0 0.66 0 1.32 0 2 C-0.66 2 -1.32 2 -2 2 C-2 3.32 -2 4.64 -2 6 C-3.64333504 7.03789581 -5.31243867 8.03567924 -7 9 C-8.32793606 11.06700655 -8.32793606 11.06700655 -9 13 C-10.32 13 -11.64 13 -13 13 C-13 13.99 -13 14.98 -13 16 C-14.32 16.33 -15.64 16.66 -17 17 C-6.25694444 0 -6.25694444 0 0 0 Z " fill="#DD4045" transform="translate(246,89)"/>
<path d="M0 0 C0.99 0.33 1.98 0.66 3 1 C1.59510534 4.6970912 -0.05503922 8.14747703 -1.9375 11.625 C-2.44152344 12.56601562 -2.94554687 13.50703125 -3.46484375 14.4765625 C-4.81462417 16.69528553 -6.07286658 18.28571415 -8 20 C-7.67 17.36 -7.34 14.72 -7 12 C-6.34 12 -5.68 12 -5 12 C-5 11.01 -5 10.02 -5 9 C-5.99 8.67 -6.98 8.34 -8 8 C-6.125 6.9375 -6.125 6.9375 -4 6 C-3.34 6.33 -2.68 6.66 -2 7 C-2 5.68 -2 4.36 -2 3 C-1.34 3 -0.68 3 0 3 C0 2.01 0 1.02 0 0 Z " fill="#DC3E40" transform="translate(329,291)"/>
<path d="M0 0 C0.99 0 1.98 0 3 0 C3.66 2.97 4.32 5.94 5 9 C6.32 9.33 7.64 9.66 9 10 C9.95024979 13.69541586 9.95024979 16.30458414 9 20 C5.95911984 16.4782969 3.99840887 13.1812663 2.25 8.875 C1.82203125 7.84117187 1.3940625 6.80734375 0.953125 5.7421875 C0 3 0 3 0 0 Z " fill="#D43437" transform="translate(219,183)"/>
<path d="M0 0 C0.33 0.66 0.66 1.32 1 2 C1.66 2 2.32 2 3 2 C12.13973064 18.14856902 12.13973064 18.14856902 14 26 C13.67 26.99 13.34 27.98 13 29 C8.8490884 24.8490884 7.46561585 18.53769204 5.84375 13.015625 C4.90202761 10.76595484 3.78321368 9.6326521 2 8 C0.1086401 4.914097 0 3.82679269 0 0 Z " fill="#C84549" transform="translate(389,103)"/>
<path d="M0 0 C2.9375 2.375 2.9375 2.375 5 5 C5 5.99 5 6.98 5 8 C4.01 7.67 3.02 7.34 2 7 C1.3125 4.9375 1.3125 4.9375 1 3 C0.236875 3.165 -0.52625 3.33 -1.3125 3.5 C-4 4 -4 4 -7 4 C-9.33564933 4.31669821 -11.6693782 4.64820803 -14 5 C-8.94819837 -0.18474378 -7.29892702 -1.73194878 0 0 Z " fill="#D75557" transform="translate(315,96)"/>
<path d="M0 0 C0.66 0.33 1.32 0.66 2 1 C1.09507812 2.19496094 1.09507812 2.19496094 0.171875 3.4140625 C-0.63550402 4.48430911 -1.44279075 5.55462535 -2.25 6.625 C-3.43335938 8.19121094 -3.43335938 8.19121094 -4.640625 9.7890625 C-6.86003581 12.80951894 -8.94794516 15.86543917 -11 19 C-12.15811981 16.16529977 -12.05503177 15.13699811 -10.890625 12.23828125 C-10.34921875 11.27277344 -9.8078125 10.30726563 -9.25 9.3125 C-8.71890625 8.33925781 -8.1878125 7.36601562 -7.640625 6.36328125 C-6 4 -6 4 -3 3 C-1.33289654 1.50014391 -1.33289654 1.50014391 0 0 Z " fill="#D24D50" transform="translate(369,232)"/>
<path d="M0 0 C0.33 0 0.66 0 1 0 C1.01458252 1.08007324 1.02916504 2.16014648 1.04418945 3.27294922 C1.10207546 7.27263838 1.17930773 11.27175876 1.26245117 15.27099609 C1.29574643 17.00332421 1.32376397 18.735762 1.34643555 20.46826172 C1.37989807 22.95588007 1.43220658 25.44248904 1.48828125 27.9296875 C1.49467117 28.70682098 1.5010611 29.48395447 1.50764465 30.28463745 C1.53966898 32.69967927 1.53966898 32.69967927 2 36 C2.99 36.66 3.98 37.32 5 38 C5 38.66 5 39.32 5 40 C5.66 40 6.32 40 7 40 C7.66 41.32 8.32 42.64 9 44 C5.34683329 42.75023244 4.21934164 42.32901247 2 39 C1.34 38.67 0.68 38.34 0 38 C0 25.46 0 12.92 0 0 Z " fill="#B34C4C" transform="translate(348,141)"/>
<path d="M0 0 C0 0.66 0 1.32 0 2 C-4.38461538 5 -4.38461538 5 -7 5 C-7 5.66 -7 6.32 -7 7 C-8.134375 7.28875 -9.26875 7.5775 -10.4375 7.875 C-11.613125 8.24625 -12.78875 8.6175 -14 9 C-14.33 9.66 -14.66 10.32 -15 11 C-15.66 10.67 -16.32 10.34 -17 10 C-7.09622238 -0.18674269 -7.09622238 -0.18674269 0 0 Z " fill="#CF3C3D" transform="translate(298,110)"/>
<path d="M0 0 C0.33 1.65 0.66 3.3 1 5 C-4.46108889 6.4002792 -8.69276568 5.42705634 -14 4 C-9.54158164 1.66790424 -5.08043161 0 0 0 Z " fill="#E23F3E" transform="translate(294,63)"/>
<path d="M0 0 C0.625 1.8125 0.625 1.8125 1 4 C0.01 5.485 0.01 5.485 -1 7 C-1.66 7 -2.32 7 -3 7 C-3.061875 7.556875 -3.12375 8.11375 -3.1875 8.6875 C-4.33412279 11.95096487 -6.51955157 13.64054906 -9 16 C-9.66 16.99 -10.32 17.98 -11 19 C-11.2295711 15.63295715 -11.33943529 13.58629732 -9.625 10.625 C-9.08875 10.08875 -8.5525 9.5525 -8 9 C-7.34 9 -6.68 9 -6 9 C-5.7525 8.443125 -5.505 7.88625 -5.25 7.3125 C-3.78393985 4.60028873 -1.97010529 2.36412635 0 0 Z " fill="#D25C5C" transform="translate(271,175)"/>
<path d="M0 0 C3 1 3 1 4.16796875 2.9609375 C4.50441406 3.75757812 4.84085937 4.55421875 5.1875 5.375 C5.70376953 6.56222656 5.70376953 6.56222656 6.23046875 7.7734375 C7 10 7 10 7 13 C6.01 13.33 5.02 13.66 4 14 C3.13395466 12.23494565 2.28251358 10.46271926 1.4375 8.6875 C0.72400391 7.20830078 0.72400391 7.20830078 -0.00390625 5.69921875 C-1 3 -1 3 0 0 Z " fill="#DA272C" transform="translate(341,124)"/>
<path d="M0 0 C2.475 0.99 2.475 0.99 5 2 C5 2.66 5 3.32 5 4 C5.66 4 6.32 4 7 4 C8.00484204 5.95585325 9.00373805 7.91476237 10 9.875 C10.556875 10.96554687 11.11375 12.05609375 11.6875 13.1796875 C13 16 13 16 13 18 C8.84914448 16.61638149 7.90276523 13.77842442 5.9375 10.125 C3.11228436 4.97792066 3.11228436 4.97792066 0 0 Z " fill="#D26061" transform="translate(272,265)"/>
<path d="M0 0 C1.32 0.66 2.64 1.32 4 2 C3.31164062 2.96099609 3.31164062 2.96099609 2.609375 3.94140625 C-0.8676834 8.84288983 -4.13011396 13.71940969 -7 19 C-7.33 17.68 -7.66 16.36 -8 15 C-7.34 15 -6.68 15 -6 15 C-6 13.68 -6 12.36 -6 11 C-5.34 11 -4.68 11 -4 11 C-4 9.35 -4 7.7 -4 6 C-2.68 5.67 -1.36 5.34 0 5 C0 3.35 0 1.7 0 0 Z " fill="#D35C5B" transform="translate(349,257)"/>
<path d="M0 0 C0.99 0 1.98 0 3 0 C3.33 1.98 3.66 3.96 4 6 C4.66 6 5.32 6 6 6 C10 10.35294118 10 10.35294118 10 14 C10.66 14.33 11.32 14.66 12 15 C11.01 15.33 10.02 15.66 9 16 C7.67683464 14.27898082 6.36685476 12.54781907 5.0625 10.8125 C4.33160156 9.84957031 3.60070312 8.88664063 2.84765625 7.89453125 C1.07047254 5.11040201 0.37354556 3.24332415 0 0 Z " fill="#D14F4F" transform="translate(247,226)"/>
<path d="M0 0 C2 3 2 3 1.609375 5.015625 C1.32578125 5.75296875 1.0421875 6.4903125 0.75 7.25 C0.45996094 8.03761719 0.16992188 8.82523438 -0.12890625 9.63671875 C-0.41636719 10.41660156 -0.70382813 11.19648437 -1 12 C-1.70691223 14.32392103 -2.35238215 16.6586124 -3 19 C-3.66 19 -4.32 19 -5 19 C-5.33 19.66 -5.66 20.32 -6 21 C-5.55355616 13.41045469 -2.88499438 6.98360263 0 0 Z " fill="#CF4D53" transform="translate(223,115)"/>
<path d="M0 0 C0.99 0.33 1.98 0.66 3 1 C3 1.99 3 2.98 3 4 C8.87883349 6.61281488 14.70731728 6.18328202 21 6 C16.58698316 8.94201123 14.35782176 9.35718812 9 9 C4.86971048 7.41142711 2.24441043 5.86537351 0 2 C0 1.34 0 0.68 0 0 Z " fill="#CE3E41" transform="translate(298,203)"/>
<path d="M0 0 C4.875 1.875 4.875 1.875 6 3 C6.04092937 5.33297433 6.04241723 7.66705225 6 10 C3.37684968 11.31157516 1.76966564 10.89649988 -1.125 10.5625 C-2.49011719 10.40974609 -2.49011719 10.40974609 -3.8828125 10.25390625 C-4.58148438 10.17011719 -5.28015625 10.08632812 -6 10 C-6 9.67 -6 9.34 -6 9 C-3.03 9 -0.06 9 3 9 C2.67 6.69 2.34 4.38 2 2 C1.01 1.67 0.02 1.34 -1 1 C-0.67 0.67 -0.34 0.34 0 0 Z " fill="#CC363A" transform="translate(354,184)"/>
<path d="M0 0 C0.66 0.99 1.32 1.98 2 3 C0.875 4.5 0.875 4.5 -1 6 C-4.1875 6.1875 -4.1875 6.1875 -7 6 C-7.66 7.32 -8.32 8.64 -9 10 C-9.99 9.01 -10.98 8.02 -12 7 C-11.030625 6.54625 -10.06125 6.0925 -9.0625 5.625 C-5.92920418 4.34213779 -5.92920418 4.34213779 -5 2 C-3.35636866 1.27840576 -1.68949614 0.60648579 0 0 Z " fill="#E03132" transform="translate(337,222)"/>
<path d="M0 0 C1.32 0.66 2.64 1.32 4 2 C4.33 1.67 4.66 1.34 5 1 C6.99422795 0.63371323 8.99453311 0.29868656 11 0 C8.84985117 3.22522324 7.93845623 3.73062163 4.5 5.1875 C3.30890625 5.70376953 3.30890625 5.70376953 2.09375 6.23046875 C0 7 0 7 -2 7 C-1.125 1.125 -1.125 1.125 0 0 Z " fill="#DC5150" transform="translate(274,89)"/>
<path d="M0 0 C0.66 0 1.32 0 2 0 C2 0.66 2 1.32 2 2 C3.1446875 2.12375 3.1446875 2.12375 4.3125 2.25 C7 3 7 3 8.8125 4.75 C10.19608294 7.37152557 10.24360427 9.07674878 10 12 C6.40459445 8.50732032 3.12221448 4.92506963 0 1 C0 0.67 0 0.34 0 0 Z " fill="#D85559" transform="translate(233,211)"/>
<path d="M0 0 C1.54300781 -0.00386719 1.54300781 -0.00386719 3.1171875 -0.0078125 C5.899648 0.11504939 8.41739874 0.49555764 11.125 1.125 C10.795 1.785 10.465 2.445 10.125 3.125 C3.855 3.125 -2.415 3.125 -8.875 3.125 C-8.875 2.465 -8.875 1.805 -8.875 1.125 C-5.68374596 0.06124865 -3.35029029 -0.00835484 0 0 Z " fill="#D92424" transform="translate(336.875,191.875)"/>
<path d="M0 0 C3.00912129 0.27789865 5.24544877 1.06639148 8.01953125 2.25 C8.90253906 2.62125 9.78554688 2.9925 10.6953125 3.375 C11.35917969 3.66375 12.02304687 3.9525 12.70703125 4.25 C12.70703125 4.91 12.70703125 5.57 12.70703125 6.25 C6.79410085 5.60729017 1.36458594 4.05996216 -4.29296875 2.25 C-2.29296875 0.25 -2.29296875 0.25 0 0 Z " fill="#D24A4B" transform="translate(324.29296875,83.75)"/>
<path d="M0 0 C0.99 0.33 1.98 0.66 3 1 C2.38487182 6.00890086 1.7282448 11.00632136 1 16 C-1 14 -1 14 -1.125 10.5625 C-1.08375 9.386875 -1.0425 8.21125 -1 7 C-1 6.01 -1 5.02 -1 4 C-0.6937566 2.66018514 -0.36548445 1.32488113 0 0 Z " fill="#D0383B" transform="translate(239,133)"/>
<path d="M0 0 C3.96 1.98 7.92 3.96 12 6 C12 6.33 12 6.66 12 7 C5.80660377 8.19103774 5.80660377 8.19103774 2.625 7.4375 C1 6 1 6 0 0 Z " fill="#D5484A" transform="translate(270,215)"/>
<path d="M0 0 C0.99 0.33 1.98 0.66 3 1 C0.52303815 6.36675067 -2.65830522 11.1334542 -6 16 C-6.33 15.01 -6.66 14.02 -7 13 C-6.67 12.34 -6.34 11.68 -6 11 C-5.34 11 -4.68 11 -4 11 C-3.896875 10.29875 -3.79375 9.5975 -3.6875 8.875 C-2.90640997 5.60862353 -1.57941257 2.9528148 0 0 Z " fill="#D05254" transform="translate(393,197)"/>
<path d="M0 0 C1.63001953 0.01353516 1.63001953 0.01353516 3.29296875 0.02734375 C4.12441406 0.03894531 4.95585937 0.05054687 5.8125 0.0625 C5.8125 0.7225 5.8125 1.3825 5.8125 2.0625 C-3.5925 2.5575 -3.5925 2.5575 -13.1875 3.0625 C-8.3307937 0.63414685 -5.35412024 -0.05757119 0 0 Z " fill="#CF4343" transform="translate(310.1875,82.9375)"/>
<path d="M0 0 C0.66 0.33 1.32 0.66 2 1 C1.65249554 6.6759062 0.2252389 10.98235954 -4 15 C-4.99 15 -5.98 15 -7 15 C-7 14.34 -7 13.68 -7 13 C-6.01 13 -5.02 13 -4 13 C-3.87625 12.236875 -3.7525 11.47375 -3.625 10.6875 C-3 8 -3 8 -1 5 C-0.61500109 3.34450469 -0.27206865 1.6777567 0 0 Z " fill="#CD474B" transform="translate(320,307)"/>
<path d="M0 0 C1.27310312 0.93441535 2.543388 1.87267111 3.8125 2.8125 C4.52019531 3.33457031 5.22789062 3.85664063 5.95703125 4.39453125 C7.78531393 5.83128877 9.39896688 7.31815763 11 9 C6.67810149 8.49745366 3.40579311 7.8047708 0 5 C-0.1328125 2.390625 -0.1328125 2.390625 0 0 Z " fill="#CF4245" transform="translate(259,206)"/>
<path d="M0 0 C0.33 0 0.66 0 1 0 C1.19335938 0.78503906 1.38671875 1.57007813 1.5859375 2.37890625 C2.96653221 7.9491275 4.37388447 13.49622437 6 19 C5.34 19.33 4.68 19.66 4 20 C3.525625 18.865625 3.05125 17.73125 2.5625 16.5625 C1.36377917 13.24259834 1.36377917 13.24259834 0 12 C-0.07244053 9.98035801 -0.08377188 7.95832876 -0.0625 5.9375 C-0.05347656 4.83277344 -0.04445312 3.72804687 -0.03515625 2.58984375 C-0.02355469 1.73519531 -0.01195312 0.88054687 0 0 Z " fill="#C44446" transform="translate(239,165)"/>
<path d="M0 0 C2.64 0.66 5.28 1.32 8 2 C7.67 2.556875 7.34 3.11375 7 3.6875 C5.8690399 6.30284522 5.84337026 8.1806646 6 11 C3.1673866 9.5836933 2.98292167 7.85502707 1.875 4.9375 C1.52179688 4.01839844 1.16859375 3.09929687 0.8046875 2.15234375 C0.53914063 1.44207031 0.27359375 0.73179687 0 0 Z " fill="#DB4C4B" transform="translate(294,303)"/>
<path d="M0 0 C0.99 0.495 0.99 0.495 2 1 C2 1.66 2 2.32 2 3 C2.99 3.33 3.98 3.66 5 4 C6.58965571 6.21701147 7.72327486 8.57862473 9 11 C8.01 11 7.02 11 6 11 C5.67 10.01 5.34 9.02 5 8 C4.34 8 3.68 8 3 8 C2.67 8.99 2.34 9.98 2 11 C1.34 7.37 0.68 3.74 0 0 Z " fill="#CD4447" transform="translate(250,195)"/>
<path d="M0 0 C0.99 0.4021875 0.99 0.4021875 2 0.8125 C5.64939067 2.25705047 9.32245433 3.62871178 13 5 C13 5.33 13 5.66 13 6 C9.7 6 6.4 6 3 6 C2.67 5.01 2.34 4.02 2 3 C1.34 3 0.68 3 0 3 C0 2.01 0 1.02 0 0 Z " fill="#D55554" transform="translate(345,68)"/>
<path d="M0 0 C0.99 0 1.98 0 3 0 C4.625 2 4.625 2 6 4 C6.33 4 6.66 4 7 4 C7 6.64 7 9.28 7 12 C3.6497537 8.18765077 1.83025211 4.66714289 0 0 Z " fill="#D15657" transform="translate(284,284)"/>
<path d="M0 0 C0.66 0 1.32 0 2 0 C0.48109469 4.55671592 -1.95402262 8.31723292 -5 12 C-5.33 12 -5.66 12 -6 12 C-6.125 6.25 -6.125 6.25 -5 4 C-3.68 4 -2.36 4 -1 4 C-0.67 2.68 -0.34 1.36 0 0 Z " fill="#D35151" transform="translate(382,214)"/>
<path d="M0 0 C1.27351308 2.54702616 0.80191925 3.4282945 0.0625 6.125 C-0.13214844 6.84945312 -0.32679688 7.57390625 -0.52734375 8.3203125 C-0.76130859 9.15175781 -0.76130859 9.15175781 -1 10 C-2.65 10.33 -4.3 10.66 -6 11 C-5.57576756 9.53775201 -5.13509755 8.08026588 -4.6875 6.625 C-4.44386719 5.81289062 -4.20023437 5.00078125 -3.94921875 4.1640625 C-3 2 -3 2 0 0 Z " fill="#CA2F33" transform="translate(304,99)"/>
<path d="M0 0 C-0.22265625 1.82421875 -0.22265625 1.82421875 -1 4 C-2.99609375 5.51953125 -2.99609375 5.51953125 -5.4375 6.8125 C-6.24058594 7.25207031 -7.04367188 7.69164063 -7.87109375 8.14453125 C-8.92490234 8.56798828 -8.92490234 8.56798828 -10 9 C-10.66 8.67 -11.32 8.34 -12 8 C-10.37982158 6.66081194 -8.75370657 5.3288031 -7.125 4 C-6.22007812 3.2575 -5.31515625 2.515 -4.3828125 1.75 C-2 0 -2 0 0 0 Z " fill="#D55D62" transform="translate(256,79)"/>
<path d="M0 0 C2.475 0.99 2.475 0.99 5 2 C5 2.66 5 3.32 5 4 C8.3 4.66 11.6 5.32 15 6 C15 6.33 15 6.66 15 7 C13.5629191 7.05422947 12.12524538 7.09289723 10.6875 7.125 C9.88699219 7.14820313 9.08648437 7.17140625 8.26171875 7.1953125 C4.88386954 6.90361568 2.78351202 4.85567468 0 3 C0 2.01 0 1.02 0 0 Z " fill="#DB3A3A" transform="translate(283,222)"/>
<path d="M0 0 C0.99 0 1.98 0 3 0 C3.55786268 1.59860649 4.09579568 3.20417905 4.625 4.8125 C4.92664063 5.70582031 5.22828125 6.59914062 5.5390625 7.51953125 C6 10 6 10 4 13 C3.32694982 11.39850114 2.66177773 9.79368971 2 8.1875 C1.62875 7.29417969 1.2575 6.40085938 0.875 5.48046875 C0 3 0 3 0 0 Z " fill="#D1474D" transform="translate(219,183)"/>
<path d="M0 0 C1.0625 1.875 1.0625 1.875 2 4 C1.67 4.66 1.34 5.32 1 6 C-0.32 6 -1.64 6 -3 6 C-3 6.99 -3 7.98 -3 9 C-4.32 9.33 -5.64 9.66 -7 10 C-6.02223933 8.51990357 -5.0427506 7.04094856 -4.0625 5.5625 C-3.51722656 4.73878906 -2.97195312 3.91507812 -2.41015625 3.06640625 C-1 1 -1 1 0 0 Z " fill="#D75252" transform="translate(236,96)"/>
<path d="M0 0 C0.66 0.66 1.32 1.32 2 2 C0.35 6.29 -1.3 10.58 -3 15 C-3.66 13.68 -4.32 12.36 -5 11 C-4.34 11 -3.68 11 -3 11 C-2.87625 9.741875 -2.7525 8.48375 -2.625 7.1875 C-2.30131941 3.89674737 -1.93395001 2.90092502 0 0 Z " fill="#CB4B51" transform="translate(246,121)"/>
<path d="M0 0 C2.3125 0.5 2.3125 0.5 5 2 C7.34068391 6.06876695 8.44029613 10.30350799 8 15 C5.93701866 12.93701866 5.47283084 11.87734763 4.5625 9.1875 C3.37394515 5.85833361 1.94800022 2.96838128 0 0 Z " fill="#CD5556" transform="translate(369,117)"/>
<path d="M0 0 C3 2 3 2 3.51171875 4.1640625 C3.56972656 4.97617188 3.62773437 5.78828125 3.6875 6.625 C3.75324219 7.44226563 3.81898438 8.25953125 3.88671875 9.1015625 C3.92410156 9.72804688 3.96148437 10.35453125 4 11 C3.01 11 2.02 11 1 11 C-1.03684712 6.92630576 -1.0257259 4.41062136 0 0 Z " fill="#DE3533" transform="translate(386,99)"/>
<path d="M0 0 C1.46726798 3.81489674 0.43336419 6.29011622 -1 10 C-2.65 10 -4.3 10 -6 10 C-4.07119658 6.59244728 -2.1723491 3.25852365 0 0 Z " fill="#D54D51" transform="translate(373,189)"/>
<path d="M0 0 C4.27878027 2.03751441 8.11282869 4.31600076 12 7 C11.67 7.66 11.34 8.32 11 9 C9.72549553 8.40361667 8.45553123 7.79752584 7.1875 7.1875 C6.12595703 6.68283203 6.12595703 6.68283203 5.04296875 6.16796875 C2.96195141 4.97824756 1.53063798 3.83966269 0 2 C0 1.34 0 0.68 0 0 Z " fill="#CE5551" transform="translate(326,110)"/>
<path d="M0 0 C3.91402949 1.26941497 5.79072873 2.51167694 8 6 C6 7 6 7 3.4375 6.375 C1 5 1 5 0.1875 2.375 C0.125625 1.59125 0.06375 0.8075 0 0 Z " fill="#D44B48" transform="translate(363,78)"/>
<path d="M0 0 C0.66 0.33 1.32 0.66 2 1 C-2.625 6.875 -2.625 6.875 -6 8 C-6.66 8.66 -7.32 9.32 -8 10 C-7.49396008 7.83125748 -7.00016187 6.00032373 -6 4 C-5.01 3.67 -4.02 3.34 -3 3 C-1.33289654 1.50014391 -1.33289654 1.50014391 0 0 Z " fill="#D3383C" transform="translate(369,232)"/>
<path d="M0 0 C0.66 0 1.32 0 2 0 C1.74379316 1.6065676 1.46944129 3.2102483 1.1875 4.8125 C1.03667969 5.70582031 0.88585937 6.59914062 0.73046875 7.51953125 C-0.05395393 10.18321256 -0.88627799 11.25690322 -3 13 C-3.33 12.01 -3.66 11.02 -4 10 C-3.34 10 -2.68 10 -2 10 C-1.855625 8.906875 -1.71125 7.81375 -1.5625 6.6875 C-1 3 -1 3 0 0 Z " fill="#CF6162" transform="translate(399,184)"/>
<path d="M0 0 C1.875 0.25 1.875 0.25 4 1 C5.1875 3 5.1875 3 6 5 C6.33 5.33 6.66 5.66 7 6 C7.04063832 7.66617115 7.042721 9.33388095 7 11 C5.66104368 9.33784732 4.32869858 7.67036393 3 6 C2.4225 5.278125 1.845 4.55625 1.25 3.8125 C0 2 0 2 0 0 Z " fill="#DA6163" transform="translate(265,253)"/>
<path d="M0 0 C0.66 0.33 1.32 0.66 2 1 C1.67 1.66 1.34 2.32 1 3 C1.33 3.66 1.66 4.32 2 5 C0.865625 5.28875 -0.26875 5.5775 -1.4375 5.875 C-2.613125 6.24625 -3.78875 6.6175 -5 7 C-5.33 7.66 -5.66 8.32 -6 9 C-6.66 8.67 -7.32 8.34 -8 8 C-5.33333333 5.33333333 -2.66666667 2.66666667 0 0 Z " fill="#E06D6E" transform="translate(289,112)"/>
<path d="M0 0 C2.94956528 1.36944102 5.52468811 2.87830409 8 5 C8 5.66 8 6.32 8 7 C5.69 6.67 3.38 6.34 1 6 C0.67 4.02 0.34 2.04 0 0 Z " fill="#D44F4B" transform="translate(371,84)"/>
<path d="M0 0 C0.33 0 0.66 0 1 0 C1.33 2.31 1.66 4.62 2 7 C0.02 7.66 -1.96 8.32 -4 9 C-2.80100302 5.9168649 -1.52299523 2.93720508 0 0 Z " fill="#D86566" transform="translate(228,106)"/>
<path d="M0 0 C7.50769231 0.49230769 7.50769231 0.49230769 10 3.0625 C10.33 3.701875 10.66 4.34125 11 5 C10.01 5.495 10.01 5.495 9 6 C6.8359375 5.00390625 6.8359375 5.00390625 4.375 3.5625 C3.55773437 3.08941406 2.74046875 2.61632812 1.8984375 2.12890625 C1.27195312 1.75636719 0.64546875 1.38382812 0 1 C0 0.67 0 0.34 0 0 Z " fill="#CF5052" transform="translate(338,90)"/>
<path d="M0 0 C0.66 0.66 1.32 1.32 2 2 C0.35 4.64 -1.3 7.28 -3 10 C-4.1092904 6.67212881 -4.01557588 5.3006216 -3 2 C-2.01 1.34 -1.02 0.68 0 0 Z " fill="#C83230" transform="translate(325,301)"/>
<path d="M0 0 C0.66 1.32 1.32 2.64 2 4 C0.25 6.0625 0.25 6.0625 -2 8 C-4.25 7.75 -4.25 7.75 -6 7 C-5.195625 6.21625 -4.39125 5.4325 -3.5625 4.625 C-1.01309583 2.28017144 -1.01309583 2.28017144 0 0 Z " fill="#D85858" transform="translate(365,200)"/>
<path d="M0 0 C1.32 0 2.64 0 4 0 C2.75023244 3.65316671 2.32901247 4.78065836 -1 7 C-1.625 5.1875 -1.625 5.1875 -2 3 C-1.34 2.01 -0.68 1.02 0 0 Z " fill="#D33433" transform="translate(372,224)"/>
<path d="M0 0 C2.31966166 2.84685749 3.91581154 5.4763875 5 9 C4.67 9.99 4.34 10.98 4 12 C1.24331998 8.04476345 0.4682121 4.77576339 0 0 Z " fill="#CE6E70" transform="translate(343,125)"/>
<path d="M0 0 C0.99 0 1.98 0 3 0 C7 6.75 7 6.75 7 9 C4 8 4 8 2.83203125 6.15234375 C2.49558594 5.42144531 2.15914063 4.69054687 1.8125 3.9375 C1.46832031 3.20402344 1.12414062 2.47054688 0.76953125 1.71484375 C0.51558594 1.14894531 0.26164062 0.58304687 0 0 Z " fill="#CC4A4C" transform="translate(278,274)"/>
<path d="M0 0 C1.5 1.1875 1.5 1.1875 3 3 C3.1875 5.6875 3.1875 5.6875 3 8 C2.01 8.495 2.01 8.495 1 9 C0.01 7.35 -0.98 5.7 -2 4 C-1.34 4 -0.68 4 0 4 C0 2.68 0 1.36 0 0 Z " fill="#E3363A" transform="translate(379,129)"/>
<path d="M0 0 C0.33 0.99 0.66 1.98 1 3 C-0.28610235 5.5722047 -1.33393981 6.00974907 -4 7 C-6.25 6.625 -6.25 6.625 -8 6 C-7.4225 5.7525 -6.845 5.505 -6.25 5.25 C-3.6997003 3.83316683 -1.98214299 2.12372463 0 0 Z " fill="#CA4F4A" transform="translate(357,209)"/>
<path d="M0 0 C0.33 0 0.66 0 1 0 C1 1.65 1 3.3 1 5 C0.34 5 -0.32 5 -1 5 C-1.33 6.98 -1.66 8.96 -2 11 C-2.66 10.67 -3.32 10.34 -4 10 C-3.52449439 8.51965236 -3.04448784 7.04074979 -2.5625 5.5625 C-2.29566406 4.73878906 -2.02882813 3.91507813 -1.75390625 3.06640625 C-1 1 -1 1 0 0 Z " fill="#CE4E53" transform="translate(378,178)"/>
<path d="M0 0 C0.33 0.66 0.66 1.32 1 2 C1.66 2 2.32 2 3 2 C3.99 4.31 4.98 6.62 6 9 C5.01 9.495 5.01 9.495 4 10 C0 4.5 0 4.5 0 0 Z " fill="#D75F60" transform="translate(389,103)"/>
<path d="M0 0 C0.99 0 1.98 0 3 0 C3 0.66 3 1.32 3 2 C3.66 2 4.32 2 5 2 C6.37310707 3.29233607 7.71034824 4.62437146 9 6 C8.67 6.99 8.34 7.98 8 9 C8 8.34 8 7.68 8 7 C7.4225 6.731875 6.845 6.46375 6.25 6.1875 C3.94449957 4.97070811 1.97943808 3.69666121 0 2 C0 1.34 0 0.68 0 0 Z " fill="#C8464B" transform="translate(350,96)"/>
<path d="M0 0 C0 0.66 0 1.32 0 2 C-1.32 2.33 -2.64 2.66 -4 3 C-4.33 4.32 -4.66 5.64 -5 7 C-5.99 7 -6.98 7 -8 7 C-8 6.34 -8 5.68 -8 5 C-7.34 5 -6.68 5 -6 5 C-6 4.01 -6 3.02 -6 2 C-2.25 0 -2.25 0 0 0 Z " fill="#DA4548" transform="translate(276,68)"/>
<path d="M0 0 C3.33523252 1.38009621 5.18607951 2.84950652 7 6 C6.67 6.99 6.34 7.98 6 9 C3.59927045 6.11912454 1.52708963 3.43595166 0 0 Z " fill="#D46364" transform="translate(257,242)"/>
<path d="M0 0 C4.95 0.99 4.95 0.99 10 2 C6 4 6 4 2.75 3.125 C1.8425 2.75375 0.935 2.3825 0 2 C0 1.34 0 0.68 0 0 Z " fill="#D7716E" transform="translate(327,63)"/>
<path d="M0 0 C0.99 0 1.98 0 3 0 C3 0.66 3 1.32 3 2 C2.34 2 1.68 2 1 2 C0.67 3.65 0.34 5.3 0 7 C-1.32 6.34 -2.64 5.68 -4 5 C-3.01 5 -2.02 5 -1 5 C-1.33 4.01 -1.66 3.02 -2 2 C-1.34 1.34 -0.68 0.68 0 0 Z " fill="#DD1C1F" transform="translate(386,206)"/>
<path d="M0 0 C0.66 0.33 1.32 0.66 2 1 C1.67 2.65 1.34 4.3 1 6 C-1.97 5.505 -1.97 5.505 -5 5 C-4.67 4.34 -4.34 3.68 -4 3 C-3.01 3 -2.02 3 -1 3 C-0.67 2.01 -0.34 1.02 0 0 Z " fill="#D93639" transform="translate(284,118)"/>
<path d="M0 0 C-1.32 0.33 -2.64 0.66 -4 1 C-4 1.66 -4 2.32 -4 3 C-5.65 3.33 -7.3 3.66 -9 4 C-9.33 3.34 -9.66 2.68 -10 2 C-8.71211992 1.46987262 -7.41953322 0.9511671 -6.125 0.4375 C-5.40570313 0.14746094 -4.68640625 -0.14257812 -3.9453125 -0.44140625 C-2 -1 -2 -1 0 0 Z " fill="#D74441" transform="translate(265,76)"/>
<path d="M0 0 C6.0546875 -0.1953125 6.0546875 -0.1953125 8 0 C8.66 0.66 9.32 1.32 10 2 C5.94568308 3.15837626 3.78187881 2.83691257 0 1 C0 0.67 0 0.34 0 0 Z " fill="#D26262" transform="translate(305,321)"/>
<path d="M0 0 C0.66 0 1.32 0 2 0 C1.5206753 4.31392226 0.2542015 6.16569547 -3 9 C-2.01 6.03 -1.02 3.06 0 0 Z " fill="#CB5C5B" transform="translate(336,280)"/>
<path d="M0 0 C1.65 0 3.3 0 5 0 C3.35 1.98 1.7 3.96 0 6 C-1.24546405 3.50907189 -0.7767578 2.58919267 0 0 Z " fill="#DD2124" transform="translate(358,208)"/>
<path d="M0 0 C3 3.625 3 3.625 3 7 C1.68 6.67 0.36 6.34 -1 6 C-0.67 4.02 -0.34 2.04 0 0 Z " fill="#E22222" transform="translate(249,195)"/>
<path d="M0 0 C1.32 0 2.64 0 4 0 C4.66 1.32 5.32 2.64 6 4 C5.01 4.495 5.01 4.495 4 5 C1.875 4.0625 1.875 4.0625 0 3 C0 2.01 0 1.02 0 0 Z " fill="#E42425" transform="translate(279,123)"/>
<path d="M0 0 C2.475 0.495 2.475 0.495 5 1 C3.68799596 2.35432675 2.35368596 3.68733482 1 5 C0.67 5 0.34 5 0 5 C0 3.35 0 1.7 0 0 Z " fill="#DA2221" transform="translate(366,199)"/>
<path d="M0 0 C1.52299523 2.93720508 2.80100302 5.9168649 4 9 C2.68 8.34 1.36 7.68 0 7 C0 4.69 0 2.38 0 0 Z " fill="#D66C68" transform="translate(245,184)"/>
<path d="M0 0 C0.66 0.33 1.32 0.66 2 1 C0.02 3.31 -1.96 5.62 -4 8 C-4.33 6.68 -4.66 5.36 -5 4 C-4.01 3.67 -3.02 3.34 -2 3 C-2 2.34 -2 1.68 -2 1 C-1.34 0.67 -0.68 0.34 0 0 Z " fill="#D25B5C" transform="translate(261,103)"/>
<path d="M0 0 C0 0.99 0 1.98 0 3 C-1.98 3.33 -3.96 3.66 -6 4 C-6.33 3.01 -6.66 2.02 -7 1 C-4.50935112 0.31292445 -2.62113708 0 0 0 Z " fill="#D46261" transform="translate(294,63)"/>
</svg>
