<?xml version="1.0" encoding="UTF-8"?>
<svg version="1.1" xmlns="http://www.w3.org/2000/svg" width="512" height="512">
<path d="M0 0 C1.01201477 0.00054382 2.02402954 0.00108765 3.06671143 0.00164795 C19.60117395 0.0423949 35.52064864 0.96613093 51.75 4.375 C52.76529785 4.58398926 53.7805957 4.79297852 54.82666016 5.00830078 C96.28490747 13.81727104 134.56952772 32.87621971 166.75 60.375 C167.49894531 61.01179688 168.24789063 61.64859375 169.01953125 62.3046875 C182.51520621 74.12202468 195.18558025 86.86051588 205.75 101.375 C206.60649066 102.52494831 207.46326433 103.67468589 208.3203125 104.82421875 C214.3609414 113.01589526 219.72005071 121.53145078 224.75 130.375 C225.11448242 131.00680176 225.47896484 131.63860352 225.85449219 132.28955078 C240.75359858 158.32024903 250.39345522 187.73551596 254.75 217.375 C254.92732666 218.57382813 255.10465332 219.77265625 255.28735352 221.0078125 C256.91588616 232.83383441 257.10902724 244.57658524 257.0625 256.5 C257.06034485 257.49422974 257.0581897 258.48845947 257.05596924 259.51281738 C257.00563314 273.98109955 256.70851704 288.16189071 253.75 302.375 C253.45198486 303.83945557 253.45198486 303.83945557 253.14794922 305.33349609 C240.68632449 364.89726195 208.79628608 421.24968623 159.75 458.375 C159.21117187 458.79023926 158.67234375 459.20547852 158.1171875 459.63330078 C126.24732453 484.13415115 89.69418759 500.62642134 50.3125 508.6875 C49.59360596 508.83485596 48.87471191 508.98221191 48.1340332 509.1340332 C32.65554085 512.07599807 17.34397313 512.74737337 1.625 512.6875 C0.63143494 512.68567719 -0.36213013 512.68385437 -1.38580322 512.68197632 C-15.879692 512.63719978 -29.99136097 512.17610213 -44.25 509.375 C-45.14557617 509.21402832 -46.04115234 509.05305664 -46.96386719 508.88720703 C-90.57063051 500.99797508 -131.70856217 481.30850867 -165.25 452.375 C-165.99507813 451.74078125 -166.74015625 451.1065625 -167.5078125 450.453125 C-181.01279833 438.64198485 -193.68418743 425.89139772 -204.25 411.375 C-205.10649066 410.22505169 -205.96326433 409.07531411 -206.8203125 407.92578125 C-212.8609414 399.73410474 -218.22005071 391.21854922 -223.25 382.375 C-223.61448242 381.74319824 -223.97896484 381.11139648 -224.35449219 380.46044922 C-239.28473018 354.37535999 -248.76385054 325.03914886 -253.25 295.375 C-253.51490234 293.69132324 -253.51490234 293.69132324 -253.78515625 291.97363281 C-255.4420586 280.36052257 -255.64873513 268.84320055 -255.625 257.125 C-255.62445618 256.11298523 -255.62391235 255.10097046 -255.62335205 254.05828857 C-255.5826051 237.52382605 -254.65886907 221.60435136 -251.25 205.375 C-251.04101074 204.35970215 -250.83202148 203.3444043 -250.61669922 202.29833984 C-241.83880189 160.98633315 -222.83613066 122.3544774 -195.25 90.375 C-194.61578125 89.62992187 -193.9815625 88.88484375 -193.328125 88.1171875 C-181.51698485 74.61220167 -168.76639772 61.94081257 -154.25 51.375 C-153.10005169 50.51850934 -151.95031411 49.66173567 -150.80078125 48.8046875 C-142.60910474 42.7640586 -134.09354922 37.40494929 -125.25 32.375 C-124.61819824 32.01051758 -123.98639648 31.64603516 -123.33544922 31.27050781 C-97.25035999 16.34026982 -67.91414886 6.86114946 -38.25 2.375 C-37.12754883 2.19839844 -36.00509766 2.02179687 -34.84863281 1.83984375 C-23.23552257 0.1829414 -11.71820055 -0.02373513 0 0 Z M-146.73681641 102.91308594 C-148.2308003 104.35645083 -149.74461125 105.77632147 -151.26171875 107.1953125 C-168.64278595 123.70902703 -182.34249837 144.62584289 -192.25 166.375 C-192.58628418 167.10944336 -192.92256836 167.84388672 -193.26904297 168.60058594 C-216.85468327 220.73493222 -218.28846259 279.04944293 -198.35717773 332.67602539 C-195.18844726 340.86661104 -191.40553781 348.64639516 -187.25 356.375 C-186.73695313 357.36628906 -186.22390625 358.35757812 -185.6953125 359.37890625 C-176.91177796 376.06762188 -165.24518034 390.80552084 -152.25 404.375 C-151.77836426 404.87386719 -151.30672852 405.37273437 -150.82080078 405.88671875 C-113.43821324 445.28211747 -59.59826277 467.77826185 -5.6015625 469.59765625 C30.4839264 470.36612972 67.00863498 462.64428091 98.85986328 445.39599609 C100.7699462 444.36422565 102.6943964 443.36361671 104.62109375 442.36328125 C121.20779062 433.57808559 135.80871515 422.06717345 149.15869141 408.93554688 C150.59330942 407.52866158 152.05118721 406.14558974 153.51171875 404.765625 C160.34339795 398.20206508 166.10748163 390.95806702 171.75 383.375 C172.50023437 382.36953125 173.25046875 381.3640625 174.0234375 380.328125 C207.69083411 333.41254706 219.65708168 276.06366583 210.75 219.375 C207.16159065 198.10675999 200.12975582 177.14816204 189.75488281 158.21679688 C188.72491617 156.32902517 187.73287748 154.42425865 186.7421875 152.515625 C177.96202505 135.92241432 166.44420951 121.31835477 153.31054688 107.96630859 C151.90366158 106.53169058 150.52058974 105.07381279 149.140625 103.61328125 C112.71114445 65.69566833 58.47685796 44.7448389 6.484375 43.12109375 C-50.55680426 42.17358092 -105.70843365 63.12878117 -146.73681641 102.91308594 Z " fill="#000000" transform="translate(255.25,-0.375)"/>
<path d="M0 0 C2.61062867 2.2171785 5.003242 4.62271014 7.40405273 7.06347656 C8.107332 7.76631775 8.81061127 8.46915894 9.53520203 9.19329834 C11.84185493 11.50202959 14.13771843 13.82118017 16.43359375 16.140625 C18.03719008 17.74982064 19.64145309 19.35835217 21.24635315 20.96624756 C25.45661823 25.18793484 29.65779369 29.41855527 33.8571167 33.65112305 C38.14862223 37.97338587 42.44869501 42.28710686 46.74804688 46.6015625 C55.17375398 55.05938746 63.58987967 63.52667801 72 72 C76.81656399 67.99063894 81.33385309 63.79109073 85.72631836 59.32373047 C86.35822586 58.68554382 86.99013336 58.04735718 87.64118958 57.38983154 C89.00135168 56.01591186 90.36043101 54.64091953 91.71851921 53.2649498 C93.87268197 51.08394002 96.03137287 48.90751094 98.19154358 46.73245239 C104.32919315 40.55225256 110.46410665 34.36942115 116.58276367 28.17041016 C120.33633205 24.36821167 124.09968713 20.5759412 127.86953926 16.78989029 C129.29846997 15.3510937 130.72374531 13.9086568 132.14518547 12.46245956 C134.13566562 10.43807203 136.13840818 8.42659517 138.14428711 6.41748047 C138.72167633 5.8241391 139.29906555 5.23079773 139.89395142 4.61947632 C145.50354984 -0.94924137 151.40873159 -4.57251395 159.5 -4.5625 C165.54343565 -4.35265848 169.58323157 -3.17661317 174 1 C178.21813946 5.73615659 180.09495243 9.883871 180.3125 16.25 C180.36857422 17.30960938 180.36857422 17.30960938 180.42578125 18.390625 C179.17363885 26.06430503 174.2141657 31.35549381 168.84472656 36.609375 C168.13213181 37.32255386 167.41953705 38.03573273 166.68534851 38.77052307 C164.34647006 41.10663271 161.99378291 43.4282823 159.640625 45.75 C158.00879085 47.37436755 156.37784227 48.99962518 154.7477417 50.62573242 C150.46906008 54.88919103 146.17850045 59.14049667 141.88531494 63.38934326 C137.50090983 67.73272422 133.12790132 72.08754649 128.75390625 76.44140625 C120.18035668 84.9721437 111.59420911 93.4900797 103 102 C107.04338479 106.85820631 111.28483413 111.41303046 115.78393555 115.84985352 C116.43348206 116.49472717 117.08302856 117.13960083 117.7522583 117.80401611 C119.1507096 119.19203453 120.55026003 120.57894628 121.95081139 121.96484566 C124.16897747 124.16084256 126.38302845 126.36091076 128.59590149 128.5622406 C134.88367051 134.81654457 141.17561304 141.06660176 147.4777832 147.30639648 C151.34257495 151.1335152 155.19999477 154.96793294 159.05280495 158.80711174 C160.51843722 160.26470276 161.98683921 161.71951438 163.45807457 163.17144966 C165.51375666 165.20061419 167.55993364 167.23893332 169.60424805 169.27954102 C170.21053543 169.87347153 170.81682281 170.46740204 171.44148254 171.07933044 C176.74819919 176.41146872 179.66948248 181.70327225 180.25 189.25 C179.80354971 195.94675437 178.18447766 200.26975482 173.1875 204.875 C168.10413528 208.93983991 163.65194059 210.46483845 157.05634308 210.24288654 C149.18206402 209.31281002 144.60940175 205.32097619 139.29882812 199.86645508 C138.21442947 198.78315163 138.21442947 198.78315163 137.10812378 197.67796326 C134.73711014 195.30348447 132.38427105 192.91182981 130.03125 190.51953125 C128.38468114 188.86363058 126.73700009 187.20883516 125.08825684 185.55509949 C120.76337146 181.21117388 116.45371582 176.85244107 112.14709473 172.49041748 C107.74521045 168.03727769 103.32904021 163.59835524 98.9140625 159.15820312 C90.26202671 150.45263197 81.62601877 141.73134578 73 133 C68.10730919 137.07002813 63.5261821 141.34616163 59.05834961 145.87573242 C58.40372238 146.5350325 57.74909515 147.19433258 57.07463074 147.87361145 C55.66533227 149.29334442 54.2571399 150.71417605 52.84995842 152.13600731 C50.62035439 154.38777612 48.38668236 156.63543382 46.15174866 158.88191223 C39.80186614 165.26526388 33.45622609 171.65278589 27.12084961 178.05053711 C23.23537489 181.97368227 19.34260282 185.88945828 15.44507027 189.80062294 C13.9651511 191.28858415 12.48801144 192.77931531 11.01374626 194.27287865 C8.95344749 196.35969117 6.88399515 198.43700485 4.81225586 200.51245117 C4.20897461 201.12808929 3.60569336 201.74372742 2.98413086 202.37802124 C-2.02054851 207.35919222 -6.58361792 210.42782973 -13.875 210.4375 C-19.37738106 210.26044318 -23.70935085 209.60261633 -28 206 C-33.33154727 199.64180905 -35.5557179 194.33576857 -35 186 C-31.71613294 172.64560727 -17.35349957 162.21965067 -7.90234375 152.8046875 C-6.45767107 151.36188383 -5.01322192 149.9188563 -3.56898499 148.47561646 C0.2016281 144.70879056 3.97523626 140.94497952 7.74951172 137.18182373 C11.61284343 133.32878853 15.47328583 129.47286078 19.33398438 125.6171875 C26.8865243 118.07531777 34.44223677 110.53663516 42 103 C37.9666905 98.15013323 33.73367924 93.61339283 29.23193359 89.19775391 C28.58399338 88.55769913 27.93605316 87.91764435 27.26847839 87.25819397 C25.87325047 85.88005245 24.47697774 84.50296803 23.07975388 83.12685013 C20.10205839 80.1915117 17.13390971 77.24659765 14.16512489 74.30225182 C8.65063243 68.83334017 3.13242344 63.36832116 -2.40234375 57.91992188 C-6.26511866 54.11669412 -10.11543447 50.30123325 -13.9579277 46.47751999 C-15.41816976 45.02897855 -16.88292412 43.58497047 -18.35234451 42.14574051 C-20.41028316 40.12904196 -22.45192647 38.09705945 -24.49072266 36.06103516 C-25.09341476 35.47789047 -25.69610687 34.89474579 -26.31706238 34.29393005 C-31.31781565 29.24475356 -35.11097877 23.21181741 -35.4375 15.9375 C-34.68847893 9.19631041 -33.28922023 4.84194452 -28.25 0.125 C-19.28237213 -7.01649274 -9.20837305 -6.22762638 0 0 Z " fill="#000000" transform="translate(183,153)"/>
</svg>
