<svg viewBox="-5 -3.5199999999999996 112.97297297297297 105.3" version="1.1" xmlns="http://www.w3.org/2000/svg" style="max-height: 500px" width="112.97297297297297" height="105.3">
 <path d="m32.297 74.492c-0.90625-0.88281-0.92578-2.332-0.046875-3.2383 0.88281-0.90625 2.332-0.92578 3.2383-0.046875l13.223 12.828v-44.414c0-1.2695 1.0273-2.2969 2.2969-2.2969 1.2656 0 2.2969 1.0273 2.2969 2.2969v44.414l13.223-12.828c0.90625-0.88281 2.3555-0.85938 3.2383 0.046875s0.85938 2.3594-0.046875 3.2383l-17.117 16.605c-0.88672 0.85938-2.3008 0.86719-3.1953 0l-17.117-16.605zm2.5898-16.055c1.2695 0 2.2969 1.0273 2.2969 2.2969s-1.0273 2.2969-2.2969 2.2969h-16.781c-4.707 0-8.9805-1.9219-12.082-5.0234-3.0977-3.0977-5.0234-7.3789-5.0234-12.082 0-4.707 1.9219-8.9805 5.0234-12.082 3.0977-3.0977 7.3789-5.0234 12.082-5.0234h7.9883c0.875-5.5039 3.582-10.391 7.4805-14.023 4.3672-4.0664 10.223-6.5547 16.648-6.5547 6.4336 0 12.285 2.4883 16.648 6.5547 3.8945 3.6289 6.6055 8.5195 7.4805 14.023h7.543c4.707 0 8.9805 1.9219 12.082 5.0234 3.0977 3.0977 5.0234 7.3789 5.0234 12.082 0 4.707-1.9219 8.9805-5.0234 12.082-3.0977 3.0977-7.3789 5.0234-12.082 5.0234h-14.758c-1.2695 0-2.2969-1.0273-2.2969-2.2969s1.0273-2.2969 2.2969-2.2969h14.758c3.4375 0 6.5664-1.4062 8.8359-3.6797 2.2695-2.2695 3.6758-5.3945 3.6758-8.832s-1.4062-6.5664-3.6758-8.832c-2.2695-2.2695-5.3984-3.6797-8.8359-3.6797h-9.582v-0.007812c-1.1953 0-2.207-0.92578-2.2891-2.1406-0.35938-5.168-2.7031-9.7891-6.2734-13.117-3.543-3.3008-8.2969-5.3203-13.531-5.3203-5.2305 0-9.9883 2.0195-13.527 5.3203-3.543 3.3008-5.8789 7.8828-6.2617 13.004-0.019532 1.25-1.0391 2.2578-2.2969 2.2578h-10.031c-3.4375 0-6.5664 1.4062-8.8359 3.6797-2.2695 2.2695-3.6758 5.3945-3.6758 8.832s1.4062 6.5664 3.6758 8.832c2.2695 2.2695 5.3984 3.6797 8.8359 3.6797h16.781z"/>
<text fill="#000000" font-family="Arbeit Regular, Helvetica, Arial-Unicode, Arial, Sans-serif" font-weight="bold" font-size="5.0" y="117.5" x="0.0">Created by MCROIS</text><text fill="#000000" font-family="Arbeit Regular, Helvetica, Arial-Unicode, Arial, Sans-serif" font-weight="bold" font-size="5.0" y="122.5" x="0.0">from Noun Project</text></svg>