<svg xmlns="http://www.w3.org/2000/svg" xmlns:xlink="http://www.w3.org/1999/xlink" width="500" zoomAndPan="magnify" viewBox="0 0 375 374.999991" height="500" preserveAspectRatio="xMidYMid meet" version="1.0"><path fill="currentColor" d="M 245.042969 228.617188 C 242.007812 234.542969 239.101562 240.449219 236.269531 246.335938 C 295.144531 252.695312 337.5 270.074219 337.5 290.625 C 337.5 316.519531 270.335938 337.5 187.5 337.5 C 104.664062 337.5 37.5 316.519531 37.5 290.625 C 37.5 270.074219 79.855469 252.695312 138.710938 246.355469 C 135.898438 240.46875 132.957031 234.5625 129.9375 228.675781 C 54.5625 238.367188 0 266.644531 0 300 C 0 341.417969 83.945312 375 187.5 375 C 291.039062 375 375 341.417969 375 300 C 375 266.644531 320.4375 238.367188 245.042969 228.617188 Z M 245.042969 228.617188 " fill-opacity="1" fill-rule="nonzero"/><path fill="currentColor" d="M 196.875 300 C 207.636719 246.320312 251.136719 184.5 270.863281 134.832031 C 277.480469 122.175781 281.25 107.8125 281.25 92.585938 C 281.25 41.417969 239.25 0 187.480469 0 C 135.710938 0 93.75 41.417969 93.75 92.585938 C 93.75 107.8125 97.480469 122.175781 104.101562 134.832031 C 123.824219 184.5 167.382812 246.320312 178.125 300 C 180.488281 300 194.550781 300 196.875 300 Z M 187.480469 46.875 C 213.375 46.875 234.375 67.894531 234.375 93.75 C 234.375 119.644531 213.375 140.625 187.480469 140.625 C 161.585938 140.625 140.625 119.644531 140.625 93.75 C 140.625 67.894531 161.585938 46.875 187.480469 46.875 Z M 187.480469 46.875 " fill-opacity="1" fill-rule="nonzero"/></svg>