<svg xmlns="http://www.w3.org/2000/svg" xmlns:xlink="http://www.w3.org/1999/xlink" width="500" zoomAndPan="magnify" viewBox="0 0 375 374.999991" height="500" preserveAspectRatio="xMidYMid meet" version="1.0"><defs><clipPath id="7ccb857b87"><path d="M 1 24.140625 L 373 24.140625 L 373 351 L 1 351 Z M 1 24.140625 " clip-rule="nonzero"/></clipPath></defs><g clip-path="url(#7ccb857b87)"><path fill="#000000" d="M 165.386719 38.605469 C 145.539062 73.335938 96.503906 160.234375 57.105469 230.066406 L 4.984375 322.375 C 0.292969 330.636719 2.042969 337.171875 3.5 340.332031 C 6.457031 346.726562 12.765625 349.917969 17.675781 350.777344 L 18.667969 350.949219 L 355.042969 350.957031 L 354.339844 350.929688 C 359.613281 351.253906 366.617188 349.355469 370.445312 343.054688 C 372.894531 339.007812 374.652344 332.128906 369.082031 322.347656 L 264.9375 140.226562 L 207.308594 39.484375 C 200.085938 26.855469 191.710938 24.195312 185.957031 24.195312 C 180.339844 24.195312 172.210938 26.691406 165.394531 38.605469 Z M 77.613281 242.03125 C 117.003906 172.226562 166.011719 85.355469 185.832031 50.683594 L 186.070312 50.304688 C 186.324219 50.691406 186.570312 51.046875 186.855469 51.550781 L 244.503906 152.3125 C 244.503906 152.3125 336.476562 313.164062 344.34375 326.917969 L 29.675781 326.910156 L 77.609375 242.03125 " fill-opacity="1" fill-rule="evenodd"/></g><path fill="#000000" d="M 187.371094 309.480469 C 197.558594 309.480469 205.816406 300.921875 205.816406 290.371094 C 205.816406 279.824219 197.558594 271.269531 187.371094 271.269531 C 177.164062 271.269531 168.90625 279.824219 168.90625 290.371094 C 168.90625 300.921875 177.164062 309.480469 187.371094 309.480469 " fill-opacity="1" fill-rule="evenodd"/><path fill="#000000" d="M 187.371094 122.285156 C 202.09375 122.285156 215.621094 136.222656 214.027344 149.886719 L 201.417969 245.992188 C 200.191406 254.390625 195.125 260.535156 187.371094 260.535156 C 179.613281 260.535156 174.53125 254.390625 173.320312 245.992188 L 160.703125 149.886719 C 159.105469 136.222656 172.636719 122.285156 187.371094 122.285156 " fill-opacity="1" fill-rule="evenodd"/></svg>