<?xml version="1.0" standalone="no"?>
<!DOCTYPE svg PUBLIC "-//W3C//DTD SVG 20010904//EN"
 "http://www.w3.org/TR/2001/REC-SVG-20010904/DTD/svg10.dtd">
<svg version="1.0" xmlns="http://www.w3.org/2000/svg"
 width="465.000000pt" height="461.000000pt" viewBox="0 0 465.000000 461.000000"
 preserveAspectRatio="xMidYMid meet">
<metadata>
Created by potrace 1.16, written by Peter Selinger 2001-2019
</metadata>
<g transform="translate(0.000000,461.000000) scale(0.100000,-0.100000)"
fill="#000000" stroke="none">
<path d="M857 4380 c-47 -38 -57 -69 -57 -187 l0 -107 -174 -176 c-96 -96
-179 -188 -185 -203 -7 -18 -11 -144 -11 -343 l0 -314 -65 0 c-115 0 -175 -43
-175 -125 0 -85 53 -125 169 -125 l71 0 0 -800 0 -800 -65 0 c-115 0 -175 -43
-175 -125 0 -85 53 -125 169 -125 l71 0 0 -317 c0 -357 3 -372 70 -405 32 -16
74 -18 425 -18 351 0 393 2 425 18 67 33 70 48 70 405 l0 317 185 0 185 0 0
-329 c0 -322 0 -329 22 -356 42 -53 55 -55 468 -55 413 0 426 2 468 55 22 27
22 34 22 356 l0 329 184 0 185 0 3 -328 c3 -298 5 -330 21 -356 36 -54 52 -56
472 -56 427 0 438 1 475 62 19 31 20 50 20 356 l0 322 71 0 c45 0 84 6 105 16
88 42 86 177 -2 219 -19 9 -60 15 -103 15 l-71 0 0 800 0 800 70 0 c116 0 170
40 170 126 0 82 -58 124 -170 124 l-70 0 0 314 c0 199 -4 325 -11 343 -6 15
-89 107 -185 203 l-174 176 0 109 c0 91 -3 115 -20 142 -30 49 -63 66 -116 60
-87 -9 -114 -59 -114 -209 l0 -103 -166 -165 c-100 -99 -174 -181 -185 -205
-17 -36 -19 -68 -19 -352 l0 -313 -185 0 -185 0 0 332 0 332 -185 186 -185
186 0 112 c0 127 -11 162 -60 187 -60 31 -137 10 -165 -45 -11 -21 -15 -61
-15 -142 l0 -113 -171 -170 c-94 -94 -177 -182 -185 -197 -11 -22 -14 -89 -14
-348 l0 -320 -185 0 -185 0 0 314 c0 199 -4 325 -11 343 -6 15 -89 107 -185
203 l-174 176 0 102 c0 152 -28 201 -117 209 -39 4 -53 1 -76 -17z m933 -2380
l0 -800 -185 0 -185 0 0 800 0 800 185 0 185 0 0 -800z m1350 0 l0 -800 -185
0 -185 0 0 800 0 800 185 0 185 0 0 -800z"/>
</g>
</svg>
