<?xml version="1.0" encoding="UTF-8"?>
<svg version="1.1" xmlns="http://www.w3.org/2000/svg" width="512" height="512">
<path d="M0 0 C5.28272669 3.33041465 8.77613771 8.26511703 12.64453125 13.10546875 C14.85342002 15.81987435 17.13963081 18.41718764 19.5 21 C24.2057274 26.16804448 28.64912303 31.53082533 33 37 C33.79361938 37.78286377 33.79361938 37.78286377 34.60327148 38.58154297 C36.76043497 42.31670491 36.37007101 45.90465516 36.29296875 50.140625 C36.28994751 50.9229248 36.28692627 51.70522461 36.28381348 52.51123047 C36.26815642 55.42428848 36.22627232 58.33715794 36.1875 61.25 C36.125625 67.7675 36.06375 74.285 36 81 C49.53 81 63.06 81 77 81 C76.76334088 68.52459152 76.76334088 68.52459152 76.45947266 56.05078125 C76.44192726 54.47137909 76.42664308 52.89194951 76.4140625 51.3125 C76.3680188 50.11077148 76.3680188 50.11077148 76.32104492 48.88476562 C76.31500791 42.30039624 78.68662137 38.81836886 83 34 C84.00329733 32.81048013 85.00600068 31.62045873 86.0078125 30.4296875 C87.04420569 29.24245619 88.0833457 28.057618 89.125 26.875 C90.26345492 25.57329619 91.40146476 24.271203 92.5390625 22.96875 C93.39806152 21.98648438 93.39806152 21.98648438 94.27441406 20.984375 C95.97338416 19.03060746 97.65758419 17.06524377 99.3359375 15.09375 C99.86815918 14.46871582 100.40038086 13.84368164 100.94873047 13.19970703 C101.95190536 12.0197056 102.95363354 10.83847206 103.95361328 9.65576172 C112.00395879 0.20289728 112.00395879 0.20289728 116.375 -0.6875 C124.4389914 0.84187768 128.80426736 8.02569127 133.6796875 14.140625 C135.87469854 16.8455881 138.1502746 19.42922029 140.5 22 C157.50714814 40.70786295 157.50714814 40.70786295 157.29296875 51.80078125 C157.28994751 52.54275757 157.28692627 53.28473389 157.28381348 54.04919434 C157.26819365 56.80377236 157.22630977 59.5581511 157.1875 62.3125 C157.125625 68.479375 157.06375 74.64625 157 81 C170.2 81 183.4 81 197 81 C196.88147269 68.71916007 196.88147269 68.71916007 196.72973633 56.4387207 C196.72096989 54.89274721 196.71332632 53.34676678 196.70703125 51.80078125 C196.6840094 50.60841858 196.6840094 50.60841858 196.66052246 49.39196777 C196.65678656 41.44820455 200.32658658 37.39649292 205.4375 31.5625 C206.51577346 30.31913915 207.59389407 29.07564573 208.671875 27.83203125 C209.22294922 27.19861816 209.77402344 26.56520508 210.34179688 25.91259766 C212.4666204 23.46179267 214.57075413 20.99377389 216.6730957 18.52368164 C218.16878482 16.77191936 219.67539444 15.0300561 221.18359375 13.2890625 C222.99808706 11.18988251 224.74118206 9.07030244 226.47265625 6.8984375 C232.63760698 -0.60947848 232.63760698 -0.60947848 237.0625 -1.125 C245.25027107 0.0562397 250.95403163 10.27916957 255.71875 16.21875 C257.88123151 18.85520005 260.12648417 21.36868706 262.4375 23.875 C263.12787354 24.65576904 263.81824707 25.43653809 264.52954102 26.2409668 C266.17656469 28.08037924 267.87156862 29.87792508 269.61108398 31.63012695 C278.37403742 41.34301604 278.22642945 49.64362817 277.625 62.3125 C277.315625 71.5628125 277.315625 71.5628125 277 81 C290.2 81 303.4 81 317 81 C316.88155735 69.09329812 316.88155735 69.09329812 316.72973633 57.18701172 C316.72096725 55.68457684 316.71332431 54.18213479 316.70703125 52.6796875 C316.6840094 51.52738647 316.6840094 51.52738647 316.66052246 50.35180664 C316.65701497 43.09129161 319.13837883 38.57615568 324.125 33.3125 C327.28822512 29.89499633 330.32641499 26.43731388 333.25 22.8125 C337.05781187 18.10833595 340.97262954 13.50911579 344.9375 8.9375 C345.5056543 8.28177002 346.07380859 7.62604004 346.65917969 6.95043945 C352.67117432 0.03773409 352.67117432 0.03773409 356.8125 -0.4375 C358.83203125 -0.55859375 358.83203125 -0.55859375 361 0 C363.43359375 2.17578125 363.43359375 2.17578125 366 5 C366.85078125 5.89976563 367.7015625 6.79953125 368.578125 7.7265625 C373.85204488 13.44768612 378.91360737 19.25407943 383.79296875 25.3203125 C386.79192079 28.96151798 389.95826784 32.43614283 393.15234375 35.90625 C395.87665667 38.99342066 397.25289014 40.91691273 397.22705078 45.01245117 C397.22689972 45.81305466 397.22674866 46.61365814 397.22659302 47.43852234 C397.21627045 48.29798965 397.20594788 49.15745697 397.1953125 50.04296875 C397.19106766 51.36836418 397.19106766 51.36836418 397.18673706 52.72053528 C397.17554097 55.54299454 397.15043751 58.36513662 397.125 61.1875 C397.11496946 63.10090688 397.10584374 65.01431873 397.09765625 66.92773438 C397.07560351 71.61861182 397.04107762 76.30925213 397 81 C397.91289795 80.97905273 398.8257959 80.95810547 399.76635742 80.93652344 C403.16766535 80.86817283 406.56823899 80.81811671 409.9699707 80.78027344 C411.43948921 80.76021175 412.90892841 80.73295522 414.37817383 80.69824219 C416.49580487 80.64947859 418.61237687 80.62697839 420.73046875 80.609375 C422.00301514 80.58842773 423.27556152 80.56748047 424.58666992 80.54589844 C428.86154586 81.11461807 430.34900527 81.55051288 433 85 C433.74889204 88.94554245 433.70006625 92.83783972 433.6640625 96.84375 C433.66884613 98.0049939 433.67362976 99.16623779 433.67855835 100.3626709 C433.68195991 102.81715245 433.67273984 105.27167916 433.65185547 107.72607422 C433.62509694 111.4863777 433.65159824 115.24369579 433.68359375 119.00390625 C433.6802897 121.38802743 433.67388358 123.77214676 433.6640625 126.15625 C433.67418365 127.28236694 433.68430481 128.40848389 433.69473267 129.56872559 C433.67897186 130.61661255 433.66321106 131.66449951 433.64697266 132.74414062 C433.64299469 133.66473267 433.63901672 134.58532471 433.63491821 135.53381348 C433 138 433 138 428 142 C417.77 142 407.54 142 397 142 C397 181.27 397 220.54 397 261 C407.23 261 417.46 261 428 261 C433 265 433 265 433.63491821 267.46618652 C433.63889618 268.38677856 433.64287415 269.30737061 433.64697266 270.25585938 C433.67061386 271.82768982 433.67061386 271.82768982 433.69473267 273.43127441 C433.68461151 274.55739136 433.67449036 275.6835083 433.6640625 276.84375 C433.66884613 278.0049939 433.67362976 279.16623779 433.67855835 280.3626709 C433.68195991 282.81715245 433.67273984 285.27167916 433.65185547 287.72607422 C433.62509694 291.4863777 433.65159824 295.24369579 433.68359375 299.00390625 C433.6802897 301.38802743 433.67388358 303.77214676 433.6640625 306.15625 C433.67418365 307.28236694 433.68430481 308.40848389 433.69473267 309.56872559 C433.57925818 317.24626647 433.57925818 317.24626647 430.9128418 320.71582031 C427.30249103 322.30750961 424.67573536 322.45556766 420.73046875 322.390625 C420.04946609 322.38496521 419.36846344 322.37930542 418.66682434 322.37347412 C416.50631355 322.35120481 414.34750354 322.30103318 412.1875 322.25 C410.71682095 322.22992247 409.24611571 322.21167389 407.77539062 322.1953125 C404.1830475 322.15137326 400.59168994 322.08241456 397 322 C397.02094727 323.19077148 397.04189453 324.38154297 397.06347656 325.60839844 C397.13590962 330.02884889 397.18181172 334.44924696 397.21972656 338.87011719 C397.23983452 340.78296735 397.26712507 342.69575611 397.30175781 344.60839844 C397.35031249 347.35887811 397.37297658 350.10854477 397.390625 352.859375 C397.42159271 354.14083405 397.42159271 354.14083405 397.45318604 355.44818115 C397.45348816 356.24870911 397.45379028 357.04923706 397.45410156 357.87402344 C397.46298401 358.57573669 397.47186646 359.27744995 397.48101807 360.00042725 C396.75168514 363.03223487 395.49147867 364.1604805 393 366 C389.85046387 366.50793457 389.85046387 366.50793457 386.09179688 366.51757812 C385.06180321 366.52809204 385.06180321 366.52809204 384.01100159 366.53881836 C381.74650349 366.55639013 379.48326028 366.54477995 377.21875 366.53125 C375.64220948 366.53394519 374.06567058 366.53782783 372.48913574 366.54284668 C369.18709466 366.54874056 365.88548677 366.54018278 362.58349609 366.52148438 C358.3529894 366.49869431 354.12349772 366.51181807 349.89302826 366.53577423 C346.63816697 366.55023551 343.38354593 366.54562483 340.12867737 366.53526306 C338.56897359 366.53259666 337.00924792 366.53586254 335.4495697 366.54518127 C333.26852738 366.55535302 331.08912353 366.53984041 328.90820312 366.51757812 C327.66784302 366.51439575 326.42748291 366.51121338 325.14953613 366.50793457 C321.4113516 365.90506701 320.25745415 364.98340841 318 362 C316.7262346 358.17870381 316.87635814 354.59317169 316.90234375 350.61328125 C316.90335083 349.88894897 316.90435791 349.1646167 316.90539551 348.41833496 C316.91062174 345.71637384 316.92458302 343.0144353 316.9375 340.3125 C316.958125 334.269375 316.97875 328.22625 317 322 C303.8 322 290.6 322 277 322 C277.19756825 334.61028255 277.19756825 334.61028255 277.45043945 347.21948242 C277.4650496 348.80646074 277.47778903 350.39345786 277.48828125 351.98046875 C277.51386108 352.79696899 277.53944092 353.61346924 277.5657959 354.45471191 C277.56640015 355.24591431 277.56700439 356.0371167 277.56762695 356.85229492 C277.57873001 357.53402267 277.58983307 358.21575043 277.60127258 358.9181366 C276.61672349 362.32706755 274.74875511 363.83789205 272 366 C268.76817322 366.62145996 268.76817322 366.62145996 265.07006836 366.61523438 C264.39301346 366.62078339 263.71595856 366.6263324 263.01838684 366.63204956 C260.79147451 366.64381314 258.56661215 366.61961111 256.33984375 366.59375 C254.78715609 366.59203809 253.23446555 366.59210539 251.68177795 366.59387207 C248.43267041 366.59222079 245.18425449 366.57355754 241.93530273 366.54199219 C237.77330659 366.5022814 233.61221435 366.49795178 229.45006466 366.50545502 C226.24581133 366.50852595 223.04176076 366.49640049 219.83755684 366.47932434 C218.302987 366.47230029 216.76839419 366.46916909 215.23380852 366.47001648 C213.08896286 366.46821637 210.94519592 366.44681986 208.80053711 366.41992188 C207.5809581 366.41150269 206.36137909 366.4030835 205.10484314 366.39440918 C201.74515029 365.96762636 200.35739304 365.3916403 198 363 C196.70520915 359.11562746 196.87663082 355.44117884 196.90234375 351.39453125 C196.90335083 350.65054077 196.90435791 349.90655029 196.90539551 349.14001465 C196.91062257 346.36416073 196.92458385 343.58832879 196.9375 340.8125 C196.958125 334.604375 196.97875 328.39625 197 322 C183.8 322 170.6 322 157 322 C157.11852731 334.28083993 157.11852731 334.28083993 157.27026367 346.5612793 C157.27903011 348.10725279 157.28667368 349.65323322 157.29296875 351.19921875 C157.30831665 351.9941272 157.32366455 352.78903564 157.33947754 353.60803223 C157.34165385 358.23558507 157.00381335 361.23758798 154 365 C151.1023746 366.4488127 148.55610162 366.15942606 145.31884766 366.19287109 C144.63247726 366.20104858 143.94610687 366.20922607 143.23893738 366.21765137 C140.96398798 366.24249617 138.68910088 366.25901772 136.4140625 366.2734375 C135.63757732 366.27876118 134.86109215 366.28408485 134.06107712 366.28956985 C129.95218645 366.31629581 125.84332613 366.33567356 121.734375 366.35009766 C117.48811165 366.36675644 113.24262282 366.41154495 108.9966526 366.4624691 C105.73327734 366.49610292 102.47008694 366.50767065 99.20655441 366.51332474 C97.64120937 366.52004661 96.07587689 366.53529318 94.51070023 366.55921555 C92.31980215 366.59079436 90.13100677 366.59091666 87.93994141 366.58349609 C86.69354889 366.59158295 85.44715637 366.5996698 84.16299438 366.60800171 C81 366 81 366 78.59463501 363.72276306 C77.04167178 361.07115257 76.50678134 359.85453199 76.54589844 356.85229492 C76.54638184 356.06109253 76.54686523 355.26989014 76.54736328 354.45471191 C76.56782715 353.63821167 76.58829102 352.82171143 76.609375 351.98046875 C76.61340332 351.21883423 76.61743164 350.45719971 76.62158203 349.67248535 C76.64241454 346.84390971 76.69826013 344.01567912 76.75 341.1875 C76.8325 334.855625 76.915 328.52375 77 322 C63.47 322 49.94 322 36 322 C36.15815406 334.98422151 36.15815406 334.98422151 36.36035156 347.96777344 C36.37203651 349.59829665 36.38222879 351.22883154 36.390625 352.859375 C36.41108887 353.70258301 36.43155273 354.54579102 36.45263672 355.41455078 C36.45312012 356.22617676 36.45360352 357.03780273 36.45410156 357.87402344 C36.46298401 358.57573669 36.47186646 359.27744995 36.48101807 360.00042725 C35.75168514 363.03223487 34.49147867 364.1604805 32 366 C28.85046387 366.50793457 28.85046387 366.50793457 25.09179688 366.51757812 C24.06180321 366.52809204 24.06180321 366.52809204 23.01100159 366.53881836 C20.74650349 366.55639013 18.48326028 366.54477995 16.21875 366.53125 C14.64220948 366.53394519 13.06567058 366.53782783 11.48913574 366.54284668 C8.18709466 366.54874056 4.88548677 366.54018278 1.58349609 366.52148438 C-2.6470106 366.49869431 -6.87650228 366.51181807 -11.10697174 366.53577423 C-14.36183303 366.55023551 -17.61645407 366.54562483 -20.87132263 366.53526306 C-22.43102641 366.53259666 -23.99075208 366.53586254 -25.5504303 366.54518127 C-27.73147262 366.55535302 -29.91087647 366.53984041 -32.09179688 366.51757812 C-33.33215698 366.51439575 -34.57251709 366.51121338 -35.85046387 366.50793457 C-39 366 -39 366 -41.40338135 364.2255249 C-43.13799907 361.80764325 -43.49113884 360.79996799 -43.45410156 357.87402344 C-43.45379944 357.07349548 -43.45349731 356.27296753 -43.45318604 355.44818115 C-43.43254089 354.59387512 -43.41189575 353.73956909 -43.390625 352.859375 C-43.38496521 351.97719299 -43.37930542 351.09501099 -43.37347412 350.18609619 C-43.35111591 347.37350787 -43.30092132 344.56220205 -43.25 341.75 C-43.22993425 339.84116426 -43.21168361 337.93230851 -43.1953125 336.0234375 C-43.151253 331.34846555 -43.08222984 326.67445008 -43 322 C-43.91289795 322.02094727 -44.8257959 322.04189453 -45.76635742 322.06347656 C-49.16766535 322.13182717 -52.56823899 322.18188329 -55.9699707 322.21972656 C-57.43948921 322.23978825 -58.90892841 322.26704478 -60.37817383 322.30175781 C-62.49580487 322.35052141 -64.61237687 322.37302161 -66.73046875 322.390625 C-68.00301514 322.41157227 -69.27556152 322.43251953 -70.58666992 322.45410156 C-74.86154586 321.88538193 -76.34900527 321.44948712 -79 318 C-79.74889204 314.05445755 -79.70006625 310.16216028 -79.6640625 306.15625 C-79.66884613 304.9950061 -79.67362976 303.83376221 -79.67855835 302.6373291 C-79.68195991 300.18284755 -79.67273984 297.72832084 -79.65185547 295.27392578 C-79.62509694 291.5136223 -79.65159824 287.75630421 -79.68359375 283.99609375 C-79.6802897 281.61197257 -79.67388358 279.22785324 -79.6640625 276.84375 C-79.67418365 275.71763306 -79.68430481 274.59151611 -79.69473267 273.43127441 C-79.67897186 272.38338745 -79.66321106 271.33550049 -79.64697266 270.25585938 C-79.64299469 269.33526733 -79.63901672 268.41467529 -79.63491821 267.46618652 C-79 265 -79 265 -74 261 C-63.77 261 -53.54 261 -43 261 C-43 221.73 -43 182.46 -43 142 C-53.23 142 -63.46 142 -74 142 C-79 138 -79 138 -79.63491821 135.53381348 C-79.63889618 134.61322144 -79.64287415 133.69262939 -79.64697266 132.74414062 C-79.66273346 131.69625366 -79.67849426 130.6483667 -79.69473267 129.56872559 C-79.68461151 128.44260864 -79.67449036 127.3164917 -79.6640625 126.15625 C-79.66884613 124.9950061 -79.67362976 123.83376221 -79.67855835 122.6373291 C-79.68195991 120.18284755 -79.67273984 117.72832084 -79.65185547 115.27392578 C-79.62509694 111.5136223 -79.65159824 107.75630421 -79.68359375 103.99609375 C-79.6802897 101.61197257 -79.67388358 99.22785324 -79.6640625 96.84375 C-79.67418365 95.71763306 -79.68430481 94.59151611 -79.69473267 93.43127441 C-79.57925818 85.75373353 -79.57925818 85.75373353 -76.9128418 82.28417969 C-73.30249103 80.69249039 -70.67573536 80.54443234 -66.73046875 80.609375 C-65.70896477 80.61786469 -65.70896477 80.61786469 -64.66682434 80.62652588 C-62.50631355 80.64879519 -60.34750354 80.69896682 -58.1875 80.75 C-56.71682095 80.77007753 -55.24611571 80.78832611 -53.77539062 80.8046875 C-50.1830475 80.84862674 -46.59168994 80.91758544 -43 81 C-43.0628418 79.86159668 -43.12568359 78.72319336 -43.19042969 77.55029297 C-43.41028201 73.26111474 -43.54629941 68.97241241 -43.65917969 64.67919922 C-43.71894249 62.8339424 -43.80039755 60.98923926 -43.90527344 59.14599609 C-44.8431756 42.21778149 -44.8431756 42.21778149 -38.92523193 34.88735962 C-36.89185435 32.65690905 -34.77505442 30.55613617 -32.56143188 28.50526428 C-29.96674752 26.00391553 -27.7224401 23.21894685 -25.4375 20.4375 C-24.54313344 19.37766673 -23.64747777 18.3189187 -22.75 17.26171875 C-20.80448356 14.95844658 -18.86901986 12.64705047 -16.9375 10.33203125 C-16.43549072 9.73269775 -15.93348145 9.13336426 -15.41625977 8.51586914 C-14.45038488 7.36246432 -13.48720629 6.20679473 -12.52709961 5.04858398 C-8.4887252 0.23484168 -6.38122997 -0.638123 0 0 Z M-4 21 C-5.82742605 23.0382829 -7.60931943 25.09656248 -9.375 27.1875 C-9.85066406 27.74630859 -10.32632813 28.30511719 -10.81640625 28.88085938 C-11.8670028 30.11645815 -12.89699688 31.36976461 -13.90975475 32.6365633 C-16 35 -16 35 -18.72016621 37.24029064 C-25.31316506 43.32661316 -27.63709302 48.4131662 -28.221228 57.40846026 C-28.38624104 63.28939758 -28.37236667 69.15956643 -28.27672184 75.04083598 C-28.2288511 78.73728992 -28.24531924 82.43355669 -28.25364685 86.13023376 C-28.25939207 92.52189419 -28.22512351 98.91231166 -28.16303062 105.30365944 C-28.07331775 114.54404585 -28.04495318 123.78383629 -28.03116272 133.02461096 C-28.00713654 148.01975837 -27.93406644 163.01424448 -27.82983398 178.0090332 C-27.72873735 192.56791901 -27.65093765 207.12662468 -27.60424805 221.68579102 C-27.60135809 222.58444827 -27.59846813 223.48310553 -27.5954906 224.40899483 C-27.58113433 228.91766497 -27.56723375 233.42633639 -27.55355966 237.93500865 C-27.43967773 275.29049133 -27.24302297 312.64515062 -27 350 C-11.49 350 4.02 350 20 350 C20.20355093 311.71432097 20.36463659 273.42878447 20.45958797 235.142673 C20.47084403 230.62042367 20.48249296 226.09817543 20.49438477 221.57592773 C20.49674556 220.67564749 20.49910635 219.77536724 20.50153869 218.84780578 C20.54067734 204.27951628 20.6116254 189.71154713 20.69437516 175.14344754 C20.77860422 160.18996032 20.82854272 145.23664061 20.84679645 130.2829259 C20.85913234 121.05897516 20.89806076 111.83592993 20.9712482 102.61225799 C21.01890315 96.28315129 21.03318292 89.95451119 21.0215124 83.6252382 C21.01575966 79.97574965 21.0244369 76.32784066 21.07284927 72.67863464 C21.1250535 68.71447559 21.10682409 64.75235191 21.08229065 60.78788757 C21.10850622 59.64486244 21.1347218 58.50183731 21.16173178 57.32417506 C21.00854022 48.14361692 17.26779789 43.44790678 11 37 C10.1047597 35.98713358 9.21294245 34.97120293 8.328125 33.94921875 C7.64234375 33.20285156 6.9565625 32.45648438 6.25 31.6875 C3.76579365 28.96442765 1.32864015 26.23226824 -1 23.375 C-1.66 22.59125 -2.32 21.8075 -3 21 C-3.33 21 -3.66 21 -4 21 Z M116 21 C115.18208984 22.01707031 115.18208984 22.01707031 114.34765625 23.0546875 C109.75541318 28.72237894 105.07115873 34.23534724 100.140625 39.61328125 C99.43421875 40.40089844 98.7278125 41.18851563 98 42 C97.14325086 42.78787714 96.28650171 43.57575428 95.40379047 44.38750648 C91.60988961 49.00800651 92.32699175 54.48493526 92.39872742 60.18661499 C92.39445529 61.42497435 92.39018317 62.66333371 92.38578159 63.93921912 C92.37897532 67.36947265 92.39457612 70.79829621 92.41967189 74.22837663 C92.4412821 77.92973662 92.43395608 81.63105316 92.43016052 85.3324585 C92.42753988 91.74292824 92.44321546 98.15314335 92.47134972 104.56354904 C92.51200034 113.8318527 92.52500852 123.10003335 92.53128967 132.3684165 C92.54223042 147.40599979 92.57549861 162.4434474 92.62280273 177.48095703 C92.66870404 192.08772096 92.70409315 206.69444803 92.7253418 221.30126953 C92.72665541 222.20176585 92.72796903 223.10226218 92.72932246 224.03004627 C92.73584769 228.54761175 92.74216622 233.06517749 92.74838197 237.58274341 C92.80020812 275.05526192 92.88964431 312.52761152 93 350 C108.51 350 124.02 350 140 350 C140.22616637 311.58694915 140.40515091 273.17407367 140.51065329 234.76049073 C140.52316004 230.22321992 140.53610329 225.68595045 140.54931641 221.14868164 C140.55193951 220.24541078 140.55456261 219.34213992 140.55726521 218.41149721 C140.60075302 203.79466958 140.67958427 189.1782361 140.77152796 174.56164213 C140.86511493 159.55843897 140.92060279 144.55544193 140.94088495 129.55195886 C140.9545918 120.29720769 140.99784618 111.04357067 141.07916467 101.78916255 C141.13211376 95.439008 141.14798138 89.08942757 141.13501377 82.73906841 C141.12862144 79.07728527 141.13826395 75.41744557 141.19205475 71.75601006 C142.2482068 55.63553257 142.2482068 55.63553257 136.47839963 41.26938182 C134.48185956 39.2716285 132.30229025 37.62875746 130 36 C128.42403603 34.24916363 128.42403603 34.24916363 127.23046875 32.66015625 C126.55628906 31.80292969 125.88210937 30.94570312 125.1875 30.0625 C124.50042969 29.18722656 123.81335938 28.31195313 123.10546875 27.41015625 C120.93236477 24.92257712 118.63501454 22.98200919 116 21 Z M237 21 C230.71539624 27.73098683 224.62500109 34.52458503 218.875 41.72265625 C217 44 217 44 215.40588397 45.32350856 C213.47067636 47.63120896 213.62715295 49.11243133 213.63085651 52.10120678 C213.62488337 53.16264878 213.61891022 54.22409079 213.61275607 55.3176977 C213.6214946 56.48791651 213.63023312 57.65813532 213.63923645 58.86381531 C213.63667318 60.10369495 213.6341099 61.34357459 213.63146895 62.62102634 C213.62737261 66.06911473 213.63678299 69.51669558 213.65180314 72.96472275 C213.6647312 76.68045121 213.66037633 80.39616335 213.65809631 84.11190796 C213.65652153 90.55182821 213.66595212 96.99165744 213.68280983 103.43155479 C213.70716752 112.74260627 213.71500178 122.05361362 213.7187738 131.3646935 C213.72534337 146.47044889 213.74531822 161.57615574 213.77368164 176.68188477 C213.80120915 191.35766354 213.82244913 206.03342914 213.83520508 220.70922852 C213.83599325 221.61350001 213.83678142 222.51777149 213.83759347 223.44944515 C213.84150852 227.98580675 213.84529966 232.52216845 213.84902918 237.05853021 C213.88014082 274.70572246 213.93381467 312.35285428 214 350 C229.51 350 245.02 350 261 350 C261.22616757 311.71434363 261.40515155 273.42886324 261.51065329 235.142673 C261.52316003 230.62042346 261.53610329 226.09817526 261.54931641 221.57592773 C261.55193951 220.67564749 261.55456261 219.77536724 261.55726521 218.84780578 C261.60075272 204.27947639 261.6795838 189.71154248 261.77152796 175.14344754 C261.86511577 160.18996501 261.92060296 145.23668928 261.94088495 130.2829259 C261.95459163 121.05888257 261.99784505 111.83595712 262.07916467 102.61225799 C262.13211481 96.28312782 262.14798115 89.95457367 262.13501377 83.6252382 C262.12862159 79.97560411 262.13826205 76.32791993 262.19205475 72.67863464 C263.24218647 56.60006637 263.24218647 56.60006637 257.47839963 42.27384073 C255.48163798 40.27453255 253.30342768 38.62936591 251 37 C249.42403603 35.26481152 249.42403603 35.26481152 248.23046875 33.6953125 C244.6718526 29.2181243 241.10315374 24.99574134 237 21 Z M357 21 C351.36137736 26.80224339 346.22335878 33.07184507 341.140625 39.359375 C339 42 339 42 336.40379047 44.40337563 C332.60365743 49.01156429 333.32708459 54.49231485 333.39872742 60.18661499 C333.39445529 61.42497435 333.39018317 62.66333371 333.38578159 63.93921912 C333.37897532 67.36947265 333.39457612 70.79829621 333.41967189 74.22837663 C333.4412821 77.92973662 333.43395608 81.63105316 333.43016052 85.3324585 C333.42753988 91.74292824 333.44321546 98.15314335 333.47134972 104.56354904 C333.51200034 113.8318527 333.52500852 123.10003335 333.53128967 132.3684165 C333.54223042 147.40599979 333.57549861 162.4434474 333.62280273 177.48095703 C333.66870404 192.08772096 333.70409315 206.69444803 333.7253418 221.30126953 C333.72665541 222.20176585 333.72796903 223.10226218 333.72932246 224.03004627 C333.73584769 228.54761175 333.74216622 233.06517749 333.74838197 237.58274341 C333.80020812 275.05526192 333.88964431 312.52761152 334 350 C349.51 350 365.02 350 381 350 C381.29418948 311.78251361 381.52678881 273.56532621 381.66384928 235.34693431 C381.6801075 230.82983908 381.69693378 226.31274613 381.71411133 221.7956543 C381.71752136 220.89642329 381.7209314 219.99719229 381.72444477 219.07071186 C381.7809357 204.53080437 381.88339156 189.99156847 382.00298635 175.45205873 C382.12477152 160.52117437 382.19680906 145.59064051 382.22315043 130.65927988 C382.24094474 121.45333347 382.29703535 112.24928549 382.40291407 103.04392386 C382.47190004 96.72215532 382.49234249 90.40136087 382.47551791 84.07924371 C382.46722997 80.43668151 382.47946697 76.7974232 382.54967117 73.15545654 C383.28396581 54.70325502 383.28396581 54.70325502 374.76713562 39.09449768 C373.1104115 37.49559107 371.41828533 35.97909878 369.65999639 34.49300587 C366.85324897 31.96860859 364.58203667 29.01899851 362.25 26.0625 C360.85612427 24.35612632 359.447606 22.66103509 358 21 C357.67 21 357.34 21 357 21 Z M-63 98 C-63 106.91 -63 115.82 -63 125 C-56.4 125 -49.8 125 -43 125 C-43 116.09 -43 107.18 -43 98 C-49.6 98 -56.2 98 -63 98 Z M36 98 C36 106.91 36 115.82 36 125 C49.53 125 63.06 125 77 125 C77 116.09 77 107.18 77 98 C63.47 98 49.94 98 36 98 Z M157 98 C157 106.91 157 115.82 157 125 C170.2 125 183.4 125 197 125 C197 116.09 197 107.18 197 98 C183.8 98 170.6 98 157 98 Z M277 98 C277 106.91 277 115.82 277 125 C290.2 125 303.4 125 317 125 C317 116.09 317 107.18 317 98 C303.8 98 290.6 98 277 98 Z M397 98 C397 106.91 397 115.82 397 125 C403.6 125 410.2 125 417 125 C417 116.09 417 107.18 417 98 C410.4 98 403.8 98 397 98 Z M36 142 C36 181.27 36 220.54 36 261 C49.53 261 63.06 261 77 261 C77 221.73 77 182.46 77 142 C63.47 142 49.94 142 36 142 Z M157 142 C157 181.27 157 220.54 157 261 C170.2 261 183.4 261 197 261 C197 221.73 197 182.46 197 142 C183.8 142 170.6 142 157 142 Z M277 142 C277 181.27 277 220.54 277 261 C290.2 261 303.4 261 317 261 C317 221.73 317 182.46 317 142 C303.8 142 290.6 142 277 142 Z M-63 278 C-63 287.24 -63 296.48 -63 306 C-56.4 306 -49.8 306 -43 306 C-43 296.76 -43 287.52 -43 278 C-49.6 278 -56.2 278 -63 278 Z M36 278 C36 287.24 36 296.48 36 306 C49.53 306 63.06 306 77 306 C77 296.76 77 287.52 77 278 C63.47 278 49.94 278 36 278 Z M157 278 C157 287.24 157 296.48 157 306 C170.2 306 183.4 306 197 306 C197 296.76 197 287.52 197 278 C183.8 278 170.6 278 157 278 Z M277 278 C277 287.24 277 296.48 277 306 C290.2 306 303.4 306 317 306 C317 296.76 317 287.52 317 278 C303.8 278 290.6 278 277 278 Z M397 278 C397 287.24 397 296.48 397 306 C403.6 306 410.2 306 417 306 C417 296.76 417 287.52 417 278 C410.4 278 403.8 278 397 278 Z " fill="#000000" transform="translate(79,73)"/>
<path d="M0 0 C2.4375 2.125 2.4375 2.125 4 5 C3.94016186 8.47061229 3.67167343 10.88054428 1.875 13.875 C-1.03582092 15.62149255 -3.6431158 15.82332188 -7 16 C-9.64816011 15.21270916 -10.62884529 14.47719891 -12.3125 12.3125 C-13.31858949 8.92838082 -12.80442399 6.40333226 -12 3 C-8.79905159 -1.36492965 -4.94820661 -1.41377332 0 0 Z " fill="#000000" transform="translate(441,357)"/>
<path d="M0 0 C2.5 2.125 2.5 2.125 4 5 C4.07481382 9.26438773 3.64839572 11.23718151 0.875 14.5 C-2.97148295 16.50686067 -4.88546541 16.27176524 -9 15 C-11.5 12.875 -11.5 12.875 -13 10 C-13.07481382 5.73561227 -12.64839572 3.76281849 -9.875 0.5 C-6.02851705 -1.50686067 -4.11453459 -1.27176524 0 0 Z " fill="#000000" transform="translate(441,177)"/>
<path d="M0 0 C2.09807451 1.60819391 2.89374538 2.51919784 3.46875 5.12109375 C3.52369609 9.19397255 3.53066626 11.30350053 1 14.625 C-2.97957955 16.44897396 -5.86789833 16.37736722 -10 15 C-12.88247576 12.65798844 -12.97497895 11.20016837 -13.4375 7.5 C-13 4 -13 4 -11.1875 1.625 C-7.26095629 -1.29186104 -4.61536964 -1.15384241 0 0 Z " fill="#000000" transform="translate(321,357)"/>
<path d="M0 0 C2.16785449 1.61467783 2.90345696 2.47753178 3.3984375 5.15625 C3.39070313 5.9296875 3.38296875 6.703125 3.375 7.5 C3.38273437 8.2734375 3.39046875 9.046875 3.3984375 9.84375 C2.9039627 12.51973125 2.15859562 13.37980698 0 15 C-3.42794145 15.81024071 -5.92526221 16.34856361 -9.3125 15.25 C-11 14 -11 14 -13 11 C-13.67092652 4.84984026 -13.67092652 4.84984026 -11.125 1.625 C-7.11862281 -1.43870021 -4.92522917 -1.03689035 0 0 Z " fill="#000000" transform="translate(321,177)"/>
<path d="M0 0 C2.83333391 2.37634457 2.97885738 3.80266883 3.375 7.5 C2.82531646 12.63037975 2.82531646 12.63037975 0 15 C-3.97344161 16.10373378 -6.08999772 16.41543583 -9.875 14.6875 C-12 13 -12 13 -13 11 C-13.45723173 4.8273717 -13.45723173 4.8273717 -11.6875 1.625 C-8.08559885 -1.8434974 -4.55940718 -1.05843381 0 0 Z " fill="#000000" transform="translate(201,177)"/>
<path d="M0 0 C2.4375 1.625 2.4375 1.625 4 4 C4.56416593 7.9491615 4.65243688 10.0464384 2.375 13.375 C-0.56278062 15.38506043 -2.4396496 15.92733979 -6 16 C-8.32731556 14.86220128 -10.16840714 13.83159286 -12 12 C-12.43364388 8.94590807 -12.46321528 6.05083168 -12 3 C-8.42324245 -1.55223688 -5.38017918 -1.56514303 0 0 Z " fill="#000000" transform="translate(80,177)"/>
<path d="M0 0 C1.99301736 1.58066894 2.86543351 2.73086702 4 5 C4.27561452 8.16956698 4.27003767 10.37553788 3 13.3125 C-0.0521555 15.8877562 -3.06269924 16.29108449 -7 16 C-10 14.625 -10 14.625 -12 12 C-12.57798421 8.91556502 -12.67844531 6.06996501 -12 3 C-8.60300398 -1.33511992 -5.09128173 -1.27282043 0 0 Z " fill="#000000" transform="translate(80,357)"/>
<path d="M0 0 C2.50031654 3.75047482 2.53603554 5.55856266 2 10 C-0.44598887 13.38121991 -1.89296559 14.76936783 -6 15.625 C-10.10703441 14.76936783 -11.55401113 13.38121991 -14 10 C-14.5625 6.4375 -14.5625 6.4375 -14 3 C-9.77615444 -2.53469418 -6.25400943 -2.27418525 0 0 Z " fill="#000000" transform="translate(202,358)"/>
</svg>
