<svg xmlns="http://www.w3.org/2000/svg" xmlns:xlink="http://www.w3.org/1999/xlink" width="500" zoomAndPan="magnify" viewBox="0 0 375 374.999991" height="500" preserveAspectRatio="xMidYMid meet" version="1.0"><defs><clipPath id="bfe1ddaf53"><path d="M 23 106 L 352 106 L 352 340 L 23 340 Z M 23 106 " clip-rule="nonzero"/></clipPath><clipPath id="0ff02599e9"><path d="M 193.003906 108.3125 L 349.328125 219.066406 C 350.59375 219.960938 351.34375 221.417969 351.34375 222.96875 C 351.34375 224.519531 350.59375 225.972656 349.328125 226.871094 L 193.003906 337.625 C 189.707031 339.960938 185.289062 339.960938 181.992188 337.625 L 25.667969 226.871094 C 24.40625 225.972656 23.652344 224.519531 23.652344 222.96875 C 23.652344 221.417969 24.40625 219.960938 25.667969 219.066406 L 181.992188 108.3125 C 185.289062 105.972656 189.707031 105.972656 193.003906 108.3125 Z M 193.003906 108.3125 " clip-rule="nonzero"/></clipPath><clipPath id="862dfd3a38"><path d="M 129 33.46875 L 258 33.46875 L 258 190 L 129 190 Z M 129 33.46875 " clip-rule="nonzero"/></clipPath><clipPath id="0d38c25828"><path d="M 264 92 L 280.726562 92 L 280.726562 124 L 264 124 Z M 264 92 " clip-rule="nonzero"/></clipPath><clipPath id="f8b809037c"><path d="M 239 225 L 265 225 L 265 246.46875 L 239 246.46875 Z M 239 225 " clip-rule="nonzero"/></clipPath><clipPath id="cd782686d1"><path d="M 122 225 L 147 225 L 147 246.46875 L 122 246.46875 Z M 122 225 " clip-rule="nonzero"/></clipPath><clipPath id="6be7c54f4a"><path d="M 132.710938 99.050781 L 260.746094 99.050781 L 260.746094 226.09375 L 132.710938 226.09375 Z M 132.710938 99.050781 " clip-rule="nonzero"/></clipPath><clipPath id="5ae93ea799"><path d="M 149.960938 99.050781 L 243.050781 99.050781 C 247.625 99.050781 252.011719 100.867188 255.246094 104.105469 C 258.484375 107.339844 260.300781 111.726562 260.300781 116.300781 L 260.300781 208.84375 C 260.300781 213.417969 258.484375 217.804688 255.246094 221.039062 C 252.011719 224.277344 247.625 226.09375 243.050781 226.09375 L 149.960938 226.09375 C 145.386719 226.09375 141 224.277344 137.765625 221.039062 C 134.53125 217.804688 132.710938 213.417969 132.710938 208.84375 L 132.710938 116.300781 C 132.710938 111.726562 134.53125 107.339844 137.765625 104.105469 C 141 100.867188 145.386719 99.050781 149.960938 99.050781 Z M 149.960938 99.050781 " clip-rule="nonzero"/></clipPath><clipPath id="2cd108c09c"><path d="M 0.710938 0.0507812 L 128.398438 0.0507812 L 128.398438 127.09375 L 0.710938 127.09375 Z M 0.710938 0.0507812 " clip-rule="nonzero"/></clipPath><clipPath id="290652e48c"><path d="M 17.960938 0.0507812 L 111.050781 0.0507812 C 115.625 0.0507812 120.011719 1.867188 123.246094 5.105469 C 126.484375 8.339844 128.300781 12.726562 128.300781 17.300781 L 128.300781 109.84375 C 128.300781 114.417969 126.484375 118.804688 123.246094 122.039062 C 120.011719 125.277344 115.625 127.09375 111.050781 127.09375 L 17.960938 127.09375 C 13.386719 127.09375 9 125.277344 5.765625 122.039062 C 2.53125 118.804688 0.710938 114.417969 0.710938 109.84375 L 0.710938 17.300781 C 0.710938 12.726562 2.53125 8.339844 5.765625 5.105469 C 9 1.867188 13.386719 0.0507812 17.960938 0.0507812 Z M 17.960938 0.0507812 " clip-rule="nonzero"/></clipPath><clipPath id="9c8625884f"><rect x="0" width="129" y="0" height="128"/></clipPath><clipPath id="f4f4e89cb5"><path d="M 111.496094 95 L 127 95 L 127 125 L 111.496094 125 Z M 111.496094 95 " clip-rule="nonzero"/></clipPath><clipPath id="2f22009cd1"><path d="M 133 40.199219 L 254 40.199219 L 254 187 L 133 187 Z M 133 40.199219 " clip-rule="nonzero"/></clipPath><clipPath id="475d26f740"><path d="M 259 95 L 274.996094 95 L 274.996094 125 L 259 125 Z M 259 95 " clip-rule="nonzero"/></clipPath><clipPath id="1da9f0587d"><path d="M 236 220 L 260 220 L 260 239.699219 L 236 239.699219 Z M 236 220 " clip-rule="nonzero"/></clipPath><clipPath id="7f1fc8027b"><path d="M 126 220 L 150 220 L 150 239.699219 L 126 239.699219 Z M 126 220 " clip-rule="nonzero"/></clipPath></defs><g clip-path="url(#bfe1ddaf53)"><g clip-path="url(#0ff02599e9)"><path stroke-linecap="butt" transform="matrix(0.75, 0, 0, 0.75, 20.162325, 104.408871)" fill="none" stroke-linejoin="miter" d="M 230.455457 5.204839 L 438.887762 152.876724 C 440.575262 154.069432 441.575262 156.012141 441.575262 158.079849 C 441.575262 160.147558 440.575262 162.085058 438.887762 163.282975 L 230.455457 310.954859 C 226.059623 314.069443 220.168998 314.069443 215.773164 310.954859 L 7.340859 163.282975 C 5.658567 162.085058 4.653359 160.147558 4.653359 158.079849 C 4.653359 156.012141 5.658567 154.069432 7.340859 152.876724 L 215.773164 5.204839 C 220.168998 2.085047 226.059623 2.085047 230.455457 5.204839 Z M 230.455457 5.204839 " stroke="#000000" stroke-width="32" stroke-opacity="1" stroke-miterlimit="4"/></g></g><path stroke-linecap="butt" transform="matrix(0.225951, 0.715155, -0.715155, 0.225951, 155.282322, 154.663262)" fill="none" stroke-linejoin="miter" d="M 8.065693 86.622554 C 101.557354 -14.208602 154.894469 -14.207514 168.067106 86.622677 " stroke="#000000" stroke-width="22" stroke-opacity="1" stroke-miterlimit="4"/><path stroke-linecap="butt" transform="matrix(-0.747603, -0.0599163, 0.0599163, -0.747603, 229.660799, 298.315058)" fill="none" stroke-linejoin="miter" d="M 6.311749 25.674989 C 34.228282 6.106192 62.140774 6.110695 90.053169 25.672509 " stroke="#000000" stroke-width="22" stroke-opacity="1" stroke-miterlimit="4"/><path stroke-linecap="butt" transform="matrix(-0.374284, 0.649932, -0.649932, -0.374284, 305.112964, 186.128337)" fill="none" stroke-linejoin="miter" d="M 8.420446 7.074657 C 73.448961 84.499744 127.545849 84.497446 170.709195 7.074876 " stroke="#000000" stroke-width="22" stroke-opacity="1" stroke-miterlimit="4"/><path fill="#ffffff" d="M 124.4375 167.21875 C 124.4375 165.1875 126.246094 163.65625 128.253906 163.949219 C 134.398438 164.851562 139.328125 167.8125 145 171.96875 C 146.082031 172.761719 146.878906 173.890625 147.261719 175.179688 L 149.507812 182.765625 C 149.652344 183.25 149.242188 183.710938 148.746094 183.628906 L 126.816406 179.90625 C 125.441406 179.671875 124.4375 178.484375 124.4375 177.089844 Z M 160.800781 189.027344 L 160.601562 188.566406 C 153.992188 173.144531 151.296875 166.847656 148.714844 160.820312 C 147.890625 158.902344 146.640625 157.199219 145.058594 155.835938 L 128.625 141.683594 C 128.625 141.683594 119.617188 155.761719 119.691406 183.128906 L 120.105469 183.1875 C 145.800781 186.875 156.414062 188.398438 160.800781 189.027344 " fill-opacity="1" fill-rule="nonzero"/><path fill="#ffffff" d="M 129.050781 128.308594 L 129.035156 128.796875 C 129.042969 128.53125 129.050781 128.332031 129.054688 128.140625 L 129.050781 128.308594 " fill-opacity="1" fill-rule="nonzero"/><path fill="#ffffff" d="M 262.074219 167.21875 L 262.074219 177.089844 C 262.074219 178.484375 261.070312 179.671875 259.699219 179.90625 L 237.765625 183.628906 C 237.273438 183.710938 236.859375 183.25 237.003906 182.765625 L 239.25 175.179688 C 239.632812 173.890625 240.429688 172.761719 241.511719 171.96875 C 247.183594 167.8125 252.113281 164.851562 258.257812 163.949219 C 260.265625 163.65625 262.074219 165.1875 262.074219 167.21875 Z M 241.453125 155.835938 C 239.871094 157.199219 238.621094 158.902344 237.800781 160.820312 C 235.214844 166.847656 232.519531 173.144531 225.910156 188.566406 L 225.714844 189.027344 C 230.09375 188.398438 240.707031 186.875 266.410156 183.1875 L 266.820312 183.128906 C 266.894531 155.761719 257.890625 141.683594 257.890625 141.683594 L 241.453125 155.835938 " fill-opacity="1" fill-rule="nonzero"/><path fill="#ffffff" d="M 122.054688 119.832031 L 122.054688 94.941406 C 122.054688 93.777344 120.917969 92.835938 119.507812 92.835938 L 110.042969 92.835938 C 108.566406 92.835938 107.363281 93.796875 107.304688 95.011719 L 106.121094 120.210938 C 106.066406 121.402344 106.882812 122.445312 108.085938 122.933594 C 108.554688 123.128906 109.082031 123.234375 109.640625 123.234375 C 119.390625 123.234375 116.011719 123.234375 117.945312 123.234375 C 120.214844 123.234375 122.054688 121.710938 122.054688 119.832031 " fill-opacity="1" fill-rule="nonzero"/><path fill="#ffffff" d="M 193.257812 192.097656 L 163.511719 192.097656 C 163.496094 192.097656 162.601562 191.96875 119.726562 185.820312 C 120.171875 204.339844 122.378906 216.519531 123.925781 222.929688 C 124.699219 226.128906 127.554688 228.382812 130.84375 228.382812 L 255.667969 228.382812 C 258.957031 228.382812 261.8125 226.128906 262.585938 222.929688 C 264.136719 216.519531 266.34375 204.339844 266.785156 185.820312 C 223.914062 191.96875 223.015625 192.097656 223 192.097656 L 193.257812 192.097656 " fill-opacity="1" fill-rule="nonzero"/><g clip-path="url(#862dfd3a38)"><path fill="#ffffff" d="M 136.296875 93.796875 C 136.296875 88.929688 140.242188 84.984375 145.109375 84.984375 L 241.402344 84.984375 C 246.269531 84.984375 250.214844 88.929688 250.214844 93.796875 L 250.214844 121.273438 C 232.089844 118.484375 154.421875 118.484375 136.296875 121.273438 Z M 228.078125 156.105469 L 228.085938 156.074219 L 158.429688 156.074219 C 158.230469 154.664062 158.019531 153.183594 157.800781 151.625 L 168.265625 150.054688 L 218.246094 150.054688 L 228.714844 151.625 C 228.492188 153.195312 228.28125 154.683594 228.078125 156.105469 Z M 226.554688 166.90625 L 159.957031 166.90625 C 159.652344 164.742188 159.308594 162.320312 158.925781 159.605469 L 227.585938 159.605469 C 227.203125 162.320312 226.863281 164.742188 226.554688 166.90625 Z M 225.027344 177.734375 L 161.484375 177.734375 C 161.164062 175.46875 160.457031 170.4375 160.457031 170.4375 L 226.058594 170.4375 C 226.058594 170.4375 225.347656 175.46875 225.027344 177.734375 Z M 223.5 188.566406 L 163.011719 188.566406 C 162.691406 186.277344 161.984375 181.269531 161.984375 181.269531 L 224.527344 181.269531 C 224.527344 181.269531 223.824219 186.277344 223.5 188.566406 Z M 149.816406 144.144531 L 152.023438 146.175781 C 152.914062 146.996094 153.523438 148.082031 153.753906 149.269531 C 157.007812 165.9375 159.128906 176.785156 161.425781 188.566406 L 161.539062 189.128906 C 162.878906 189.324219 163.453125 189.40625 163.703125 189.441406 L 222.8125 189.441406 C 223.050781 189.40625 223.628906 189.324219 224.976562 189.128906 L 225.085938 188.566406 C 227.382812 176.785156 229.507812 165.9375 232.761719 149.269531 C 232.992188 148.082031 233.597656 146.996094 234.488281 146.175781 L 236.695312 144.144531 L 257.199219 125.265625 L 257.363281 125.257812 L 256.058594 84.375 L 250.832031 47.992188 C 249.765625 40.566406 243.554688 34.957031 236.058594 34.644531 C 207.539062 33.464844 178.976562 33.464844 150.453125 34.644531 C 142.957031 34.957031 136.746094 40.566406 135.679688 47.992188 L 130.453125 84.375 L 129.148438 125.257812 L 129.316406 125.265625 L 149.816406 144.144531 " fill-opacity="1" fill-rule="nonzero"/></g><g clip-path="url(#0d38c25828)"><path fill="#ffffff" d="M 280.390625 120.210938 L 279.207031 95.011719 C 279.148438 93.796875 277.945312 92.835938 276.46875 92.835938 L 267.007812 92.835938 C 265.59375 92.835938 264.457031 93.777344 264.457031 94.941406 L 264.457031 119.832031 C 264.457031 121.710938 266.296875 123.234375 268.570312 123.234375 C 270.496094 123.234375 267.121094 123.234375 276.875 123.234375 C 277.429688 123.234375 277.957031 123.128906 278.425781 122.9375 C 279.632812 122.449219 280.445312 121.402344 280.390625 120.210938 " fill-opacity="1" fill-rule="nonzero"/></g><g clip-path="url(#f8b809037c)"><path fill="#ffffff" d="M 255.667969 231.039062 L 239.570312 231.039062 L 239.570312 243.097656 C 239.570312 244.894531 241.03125 246.351562 242.828125 246.351562 L 261.203125 246.351562 C 263 246.351562 264.457031 244.894531 264.457031 243.097656 L 264.457031 225.542969 C 262.847656 228.859375 259.480469 231.039062 255.667969 231.039062 " fill-opacity="1" fill-rule="nonzero"/></g><g clip-path="url(#cd782686d1)"><path fill="#ffffff" d="M 122.054688 225.542969 L 122.054688 243.097656 C 122.054688 244.894531 123.511719 246.351562 125.3125 246.351562 L 143.683594 246.351562 C 145.484375 246.351562 146.941406 244.894531 146.941406 243.097656 L 146.941406 231.039062 L 130.84375 231.039062 C 127.035156 231.039062 123.664062 228.859375 122.054688 225.542969 " fill-opacity="1" fill-rule="nonzero"/></g><path fill="#ffffff" d="M 265.425781 125.199219 L 260.085938 127.285156 L 260.171875 129.902344 L 260.285156 133.394531 L 273.4375 125.890625 L 268.570312 125.890625 C 267.4375 125.890625 266.367188 125.640625 265.425781 125.199219 " fill-opacity="1" fill-rule="nonzero"/><path fill="#ffffff" d="M 126.425781 127.285156 L 121.085938 125.199219 C 120.144531 125.640625 119.078125 125.890625 117.945312 125.890625 L 113.074219 125.890625 L 126.230469 133.394531 L 126.425781 127.285156 " fill-opacity="1" fill-rule="nonzero"/><g clip-path="url(#6be7c54f4a)"><g clip-path="url(#5ae93ea799)"><g transform="matrix(1, 0, 0, 1, 132, 99)"><g clip-path="url(#9c8625884f)"><g clip-path="url(#2cd108c09c)"><g clip-path="url(#290652e48c)"><path fill="#ffffff" d="M 0.710938 0.0507812 L 128.25 0.0507812 L 128.25 127.09375 L 0.710938 127.09375 Z M 0.710938 0.0507812 " fill-opacity="1" fill-rule="nonzero"/></g></g></g></g></g></g><path fill="#000000" d="M 128.789062 165.542969 C 128.789062 163.640625 130.484375 162.203125 132.363281 162.480469 C 138.117188 163.324219 142.734375 166.101562 148.046875 169.992188 C 149.0625 170.738281 149.808594 171.796875 150.164062 173.003906 L 152.273438 180.113281 C 152.40625 180.566406 152.019531 181 151.554688 180.921875 L 131.015625 177.433594 C 129.730469 177.214844 128.789062 176.097656 128.789062 174.792969 Z M 162.847656 185.980469 L 162.660156 185.550781 C 156.472656 171.09375 153.945312 165.195312 151.527344 159.546875 C 150.757812 157.75 149.585938 156.152344 148.105469 154.875 L 132.710938 141.613281 C 132.710938 141.613281 124.273438 154.804688 124.34375 180.453125 L 124.730469 180.507812 C 148.796875 183.964844 158.738281 185.390625 162.847656 185.980469 " fill-opacity="1" fill-rule="nonzero"/><path fill="#000000" d="M 133.109375 129.078125 L 133.09375 129.535156 C 133.101562 129.289062 133.109375 129.097656 133.113281 128.921875 L 133.109375 129.078125 " fill-opacity="1" fill-rule="nonzero"/><path fill="#000000" d="M 257.703125 165.542969 L 257.703125 174.792969 C 257.703125 176.097656 256.761719 177.214844 255.476562 177.433594 L 234.9375 180.921875 C 234.472656 181 234.085938 180.566406 234.21875 180.113281 L 236.324219 173.003906 C 236.683594 171.796875 237.429688 170.738281 238.445312 169.992188 C 243.753906 166.101562 248.375 163.324219 254.128906 162.480469 C 256.007812 162.203125 257.703125 163.640625 257.703125 165.542969 Z M 238.386719 154.875 C 236.90625 156.152344 235.734375 157.75 234.964844 159.546875 C 232.546875 165.195312 230.019531 171.09375 223.832031 185.550781 L 223.644531 185.980469 C 227.75 185.390625 237.691406 183.964844 261.761719 180.507812 L 262.148438 180.453125 C 262.21875 154.808594 253.78125 141.613281 253.78125 141.613281 L 238.386719 154.875 " fill-opacity="1" fill-rule="nonzero"/><g clip-path="url(#f4f4e89cb5)"><path fill="#000000" d="M 126.558594 121.136719 L 126.558594 97.808594 C 126.558594 96.71875 125.492188 95.835938 124.171875 95.835938 L 115.304688 95.835938 C 113.925781 95.835938 112.796875 96.738281 112.742188 97.875 L 111.632812 121.492188 C 111.582031 122.605469 112.347656 123.585938 113.476562 124.042969 C 113.914062 124.222656 114.40625 124.324219 114.929688 124.324219 C 124.0625 124.324219 120.898438 124.324219 122.707031 124.324219 C 124.832031 124.324219 126.558594 122.898438 126.558594 121.136719 " fill-opacity="1" fill-rule="nonzero"/></g><path fill="#000000" d="M 193.246094 188.859375 L 165.386719 188.859375 C 165.375 188.859375 164.53125 188.738281 124.375 182.972656 C 124.792969 200.332031 126.859375 211.742188 128.308594 217.75 C 129.035156 220.75 131.707031 222.863281 134.789062 222.863281 L 251.703125 222.863281 C 254.785156 222.863281 257.457031 220.75 258.179688 217.75 C 259.632812 211.742188 261.699219 200.332031 262.113281 182.972656 C 221.960938 188.738281 221.117188 188.859375 221.105469 188.859375 L 193.246094 188.859375 " fill-opacity="1" fill-rule="nonzero"/><g clip-path="url(#2f22009cd1)"><path fill="#000000" d="M 139.898438 96.734375 C 139.898438 92.175781 143.59375 88.480469 148.148438 88.480469 L 238.34375 88.480469 C 242.898438 88.480469 246.59375 92.175781 246.59375 96.734375 L 246.59375 122.484375 C 229.617188 119.875 156.875 119.875 139.898438 122.484375 Z M 225.863281 155.128906 L 225.867188 155.097656 L 160.625 155.097656 C 160.4375 153.777344 160.242188 152.390625 160.035156 150.929688 L 169.839844 149.457031 L 216.652344 149.457031 L 226.457031 150.929688 C 226.25 152.402344 226.050781 153.796875 225.863281 155.128906 Z M 224.433594 165.25 L 162.058594 165.25 C 161.769531 163.222656 161.449219 160.953125 161.09375 158.410156 L 225.398438 158.410156 C 225.039062 160.953125 224.722656 163.222656 224.433594 165.25 Z M 223.003906 175.398438 L 163.488281 175.398438 C 163.1875 173.277344 162.523438 168.558594 162.523438 168.558594 L 223.96875 168.558594 C 223.96875 168.558594 223.304688 173.277344 223.003906 175.398438 Z M 221.574219 185.546875 L 164.917969 185.546875 C 164.617188 183.40625 163.957031 178.710938 163.957031 178.710938 L 222.535156 178.710938 C 222.535156 178.710938 221.875 183.40625 221.574219 185.546875 Z M 152.558594 143.917969 L 154.628906 145.824219 C 155.460938 146.59375 156.03125 147.609375 156.246094 148.722656 C 159.292969 164.339844 161.28125 174.507812 163.433594 185.546875 L 163.539062 186.078125 C 164.792969 186.257812 165.332031 186.335938 165.5625 186.371094 L 220.929688 186.371094 C 221.152344 186.335938 221.691406 186.261719 222.953125 186.078125 L 223.058594 185.546875 C 225.210938 174.507812 227.199219 164.339844 230.246094 148.722656 C 230.460938 147.609375 231.03125 146.59375 231.863281 145.824219 L 233.933594 143.917969 L 253.136719 126.226562 L 253.289062 126.222656 L 252.066406 87.910156 L 247.171875 53.8125 C 246.175781 46.851562 240.359375 41.59375 233.335938 41.304688 C 206.621094 40.199219 179.871094 40.199219 153.15625 41.304688 C 146.132812 41.59375 140.316406 46.851562 139.320312 53.8125 L 134.425781 87.910156 L 133.203125 126.222656 L 133.355469 126.226562 L 152.558594 143.917969 " fill-opacity="1" fill-rule="nonzero"/></g><g clip-path="url(#475d26f740)"><path fill="#000000" d="M 274.859375 121.492188 L 273.75 97.875 C 273.695312 96.738281 272.566406 95.835938 271.183594 95.835938 L 262.320312 95.835938 C 261 95.835938 259.933594 96.71875 259.933594 97.808594 L 259.933594 121.136719 C 259.933594 122.898438 261.65625 124.324219 263.785156 124.324219 C 265.589844 124.324219 262.429688 124.324219 271.5625 124.324219 C 272.085938 124.324219 272.578125 124.222656 273.015625 124.042969 C 274.144531 123.585938 274.910156 122.605469 274.859375 121.492188 " fill-opacity="1" fill-rule="nonzero"/></g><g clip-path="url(#1da9f0587d)"><path fill="#000000" d="M 251.703125 225.351562 L 236.625 225.351562 L 236.625 236.652344 C 236.625 238.335938 237.992188 239.699219 239.675781 239.699219 L 256.882812 239.699219 C 258.566406 239.699219 259.933594 238.335938 259.933594 236.652344 L 259.933594 220.203125 C 258.425781 223.308594 255.273438 225.351562 251.703125 225.351562 " fill-opacity="1" fill-rule="nonzero"/></g><g clip-path="url(#7f1fc8027b)"><path fill="#000000" d="M 126.558594 220.203125 L 126.558594 236.652344 C 126.558594 238.335938 127.921875 239.699219 129.609375 239.699219 L 146.816406 239.699219 C 148.5 239.699219 149.867188 238.335938 149.867188 236.652344 L 149.867188 225.351562 L 134.789062 225.351562 C 131.21875 225.351562 128.066406 223.308594 126.558594 220.203125 " fill-opacity="1" fill-rule="nonzero"/></g><path fill="#000000" d="M 260.84375 126.164062 L 255.839844 128.117188 L 255.921875 130.574219 L 256.023438 133.847656 L 268.347656 126.8125 L 263.785156 126.8125 C 262.722656 126.8125 261.722656 126.578125 260.84375 126.164062 " fill-opacity="1" fill-rule="nonzero"/><path fill="#000000" d="M 130.648438 128.117188 L 125.648438 126.164062 C 124.769531 126.578125 123.769531 126.8125 122.707031 126.8125 L 118.144531 126.8125 L 130.46875 133.847656 L 130.648438 128.117188 " fill-opacity="1" fill-rule="nonzero"/></svg>