<?xml version="1.0" encoding="UTF-8"?>
<svg version="1.1" xmlns="http://www.w3.org/2000/svg" width="512" height="512">
<path d="M0 0 C3.49760506 1.41565021 5.90817443 4.2845377 8.52940559 6.91847992 C9.17533165 7.55593643 9.82125771 8.19339294 10.48675728 8.85016632 C12.6204397 10.96044032 14.74272862 13.08174626 16.86412239 15.20436859 C18.34024174 16.6733903 19.81666078 18.14211092 21.29336739 19.6105423 C24.38605582 22.68977817 27.47273235 25.77489798 30.55577278 28.86379242 C34.51490651 32.82883212 38.49200621 36.77529527 42.47422695 40.71712971 C45.52736712 43.74447602 48.56902008 46.78316073 51.60746002 49.82525444 C53.06960661 51.28570295 54.53576135 52.74214969 56.00590134 54.19455147 C58.0557623 56.22238162 60.08924628 58.26532898 62.11924934 60.31301117 C62.73370918 60.91420776 63.34816902 61.51540436 63.98124886 62.13481903 C65.64239693 63.82993317 65.64239693 63.82993317 68.00084114 66.80983734 C67.53882801 70.993031 65.25108091 72.90541026 62.30943489 75.79421234 C61.84473289 76.25466949 61.3800309 76.71512665 60.90124702 77.18953705 C59.42052295 78.65351545 57.92969595 80.10669775 56.43834114 81.55983734 C55.4304945 82.55263183 54.42332481 83.54611404 53.41685677 84.54030609 C50.95264653 86.97150207 48.47926785 89.39312602 46.00084114 91.80983734 C41.71016568 90.15747083 38.85788585 86.91931664 35.70396614 83.70827484 C35.11033272 83.11181152 34.5166993 82.51534821 33.90507698 81.90081024 C32.01557487 80.00013924 30.13315722 78.0926226 28.25084114 76.18483734 C26.96875049 74.89271266 25.68620353 73.60104058 24.40318489 72.30983734 C21.26375682 69.14839256 18.13066313 65.98079125 15.00084114 62.80983734 C14.88603401 63.62323578 14.77122688 64.43663422 14.65294075 65.27468109 C7.6749509 113.76267697 -9.10940019 157.82216375 -41.99915886 194.80983734 C-42.61017448 195.53042328 -43.22119011 196.25100922 -43.85072136 196.99343109 C-52.0044359 206.59626552 -61.06027531 215.08574678 -70.99915886 222.80983734 C-72.41841667 223.91972015 -72.41841667 223.91972015 -73.86634636 225.05202484 C-81.30706972 230.75592153 -88.99883386 235.93473848 -96.99915886 240.80983734 C-97.60711296 241.18108734 -98.21506706 241.55233734 -98.84144402 241.93483734 C-133.50422831 262.8468706 -174.55125452 273.89326335 -214.99915886 272.80983734 C-214.99915886 261.91983734 -214.99915886 251.02983734 -214.99915886 239.80983734 C-208.44040886 239.19108734 -208.44040886 239.19108734 -201.74915886 238.55983734 C-156.29736645 233.91693953 -115.21843455 217.84029874 -81.71009636 186.32936859 C-79.46229204 184.24027092 -77.17365448 182.26571909 -74.81165886 180.30983734 C-69.89018248 176.01620363 -65.97871848 170.96517595 -61.99915886 165.80983734 C-61.57763542 165.27390961 -61.15611198 164.73798187 -60.72181511 164.1858139 C-42.80481109 141.31106322 -30.51462803 115.05877925 -23.68665886 86.87233734 C-23.52721794 86.22337494 -23.36777702 85.57441254 -23.20350456 84.90578461 C-21.8845231 79.13733229 -21.54867938 73.8545631 -20.99915886 67.80983734 C-28.91915886 75.72983734 -36.83915886 83.64983734 -44.99915886 91.80983734 C-50.78975255 88.9145405 -54.74840221 84.46947426 -59.31165886 79.93483734 C-60.25589714 79.02347015 -61.20013542 78.11210297 -62.17298698 77.17311859 C-63.06050652 76.2926889 -63.94802605 75.41225922 -64.86244011 74.50514984 C-65.68010857 73.70093597 -66.49777702 72.89672211 -67.34022331 72.06813812 C-68.99915886 69.80983734 -68.99915886 69.80983734 -68.76527691 67.85577869 C-67.43608572 64.30613356 -64.53169203 61.90970267 -61.89051628 59.28127289 C-61.25305977 58.63534683 -60.61560326 57.98942078 -59.95882988 57.3239212 C-57.84855588 55.19023878 -55.72724994 53.06794986 -53.60462761 50.94655609 C-52.1356059 49.47043674 -50.66688528 47.99401771 -49.1984539 46.5173111 C-46.11921803 43.42462267 -43.03409822 40.33794613 -39.94520378 37.2549057 C-35.98016409 33.29577197 -32.03370093 29.31867228 -28.09186649 25.33645153 C-25.06452018 22.28331136 -22.02583547 19.2416584 -18.98374176 16.20321846 C-17.52329325 14.74107187 -16.06684651 13.27491713 -14.61444473 11.80477715 C-12.58661458 9.75491618 -10.54366722 7.7214322 -8.49598503 5.69142914 C-7.89478844 5.0769693 -7.29359184 4.46250946 -6.67417717 3.82942963 C-2.52167608 -0.23986519 -2.52167608 -0.23986519 0 0 Z " fill="#000000" transform="translate(443.99915885925293,221.1901626586914)"/>
<path d="M0 0 C11.22 0 22.44 0 34 0 C34.33 12.54 34.66 25.08 35 38 C39.1146875 36.205625 39.1146875 36.205625 43.3125 34.375 C98.61604789 10.89883752 162.62289197 9.87780196 218.5222168 32.25976562 C243.69784961 42.65355649 267.1256207 56.20091361 287 75 C288.36981522 76.19347707 289.74464217 77.38123224 291.125 78.5625 C298.9320777 85.39956003 305.52966839 92.89782109 312 101 C312.65871094 101.79148437 313.31742187 102.58296875 313.99609375 103.3984375 C319.90589146 110.55678402 324.93637643 118.23514973 330 126 C330.66 126.99 331.32 127.98 332 129 C332 129.99 332 130.98 332 132 C328.35416552 134.12144111 324.70625918 136.23926011 321.05639648 138.35375977 C319.81526153 139.07347212 318.57469637 139.79416802 317.3347168 140.51586914 C315.55146078 141.55354275 313.76618003 142.58765249 311.98046875 143.62109375 C310.90692139 144.2442749 309.83337402 144.86745605 308.72729492 145.50952148 C306 147 306 147 303 148 C302.69408936 147.52804199 302.38817871 147.05608398 302.07299805 146.56982422 C288.46057669 125.65064234 273.52124565 105.72391141 253 91 C252.02160156 90.28972656 251.04320312 89.57945313 250.03515625 88.84765625 C225.63000437 71.54218492 199.4150114 59.84349695 170 54 C169.17870605 53.83483887 168.35741211 53.66967773 167.51123047 53.49951172 C146.24799026 49.40603107 123.33503074 49.25999461 102 53 C100.8872168 53.19335938 100.8872168 53.19335938 99.75195312 53.390625 C87.74479597 55.53582429 76.5015534 58.9514532 65 63 C81.335 63.495 81.335 63.495 98 64 C98 75.22 98 86.44 98 98 C65.66 98 33.32 98 0 98 C0 65.66 0 33.32 0 0 Z " fill="#000000" transform="translate(96,18)"/>
<path d="M0 0 C3.7071795 0.52449013 6.63699094 2.33523467 9.859375 4.16015625 C10.97441406 4.78857422 12.08945312 5.41699219 13.23828125 6.06445312 C14.40891243 6.73036633 15.57948461 7.39638327 16.75 8.0625 C17.93595253 8.73285619 19.12214793 9.40278289 20.30859375 10.07226562 C23.20814787 11.71063157 26.10514351 13.35335242 29 15 C27.90166453 18.43115867 26.76942427 21.69601636 25.1171875 24.8984375 C16.03022093 42.98870443 9.57039099 62.06126339 6 82 C5.77570312 83.17949219 5.55140625 84.35898438 5.3203125 85.57421875 C0.52062118 115.98322195 4.33191617 147.97105355 14 177 C14.22913086 177.70092773 14.45826172 178.40185547 14.69433594 179.12402344 C25.31047562 211.06489074 45.86283662 241.6350715 72 263 C72.33 263.33 72.66 263.66 73 264 C73.33 250.47 73.66 236.94 74 223 C85.22 223 96.44 223 108 223 C108 255.34 108 287.68 108 321 C75.66 321 43.32 321 10 321 C10 310.11 10 299.22 10 288 C22.21 287.67 34.42 287.34 47 287 C42.05 282.05 42.05 282.05 37 277 C10.89524493 250.89524493 -9.26852241 219.57129364 -20 184 C-20.33354492 182.90099365 -20.33354492 182.90099365 -20.67382812 181.77978516 C-27.33858515 159.50221769 -30.40722468 137.52887081 -30.3125 114.3125 C-30.31067719 113.38490875 -30.30885437 112.4573175 -30.30697632 111.50161743 C-30.26267922 98.1188435 -29.87114218 85.11761838 -27 72 C-26.82839355 71.1642041 -26.65678711 70.3284082 -26.47998047 69.46728516 C-15.23575561 15.23575561 -15.23575561 15.23575561 0 0 Z " fill="#000000" transform="translate(30,150)"/>
</svg>
