<svg xmlns="http://www.w3.org/2000/svg" xmlns:xlink="http://www.w3.org/1999/xlink" width="500" zoomAndPan="magnify" viewBox="0 0 375 374.999991" height="500" preserveAspectRatio="xMidYMid meet" version="1.0"><defs><clipPath id="77e86300aa"><path d="M 0 91.875 L 375 91.875 L 375 283 L 0 283 Z M 0 91.875 " clip-rule="nonzero"/></clipPath></defs><g clip-path="url(#77e86300aa)"><path fill="#000000" d="M 89.070312 264.300781 C 87.074219 267.449219 84.691406 269.984375 81.003906 270.601562 L 14.078125 281.433594 C 12 281.742188 9.851562 282.125 7.777344 282.433594 C 5.699219 282.742188 3.625 283.125 1.9375 281.511719 C 0.246094 279.820312 0.246094 277.054688 1.9375 275.363281 L 93.144531 184.234375 L 184.195312 93.335938 C 185.042969 92.414062 186.195312 91.875 187.5 91.875 C 188.804688 91.875 189.882812 92.414062 190.804688 93.335938 L 281.855469 184.234375 L 373.0625 275.363281 C 374.753906 277.054688 374.753906 279.820312 373.0625 281.511719 C 371.375 283.125 369.300781 282.742188 367.222656 282.433594 C 365.148438 282.125 363 281.742188 360.921875 281.433594 L 293.996094 270.601562 C 290.308594 269.984375 287.925781 267.449219 285.929688 264.300781 L 187.421875 107.242188 Z M 175.4375 223.882812 L 171.980469 255.847656 L 187.421875 253.3125 L 202.867188 255.847656 L 199.410156 223.882812 Z M 180.738281 175.628906 L 177.585938 204.828125 L 197.335938 204.828125 L 194.183594 175.628906 Z M 184.582031 140.28125 L 181.890625 164.949219 L 193.03125 164.949219 L 190.34375 140.28125 Z M 187.421875 113.773438 L 185.042969 135.902344 L 189.804688 135.902344 Z M 187.421875 113.773438 " fill-opacity="1" fill-rule="evenodd"/></g></svg>