<svg xmlns="http://www.w3.org/2000/svg" xmlns:xlink="http://www.w3.org/1999/xlink" width="500" zoomAndPan="magnify" viewBox="0 0 375 374.999991" height="500" preserveAspectRatio="xMidYMid meet" version="1.0"><defs><clipPath id="8da960ae3c"><path d="M 192 129 L 211.5 129 L 211.5 167 L 192 167 Z M 192 129 " clip-rule="nonzero"/></clipPath><clipPath id="85c9c3ffa4"><path d="M 161 289 L 193 289 L 193 315.015625 L 161 315.015625 Z M 161 289 " clip-rule="nonzero"/></clipPath><clipPath id="72125f4c10"><path d="M 19 289 L 50 289 L 50 315.015625 L 19 315.015625 Z M 19 289 " clip-rule="nonzero"/></clipPath><clipPath id="ccc72ac0bc"><path d="M 197.519531 186.59375 L 375 186.59375 L 375 317.039062 L 197.519531 317.039062 Z M 197.519531 186.59375 " clip-rule="nonzero"/></clipPath></defs><path fill="currentColor" d="M 22.367188 219.390625 C 22.367188 216.9375 24.558594 215.085938 26.992188 215.441406 C 34.4375 216.53125 40.410156 220.109375 47.28125 225.128906 C 48.59375 226.089844 49.558594 227.453125 50.019531 229.007812 L 52.746094 238.179688 C 52.917969 238.761719 52.417969 239.324219 51.820312 239.222656 L 25.25 234.722656 C 23.585938 234.441406 22.367188 233.003906 22.367188 231.316406 Z M 66.425781 245.742188 L 66.1875 245.1875 C 58.179688 226.550781 54.910156 218.941406 51.78125 211.660156 C 50.785156 209.34375 49.269531 207.28125 47.351562 205.636719 L 27.4375 188.53125 C 27.4375 188.53125 16.527344 205.546875 16.617188 238.617188 L 17.117188 238.6875 C 48.253906 243.144531 61.113281 244.984375 66.425781 245.742188 " fill-opacity="1" fill-rule="nonzero"/><path fill="currentColor" d="M 27.957031 172.371094 L 27.9375 172.960938 C 27.949219 172.640625 27.957031 172.398438 27.964844 172.167969 L 27.957031 172.371094 " fill-opacity="1" fill-rule="nonzero"/><path fill="currentColor" d="M 189.132812 219.390625 L 189.132812 231.316406 C 189.132812 233.003906 187.917969 234.441406 186.25 234.722656 L 159.679688 239.222656 C 159.082031 239.324219 158.582031 238.761719 158.753906 238.179688 L 161.480469 229.007812 C 161.941406 227.453125 162.90625 226.089844 164.21875 225.128906 C 171.089844 220.109375 177.0625 216.53125 184.507812 215.441406 C 186.941406 215.085938 189.132812 216.9375 189.132812 219.390625 Z M 164.144531 205.636719 C 162.230469 207.28125 160.714844 209.34375 159.71875 211.660156 C 156.589844 218.941406 153.320312 226.550781 145.3125 245.1875 L 145.074219 245.742188 C 150.382812 244.984375 163.242188 243.144531 194.382812 238.6875 L 194.882812 238.617188 C 194.972656 205.546875 184.0625 188.535156 184.0625 188.53125 L 164.144531 205.636719 " fill-opacity="1" fill-rule="nonzero"/><path fill="currentColor" d="M 19.484375 162.128906 L 19.484375 132.050781 C 19.484375 130.644531 18.101562 129.507812 16.394531 129.507812 L 4.925781 129.507812 C 3.140625 129.507812 1.679688 130.667969 1.609375 132.136719 L 0.175781 162.585938 C 0.109375 164.023438 1.097656 165.289062 2.558594 165.878906 C 3.125 166.109375 3.761719 166.238281 4.4375 166.238281 C 16.253906 166.238281 12.160156 166.238281 14.5 166.238281 C 17.25 166.238281 19.484375 164.398438 19.484375 162.128906 " fill-opacity="1" fill-rule="nonzero"/><path fill="currentColor" d="M 105.75 249.457031 L 69.710938 249.457031 C 69.695312 249.453125 68.605469 249.300781 16.660156 241.867188 C 17.199219 264.25 19.871094 278.964844 21.75 286.710938 C 22.683594 290.578125 26.144531 293.300781 30.128906 293.300781 L 181.371094 293.300781 C 185.355469 293.300781 188.816406 290.578125 189.75 286.710938 C 191.628906 278.964844 194.300781 264.25 194.839844 241.867188 C 142.894531 249.300781 141.804688 249.453125 141.789062 249.457031 L 105.75 249.457031 " fill-opacity="1" fill-rule="nonzero"/><path fill="currentColor" d="M 36.738281 130.664062 C 36.738281 124.785156 41.519531 120.019531 47.414062 120.019531 L 164.085938 120.019531 C 169.980469 120.019531 174.761719 124.785156 174.761719 130.664062 L 174.761719 163.867188 C 152.800781 160.5 58.699219 160.5 36.738281 163.867188 Z M 147.941406 205.960938 L 147.949219 205.925781 L 63.550781 205.925781 C 63.308594 204.21875 63.058594 202.433594 62.789062 200.546875 L 75.472656 198.652344 L 136.03125 198.652344 L 148.710938 200.546875 C 148.441406 202.445312 148.1875 204.246094 147.941406 205.960938 Z M 146.097656 219.011719 L 65.402344 219.011719 C 65.035156 216.398438 64.621094 213.472656 64.15625 210.191406 L 147.34375 210.191406 C 146.878906 213.472656 146.46875 216.398438 146.097656 219.011719 Z M 144.246094 232.097656 L 67.257812 232.097656 C 66.867188 229.363281 66.007812 223.28125 66.007812 223.28125 L 145.492188 223.28125 C 145.492188 223.28125 144.632812 229.363281 144.246094 232.097656 Z M 142.394531 245.1875 L 69.105469 245.1875 C 68.714844 242.421875 67.859375 236.367188 67.859375 236.367188 L 143.640625 236.367188 C 143.640625 236.367188 142.785156 242.421875 142.394531 245.1875 Z M 53.117188 191.507812 L 55.792969 193.964844 C 56.871094 194.953125 57.605469 196.265625 57.886719 197.703125 C 61.828125 217.839844 64.398438 230.949219 67.183594 245.1875 L 67.320312 245.871094 C 68.941406 246.101562 69.640625 246.203125 69.941406 246.246094 L 141.558594 246.246094 C 141.851562 246.203125 142.546875 246.105469 144.183594 245.871094 L 144.316406 245.1875 C 147.097656 230.949219 149.671875 217.839844 153.613281 197.703125 C 153.894531 196.265625 154.628906 194.953125 155.707031 193.964844 L 158.382812 191.507812 L 183.222656 168.691406 L 183.421875 168.6875 L 181.84375 119.28125 L 175.511719 75.316406 C 174.21875 66.34375 166.695312 59.5625 157.613281 59.1875 C 123.054688 57.761719 88.449219 57.761719 53.886719 59.1875 C 44.804688 59.5625 37.28125 66.34375 35.988281 75.316406 L 29.660156 119.28125 L 28.078125 168.6875 L 28.277344 168.691406 L 53.117188 191.507812 " fill-opacity="1" fill-rule="nonzero"/><g clip-path="url(#8da960ae3c)"><path fill="currentColor" d="M 211.324219 162.585938 L 209.890625 132.136719 C 209.820312 130.667969 208.359375 129.507812 206.574219 129.507812 L 195.105469 129.507812 C 193.398438 129.507812 192.015625 130.644531 192.015625 132.046875 L 192.015625 162.128906 C 192.015625 164.398438 194.25 166.242188 197 166.242188 C 199.335938 166.242188 195.246094 166.242188 207.0625 166.242188 C 207.738281 166.242188 208.375 166.109375 208.941406 165.878906 C 210.402344 165.289062 211.390625 164.023438 211.324219 162.585938 " fill-opacity="1" fill-rule="nonzero"/></g><g clip-path="url(#85c9c3ffa4)"><path fill="currentColor" d="M 181.371094 296.511719 L 161.867188 296.511719 L 161.867188 311.082031 C 161.867188 313.253906 163.632812 315.015625 165.8125 315.015625 L 188.074219 315.015625 C 190.25 315.015625 192.019531 313.253906 192.019531 311.082031 L 192.019531 289.871094 C 190.070312 293.878906 185.988281 296.511719 181.371094 296.511719 " fill-opacity="1" fill-rule="nonzero"/></g><g clip-path="url(#72125f4c10)"><path fill="currentColor" d="M 19.484375 289.871094 L 19.484375 311.082031 C 19.484375 313.253906 21.25 315.015625 23.425781 315.015625 L 45.6875 315.015625 C 47.867188 315.015625 49.632812 313.253906 49.632812 311.082031 L 49.632812 296.511719 L 30.128906 296.511719 C 25.511719 296.511719 21.429688 293.878906 19.484375 289.871094 " fill-opacity="1" fill-rule="nonzero"/></g><path fill="currentColor" d="M 193.195312 168.613281 L 186.722656 171.132812 L 186.828125 174.296875 L 186.960938 178.519531 L 202.902344 169.449219 L 197 169.449219 C 195.628906 169.449219 194.332031 169.144531 193.195312 168.613281 " fill-opacity="1" fill-rule="nonzero"/><path fill="currentColor" d="M 24.777344 171.132812 L 18.308594 168.613281 C 17.167969 169.144531 15.875 169.449219 14.5 169.449219 L 8.597656 169.449219 L 24.539062 178.519531 L 24.777344 171.132812 " fill-opacity="1" fill-rule="nonzero"/><g clip-path="url(#ccc72ac0bc)"><path fill="currentColor" d="M 366.183594 256.878906 C 362.917969 261.933594 349.632812 267.109375 347.570312 267.886719 C 347.4375 267.9375 347.308594 267.996094 347.179688 268.058594 C 346.792969 268.238281 345.535156 268.582031 343.683594 266.617188 C 342.0625 264.894531 339.265625 260.527344 337.839844 258.246094 C 337.378906 257.5 337.710938 256.519531 338.53125 256.207031 L 363.328125 246.804688 C 363.855469 246.605469 364.449219 246.75 364.820312 247.167969 C 366.183594 248.695312 368.941406 252.613281 366.183594 256.878906 Z M 359.671875 293.996094 C 357.953125 294.484375 355.496094 294.824219 352.0625 294.617188 C 350.84375 294.542969 349.679688 294.085938 348.738281 293.304688 L 340.96875 286.875 C 339.808594 285.914062 340.015625 284.074219 341.363281 283.398438 C 344.289062 281.929688 349.417969 280.035156 355.769531 280.527344 C 358.46875 280.738281 360.808594 282.453125 361.800781 284.964844 C 362.222656 286.039062 362.617188 287.335938 362.886719 288.859375 C 363.292969 291.140625 361.90625 293.363281 359.671875 293.996094 Z M 336.484375 295.070312 L 236.289062 295.070312 C 235.289062 295.070312 234.769531 294.445312 235.445312 294.058594 L 239.960938 291.488281 C 245.082031 288.859375 251.023438 288.625 253.375 288.648438 C 256.003906 288.675781 258.632812 288.683594 261.265625 288.683594 L 311.507812 288.683594 C 314.136719 288.683594 316.765625 288.675781 319.398438 288.648438 C 321.75 288.625 327.6875 288.859375 332.808594 291.488281 L 337.324219 294.058594 C 338.003906 294.445312 337.480469 295.070312 336.484375 295.070312 Z M 234.929688 258.246094 C 233.507812 260.527344 230.710938 264.894531 229.085938 266.617188 C 227.234375 268.582031 225.976562 268.238281 225.59375 268.058594 C 225.464844 267.996094 225.332031 267.9375 225.199219 267.886719 C 223.136719 267.109375 209.851562 261.933594 206.585938 256.878906 C 203.828125 252.613281 206.589844 248.695312 207.949219 247.167969 C 208.320312 246.75 208.917969 246.605469 209.441406 246.804688 L 234.242188 256.207031 C 235.058594 256.519531 235.390625 257.5 234.929688 258.246094 Z M 231.800781 286.875 L 224.03125 293.304688 C 223.09375 294.085938 221.929688 294.542969 220.710938 294.617188 C 217.273438 294.824219 214.820312 294.484375 213.101562 293.996094 C 210.867188 293.363281 209.480469 291.140625 209.882812 288.859375 C 210.152344 287.335938 210.550781 286.039062 210.972656 284.964844 C 211.960938 282.453125 214.304688 280.738281 217 280.527344 C 223.351562 280.035156 228.484375 281.929688 231.410156 283.398438 C 232.757812 284.074219 232.960938 285.914062 231.800781 286.875 Z M 331.859375 272.65625 C 329.878906 274.410156 326.660156 276.300781 321.570312 277.15625 C 321.570312 277.15625 308.496094 279.46875 286.382812 279.46875 C 264.277344 279.46875 251.199219 277.15625 251.199219 277.15625 C 246.109375 276.300781 242.890625 274.410156 240.910156 272.65625 C 238.972656 270.941406 238.554688 268.082031 239.910156 265.878906 L 240.992188 264.132812 C 243.011719 260.855469 246.355469 258.609375 250.164062 257.992188 C 258.335938 256.675781 271.230469 256.578125 279.226562 256.667969 C 283.945312 256.722656 288.664062 256.726562 293.382812 256.671875 C 301.367188 256.578125 314.378906 256.667969 322.605469 257.992188 C 326.414062 258.609375 329.757812 260.855469 331.78125 264.132812 L 332.859375 265.878906 C 334.21875 268.082031 333.796875 270.941406 331.859375 272.65625 Z M 226.957031 219.644531 C 227.808594 216.988281 230.601562 210.125 239.273438 198.015625 C 241.0625 195.515625 243.878906 193.945312 246.953125 193.742188 C 254.898438 193.210938 271.40625 192.25 286.382812 192.25 C 301.367188 192.25 317.875 193.210938 325.820312 193.742188 C 328.890625 193.945312 331.707031 195.515625 333.496094 198.015625 C 342.167969 210.125 344.964844 216.988281 345.816406 219.644531 C 346.019531 220.28125 345.539062 220.929688 344.867188 220.917969 L 286.382812 220.023438 L 227.902344 220.917969 C 227.234375 220.929688 226.75 220.28125 226.957031 219.644531 Z M 375.25 296.878906 L 374.527344 254.816406 C 374.070312 242.457031 356.878906 226.632812 356.878906 226.632812 C 358.628906 225.691406 360.570312 225.140625 362.558594 225.054688 C 365.375 224.929688 369.367188 223.953125 368.40625 219.257812 C 367.347656 214.082031 359.402344 212.84375 355.183594 212.554688 C 353.859375 212.464844 352.8125 213.660156 353.082031 214.957031 L 354.554688 222.097656 C 354.558594 222.101562 354.558594 222.109375 354.558594 222.113281 C 354.664062 222.648438 353.929688 222.917969 353.652344 222.449219 L 352.339844 220.25 C 341.949219 202.480469 337.417969 196.179688 333.605469 192.921875 C 331.878906 191.445312 329.808594 190.417969 327.589844 189.929688 C 311.125 186.28125 286.382812 186.601562 286.382812 186.601562 C 286.382812 186.601562 261.644531 186.28125 245.183594 189.929688 C 242.960938 190.417969 240.890625 191.445312 239.164062 192.921875 C 235.355469 196.179688 230.824219 202.480469 220.433594 220.25 L 219.121094 222.449219 C 218.839844 222.917969 218.105469 222.648438 218.210938 222.113281 C 218.210938 222.109375 218.214844 222.101562 218.214844 222.097656 L 219.6875 214.957031 C 219.957031 213.660156 218.910156 212.464844 217.589844 212.554688 C 213.367188 212.84375 205.425781 214.082031 204.363281 219.257812 C 203.402344 223.953125 207.398438 224.929688 210.210938 225.054688 C 212.199219 225.140625 214.140625 225.691406 215.890625 226.632812 C 215.890625 226.632812 198.703125 242.457031 198.242188 254.816406 L 197.519531 296.878906 C 197.492188 298.621094 198.183594 300.292969 199.417969 301.492188 L 199.417969 306.394531 C 199.417969 312.25 204.21875 317.039062 210.089844 317.039062 L 229.671875 317.039062 C 233.652344 317.039062 236.90625 313.792969 236.90625 309.820312 L 236.90625 306.773438 L 335.863281 306.773438 L 335.863281 309.820312 C 335.863281 313.792969 339.121094 317.039062 343.101562 317.039062 L 362.679688 317.039062 C 368.550781 317.039062 373.355469 312.25 373.355469 306.394531 L 373.355469 301.492188 C 374.589844 300.292969 375.28125 298.621094 375.25 296.878906 " fill-opacity="1" fill-rule="nonzero"/></g></svg>