<!-- Generated by IcoMoon.io -->
<svg version="1.1" xmlns="http://www.w3.org/2000/svg" width="1024" height="1024" viewBox="0 0 1024 1024">
<title></title>
<g id="icomoon-ignore">
</g>
<path d="M164.864 131.104c-54.859 0-99.328 44.48-99.328 99.328 0 143.851 0 447.989 0 591.84 0 54.869 44.469 99.328 99.328 99.328 117.952 0 339.52 0 457.483 0 54.859 0 99.317-44.459 99.317-99.328 0-143.851 0-447.989 0-591.84 0-54.848-44.459-99.328-99.317-99.328h-65.323c-0.8-34.283-28.843-61.824-63.317-61.824 0 0-30.827 0-30.827 0 0-38.24-31.040-69.28-69.269-69.28-38.251 0-69.291 31.040-69.291 69.28h-30.827c-34.464 0-62.517 27.541-63.317 61.824zM557.035 172.661h65.312c31.904 0 57.76 25.867 57.76 57.771 0 143.851 0 447.989 0 591.84 0 31.904-25.856 57.771-57.76 57.771 0 0-457.387 0-457.483 0-31.893 0-57.76-25.867-57.76-57.771 0-143.851 0-447.989 0-591.84 0-31.904 25.867-57.771 57.76-57.771h65.301v5.995c0 34.976 28.352 63.328 63.328 63.328 57.707 0 142.507 0 200.213 0 34.976 0 63.328-28.352 63.328-63.328zM626.773 737.483h-466.347v26.805h466.347zM626.773 624.928h-466.347v26.816h466.347zM626.773 512.384h-466.347v26.805h466.347zM626.773 399.819h-466.347v26.827h466.347zM626.773 287.264h-466.347v26.816h466.347zM393.611 25.301c11.456 0 20.779 9.323 20.779 20.779 0 11.477-9.323 20.789-20.779 20.789-11.477 0-20.779-9.312-20.779-20.789 0-11.456 9.301-20.779 20.779-20.779z"></path>
<path d="M759.744 681.568c-89.397 0-161.856 72.459-161.856 161.856 0 89.387 72.459 161.856 161.856 161.856 89.387 0 161.856-72.469 161.856-161.856 0-89.397-72.469-161.856-161.856-161.856zM801.6 908.16l-53.301-53.291c-3.040-3.051-4.747-7.157-4.747-11.445v-80.928c0-8.939 7.253-16.192 16.192-16.192 8.928 0 16.181 7.253 16.181 16.192v74.229l48.555 48.555c6.315 6.315 6.315 16.576 0 22.88-6.315 6.315-16.576 6.315-22.88 0z"></path>
</svg>
