<!-- Generated by IcoMoon.io -->
<svg version="1.1" xmlns="http://www.w3.org/2000/svg" width="1024" height="1024" viewBox="0 0 1024 1024">
<title></title>
<g id="icomoon-ignore">
</g>
<path d="M473.184 912.363c2.283 8.373-2.283 16.747-10.656 19.029-12.181 3.040-24.363 6.848-37.301 9.888 0 0 0 0-0.757 0l-6.848 1.525c-1.525 0-2.283 0.757-3.808 0.757-6.848 0-12.939-4.565-14.464-11.413-2.283-8.373 3.051-16.747 10.656-18.272l7.616-1.515c0 0 0 0 0.757 0 12.181-3.051 24.363-6.091 35.776-9.899 8.373-2.283 16.747 2.283 19.029 9.899zM352.16 927.584c-12.181 3.040-24.352 5.323-37.291 8.373-8.373 1.515-13.707 9.888-11.424 18.261 1.525 6.848 7.616 12.181 15.221 12.181 0.768 0 2.283 0 3.051 0 12.939-3.040 25.12-5.323 37.291-8.373 8.373-1.525 12.939-9.899 11.424-18.261-1.525-8.373-9.899-13.707-18.272-12.181zM617.803 558.432c3.040 2.283 6.080 3.040 9.131 3.040 4.565 0 9.131-2.283 12.181-6.091 1.515-1.515 3.040-3.040 4.565-5.323 6.848-7.616 15.221-15.221 25.877-22.837 6.848-5.323 8.373-14.464 3.040-21.312-5.323-6.848-14.464-8.373-21.312-3.040-12.171 9.131-22.827 18.261-30.443 27.403-2.283 2.283-3.808 4.565-5.323 6.848-5.333 6.848-4.576 16.747 2.283 21.312zM555.381 870.496c-11.413 3.808-23.595 8.373-35.765 12.181l-6.859 2.283c-8.373 2.283-12.171 11.413-9.888 19.029 2.283 6.848 8.373 10.656 14.453 10.656 1.525 0 3.051 0 4.576-0.768l7.605-2.283c12.939-3.797 25.12-8.373 36.533-12.171 7.616-3.051 12.181-11.424 9.141-19.797-3.051-7.605-12.181-11.413-19.797-9.131zM668.789 694.677c10.656 9.131 19.029 15.979 26.645 23.595 0 0 0 0 0.757 0.757 1.525 1.525 3.051 3.040 4.565 5.333 3.051 3.040 6.859 5.323 11.424 5.323 3.808 0 6.848-1.525 9.888-3.808 6.091-5.323 6.859-15.221 1.525-21.312-1.525-2.283-3.808-3.808-5.323-5.323 0 0 0 0-0.768-0.768-8.373-8.373-18.261-16.736-29.685-26.635-6.848-5.333-15.979-4.565-21.312 2.283-5.323 6.848-3.797 15.221 2.283 20.555zM747.957 451.104c-12.181 5.333-24.363 10.656-35.776 15.989-2.283 1.525-4.565 2.283-6.848 3.808-7.616 3.808-10.656 12.939-6.859 20.544 3.051 5.333 8.373 8.373 13.707 8.373 2.283 0 4.565-0.757 6.848-1.515 2.283-0.768 4.565-2.293 6.848-3.051 10.656-5.323 22.080-10.656 33.493-15.221 7.616-3.040 11.413-12.181 8.373-19.787-3.051-9.141-12.181-12.181-19.787-9.141zM849.941 413.813c-12.171 3.808-24.352 7.616-36.533 12.181l-7.605 2.283c-7.616 3.040-12.181 11.413-9.141 19.787 2.293 6.091 8.373 9.899 14.464 9.899 1.525 0 3.051 0 5.333-0.768l6.848-2.283c12.181-3.808 23.595-8.373 35.776-12.171 8.373-2.293 12.171-11.424 9.888-19.029-3.040-7.616-11.413-12.181-19.029-9.899zM616.277 646.72c1.525 2.283 3.808 4.565 5.323 6.091 3.051 3.040 6.859 5.323 11.424 5.323 3.808 0 7.605-1.515 9.888-3.797 6.091-5.333 6.859-15.221 0.768-21.312-1.525-1.525-3.051-3.808-4.565-5.333-7.616-9.131-12.181-18.261-14.464-26.635-1.525-8.373-9.899-13.707-18.272-11.424-8.373 1.525-13.696 9.899-11.413 18.272 3.808 12.181 10.656 25.12 21.312 38.816zM734.251 754.037c-8.373-1.515-15.979 3.051-18.261 11.424-1.525 8.373-6.859 16.747-14.464 25.877-1.525 1.525-3.051 3.040-4.565 4.565-6.091 6.091-6.091 15.221 0 21.312 3.040 3.040 6.848 4.565 10.656 4.565 3.797 0 7.605-1.525 10.656-4.565 2.283-2.283 3.797-3.808 5.323-6.091 11.424-12.939 19.029-25.877 22.080-39.573 2.283-6.859-3.051-15.221-11.424-17.515zM650.528 829.397c-9.899 5.323-21.312 11.413-32.725 16.747 0 0 0 0-0.768 0l-6.091 3.040c-7.605 3.040-11.413 12.181-7.605 19.787 2.283 5.333 8.373 9.141 13.696 9.141 2.283 0 3.808-0.768 6.091-1.525l6.848-3.051c0 0 0.768 0 0.768 0 12.171-6.080 24.352-11.413 34.251-17.504 7.605-3.808 9.888-13.696 6.091-20.544-3.808-7.616-12.949-10.656-20.555-6.091zM360.533 525.696c0 74.592-60.896 135.488-135.488 135.488-74.581 0-135.477-60.896-135.477-135.488s60.896-135.477 135.477-135.477c74.592 0 135.488 60.885 135.488 135.477zM330.091 525.696c0-57.845-47.189-105.035-105.045-105.035-57.845 0-105.035 47.189-105.035 105.035 0 57.856 47.189 105.045 105.035 105.045 57.856 0 105.045-47.189 105.045-105.045zM340.747 789.813c-31.968 48.715-66.987 95.904-103.52 141.579-3.040 3.797-7.605 5.323-12.181 5.323-4.565 0-9.131-2.283-12.171-5.323-36.533-45.675-71.552-93.621-103.52-141.579-77.632-116.448-105.792-184.192-105.792-258.027 0-92.853 84.48-222.251 221.483-222.251 137.013 0 220.736 128.629 221.493 221.493-0.757 74.592-28.16 142.336-105.792 258.784zM315.627 773.067c83.723-126.347 100.469-184.192 100.469-241.28 0-79.915-73.067-191.808-191.051-191.808-117.973 0-190.283 111.125-191.040 191.051 0 57.845 16.747 115.691 100.469 242.037 28.16 42.624 58.613 84.491 90.571 124.832 31.968-40.341 62.421-82.208 90.581-124.832zM974.773 180.139c0 44.149-35.776 79.168-79.157 79.168-43.392 0-79.157-35.776-79.157-79.168 0-43.381 35.765-79.157 79.157-79.157 43.381 0 79.157 35.019 79.157 79.157zM944.331 180.139c0-26.635-22.080-48.704-48.715-48.704-26.645 0-48.715 22.069-48.715 48.704 0 26.645 22.069 48.715 48.715 48.715 26.635 0 48.715-22.069 48.715-48.715zM1020.437 183.189c0 41.099-15.221 78.4-57.845 142.336-17.504 25.877-35.776 51.755-55.563 76.107-3.040 3.808-7.605 5.333-12.181 5.333-4.565 0-9.131-2.283-12.171-5.333-19.797-24.352-38.816-50.229-55.563-76.107-42.624-63.936-57.088-100.48-57.845-141.579 0-52.512 47.947-125.589 124.821-125.589 78.4-0.757 126.347 72.309 126.347 124.832zM989.995 183.189c0-34.251-31.968-95.147-94.379-95.147-63.179 0-94.379 60.896-94.379 95.147 0 29.685 8.363 59.371 52.512 125.589 12.939 19.787 27.403 39.573 42.624 59.371 15.221-19.029 28.928-38.827 42.624-59.371 41.867-66.219 50.997-95.904 50.997-125.589z"></path>
</svg>
