<svg xmlns="http://www.w3.org/2000/svg" xmlns:xlink="http://www.w3.org/1999/xlink" width="500" zoomAndPan="magnify" viewBox="0 0 375 374.999991" height="500" preserveAspectRatio="xMidYMid meet" version="1.0"><defs><clipPath id="d4129561a2"><path d="M 242.269531 140.640625 L 375 140.640625 L 375 231.761719 L 242.269531 231.761719 Z M 242.269531 140.640625 " clip-rule="nonzero"/></clipPath><clipPath id="4501b462d9"><path d="M 299.390625 207.613281 L 346.46875 207.613281 L 346.46875 254.660156 L 299.390625 254.660156 Z M 299.390625 207.613281 " clip-rule="nonzero"/></clipPath><clipPath id="5d6124ee00"><path d="M 0 120.46875 L 290 120.46875 L 290 232 L 0 232 Z M 0 120.46875 " clip-rule="nonzero"/></clipPath><clipPath id="dac3541fb3"><path d="M 172.515625 207.613281 L 219.59375 207.613281 L 219.59375 254.660156 L 172.515625 254.660156 Z M 172.515625 207.613281 " clip-rule="nonzero"/></clipPath></defs><g clip-path="url(#d4129561a2)"><path fill="#000000" d="M 349.75 181.109375 L 305.496094 181.109375 C 303.285156 181.109375 301.554688 179.191406 301.789062 176.984375 L 304.683594 149.386719 C 304.773438 148.546875 305.523438 147.867188 306.363281 147.867188 L 323.808594 147.867188 C 326.117188 147.867188 328.238281 148.785156 329.703125 150.421875 L 352.457031 175.886719 C 354.179688 177.8125 352.46875 181.109375 349.75 181.109375 Z M 370.902344 184.550781 L 336.128906 145.941406 C 333.078125 142.550781 328.660156 140.65625 323.851562 140.675781 L 299.328125 140.769531 C 297.839844 140.777344 296.394531 141.144531 295.089844 141.792969 L 293.238281 160.148438 C 291.039062 181.894531 280.929688 201.960938 264.765625 216.648438 C 258.023438 222.773438 250.457031 227.757812 242.339844 231.496094 L 294.773438 231.289062 C 294.773438 231.269531 294.773438 231.253906 294.773438 231.234375 C 294.773438 215.695312 307.398438 203.054688 322.914062 203.054688 C 338.375 203.054688 350.960938 215.605469 351.050781 231.070312 L 358.539062 231.039062 C 365.707031 231.011719 372.105469 225.167969 372.832031 217.988281 L 374.914062 197.367188 C 375.402344 192.550781 373.957031 187.941406 370.902344 184.550781 " fill-opacity="1" fill-rule="nonzero"/></g><g clip-path="url(#4501b462d9)"><path fill="#000000" d="M 322.914062 241.324219 C 317.359375 241.324219 312.839844 236.796875 312.839844 231.234375 C 312.839844 231.230469 312.839844 231.222656 312.839844 231.21875 C 312.847656 225.664062 317.363281 221.144531 322.914062 221.144531 C 328.4375 221.144531 332.9375 225.621094 332.988281 231.140625 C 332.988281 231.171875 332.988281 231.203125 332.988281 231.234375 C 332.988281 236.796875 328.46875 241.324219 322.914062 241.324219 Z M 322.914062 207.808594 C 310.015625 207.808594 299.519531 218.316406 299.519531 231.234375 C 299.519531 231.246094 299.519531 231.257812 299.519531 231.269531 C 299.539062 244.171875 310.027344 254.660156 322.914062 254.660156 C 335.816406 254.660156 346.308594 244.152344 346.308594 231.234375 C 346.308594 231.183594 346.308594 231.136719 346.304688 231.085938 C 346.226562 218.238281 335.761719 207.808594 322.914062 207.808594 " fill-opacity="1" fill-rule="nonzero"/></g><g clip-path="url(#5d6124ee00)"><path fill="#000000" d="M 286.65625 159.261719 L 289.652344 130.703125 C 290.222656 125.261719 285.957031 120.515625 280.488281 120.515625 L 124.128906 120.515625 L 124.039062 120.878906 L 45.285156 121.152344 L 121.5625 130.625 L 119.542969 138.566406 L 160.921875 143.707031 L 118.199219 143.855469 L 118.152344 144.046875 L 32.828125 144.339844 L 115.472656 154.605469 L 113.789062 161.21875 L 159.53125 166.898438 L 112.304688 167.0625 L 112.285156 167.144531 L 91.507812 167.214844 L 0 167.53125 L 90.8125 178.808594 L 108.753906 181.039062 L 108.035156 183.863281 L 158.140625 190.089844 L 106.410156 190.265625 L 106.34375 190.535156 L 52.769531 190.722656 L 104.660156 197.164062 L 102.285156 206.515625 L 156.753906 213.277344 L 100.515625 213.472656 L 100.425781 213.828125 L 76.300781 213.910156 L 99.667969 216.8125 C 97.808594 224.128906 103.328125 231.234375 110.863281 231.234375 L 168.011719 231.234375 C 168.011719 215.695312 180.636719 203.054688 196.152344 203.054688 C 211.03125 203.054688 223.242188 214.679688 224.222656 229.332031 C 257.273438 222.007812 282.984375 194.234375 286.65625 159.261719 " fill-opacity="1" fill-rule="nonzero"/></g><g clip-path="url(#dac3541fb3)"><path fill="#000000" d="M 196.152344 241.324219 C 190.597656 241.324219 186.078125 236.796875 186.078125 231.234375 C 186.078125 225.671875 190.597656 221.144531 196.152344 221.144531 C 201.707031 221.144531 206.226562 225.671875 206.226562 231.234375 C 206.226562 236.796875 201.707031 241.324219 196.152344 241.324219 Z M 196.152344 207.808594 C 183.253906 207.808594 172.757812 218.316406 172.757812 231.234375 C 172.757812 244.152344 183.253906 254.660156 196.152344 254.660156 C 209.054688 254.660156 219.546875 244.152344 219.546875 231.234375 C 219.546875 230.898438 219.535156 230.5625 219.519531 230.226562 C 218.992188 217.773438 208.714844 207.808594 196.152344 207.808594 " fill-opacity="1" fill-rule="nonzero"/></g></svg>