<svg xmlns="http://www.w3.org/2000/svg" xmlns:xlink="http://www.w3.org/1999/xlink" width="500" zoomAndPan="magnify" viewBox="0 0 375 374.999991" height="500" preserveAspectRatio="xMidYMid meet" version="1.0"><defs><clipPath id="a2c9eb2aa5"><path d="M 0 26.25 L 375 26.25 L 375 348.75 L 0 348.75 Z M 0 26.25 " clip-rule="nonzero"/></clipPath></defs><g clip-path="url(#a2c9eb2aa5)"><path fill="#000000" d="M 185.097656 26.285156 C 183.289062 26.289062 181.496094 26.429688 179.710938 26.707031 C 177.925781 26.984375 176.171875 27.398438 174.453125 27.949219 C 172.730469 28.496094 171.0625 29.175781 169.445312 29.980469 C 167.828125 30.785156 166.285156 31.710938 164.808594 32.753906 C 163.335938 33.796875 161.949219 34.949219 160.652344 36.207031 C 159.355469 37.460938 158.164062 38.8125 157.074219 40.253906 C 155.984375 41.691406 155.011719 43.207031 154.15625 44.800781 C 153.300781 46.390625 152.574219 48.035156 151.972656 49.738281 L 56.097656 49.738281 L 56.097656 73.195312 L 66.890625 73.195312 C 69.386719 73.238281 70.628906 73.355469 70.984375 73.589844 L 19.671875 188.242188 C 19.582031 188.3125 19.4375 188.371094 19.242188 188.425781 L 0.160156 188.425781 C 0.160156 190.386719 0.394531 192.339844 0.863281 194.285156 C 1.332031 196.226562 2.03125 198.144531 2.957031 200.039062 C 3.886719 201.933594 5.039062 203.785156 6.410156 205.597656 C 7.78125 207.410156 9.367188 209.164062 11.160156 210.863281 C 12.953125 212.558594 14.941406 214.1875 17.125 215.742188 C 19.308594 217.296875 21.667969 218.769531 24.207031 220.15625 C 26.742188 221.539062 29.433594 222.832031 32.277344 224.023438 C 35.125 225.21875 38.101562 226.304688 41.207031 227.285156 C 44.3125 228.265625 47.523438 229.128906 50.835938 229.878906 C 54.152344 230.632812 57.542969 231.261719 61.003906 231.765625 C 64.46875 232.273438 67.980469 232.65625 71.539062 232.914062 C 75.09375 233.167969 78.664062 233.296875 82.253906 233.296875 C 85.839844 233.296875 89.410156 233.167969 92.96875 232.914062 C 96.523438 232.65625 100.035156 232.273438 103.5 231.765625 C 106.964844 231.261719 110.351562 230.632812 113.667969 229.878906 C 116.980469 229.128906 120.191406 228.265625 123.296875 227.285156 C 126.339844 226.324219 129.253906 225.257812 132.042969 224.09375 C 134.835938 222.925781 137.476562 221.667969 139.972656 220.316406 C 142.46875 218.964844 144.792969 217.53125 146.953125 216.015625 C 149.109375 214.503906 151.082031 212.917969 152.867188 211.265625 C 154.65625 209.613281 156.242188 207.902344 157.625 206.136719 C 159.011719 204.375 160.183594 202.566406 161.144531 200.722656 C 162.105469 198.875 162.84375 197 163.367188 195.101562 C 163.886719 193.203125 164.183594 191.296875 164.257812 189.375 L 164.335938 188.875 L 164.300781 188.875 C 164.316406 188.726562 164.332031 188.578125 164.34375 188.425781 L 144.894531 188.425781 L 93.496094 73.582031 C 93.820312 73.382812 103.945312 73.226562 117.058594 73.195312 L 151.964844 73.195312 C 152.84375 75.660156 153.976562 78.003906 155.375 80.214844 C 156.773438 82.429688 158.398438 84.460938 160.25 86.3125 C 162.101562 88.164062 164.132812 89.789062 166.347656 91.183594 C 168.5625 92.582031 170.902344 93.71875 173.367188 94.59375 L 173.367188 301.871094 L 20.914062 301.871094 L 20.914062 348.78125 L 349.277344 348.78125 L 349.277344 301.871094 L 196.824219 301.871094 L 196.824219 94.59375 C 199.289062 93.71875 201.632812 92.582031 203.84375 91.183594 C 206.058594 89.785156 208.089844 88.160156 209.941406 86.308594 C 211.792969 84.457031 213.417969 82.425781 214.8125 80.210938 C 216.210938 78 217.347656 75.65625 218.222656 73.191406 L 258.691406 73.191406 C 272.03125 73.234375 282.089844 73.375 282.527344 73.558594 L 230.5625 189.664062 L 227.058594 189.714844 L 210.65625 189.714844 C 210.65625 191.675781 210.890625 193.625 211.359375 195.570312 C 211.828125 197.515625 212.527344 199.433594 213.453125 201.328125 C 214.382812 203.222656 215.535156 205.074219 216.90625 206.886719 C 218.277344 208.695312 219.863281 210.449219 221.65625 212.148438 C 223.449219 213.847656 225.4375 215.472656 227.621094 217.027344 C 229.804688 218.585938 232.164062 220.054688 234.703125 221.441406 C 237.238281 222.828125 239.929688 224.117188 242.773438 225.3125 C 245.621094 226.503906 248.597656 227.59375 251.703125 228.574219 C 254.808594 229.550781 258.019531 230.417969 261.335938 231.167969 C 264.648438 231.917969 268.039062 232.546875 271.503906 233.054688 C 274.96875 233.5625 278.476562 233.945312 282.035156 234.199219 C 285.589844 234.457031 289.160156 234.582031 292.75 234.582031 C 296.335938 234.582031 299.90625 234.457031 303.464844 234.199219 C 307.019531 233.945312 310.53125 233.5625 313.996094 233.054688 C 317.460938 232.546875 320.851562 231.917969 324.164062 231.167969 C 327.476562 230.417969 330.6875 229.550781 333.792969 228.574219 C 336.902344 227.59375 339.878906 226.503906 342.722656 225.3125 C 345.570312 224.117188 348.257812 222.828125 350.796875 221.441406 C 353.332031 220.054688 355.691406 218.585938 357.875 217.027344 C 360.058594 215.472656 362.046875 213.847656 363.84375 212.148438 C 365.636719 210.449219 367.21875 208.695312 368.589844 206.886719 C 369.964844 205.074219 371.113281 203.222656 372.042969 201.328125 C 372.972656 199.433594 373.667969 197.515625 374.136719 195.570312 C 374.605469 193.625 374.839844 191.675781 374.839844 189.714844 L 353.359375 189.714844 L 301.3125 73.425781 L 307.519531 73.28125 L 311.378906 73.191406 L 314.097656 73.191406 L 314.097656 49.734375 L 218.226562 49.734375 C 217.625 48.03125 216.894531 46.386719 216.039062 44.796875 C 215.183594 43.203125 214.210938 41.6875 213.121094 40.246094 C 212.03125 38.808594 210.839844 37.457031 209.542969 36.199219 C 208.246094 34.941406 206.859375 33.792969 205.386719 32.75 C 203.910156 31.707031 202.363281 30.78125 200.75 29.976562 C 199.132812 29.167969 197.460938 28.492188 195.742188 27.945312 C 194.019531 27.394531 192.269531 26.980469 190.484375 26.703125 C 188.699219 26.425781 186.902344 26.285156 185.097656 26.28125 Z M 82.101562 77.460938 C 82.300781 77.699219 85.050781 83.621094 89.082031 92.425781 L 131.992188 188.304688 C 131.832031 188.347656 131.425781 188.386719 131.019531 188.425781 L 33.457031 188.425781 C 32.914062 188.351562 32.667969 188.257812 32.558594 188.148438 Z M 291.925781 81.285156 C 291.949219 81.296875 291.976562 81.316406 292.003906 81.332031 L 340.402344 189.476562 C 340.261719 189.570312 336.699219 189.648438 331.804688 189.71875 L 248.917969 189.71875 C 245.699219 189.636719 244.046875 189.53125 243.542969 189.386719 L 291.921875 81.285156 Z M 291.925781 81.285156 " fill-opacity="1" fill-rule="nonzero"/></g></svg>