<!-- Generated by IcoMoon.io -->
<svg version="1.1" xmlns="http://www.w3.org/2000/svg" width="819" height="1024" viewBox="0 0 819 1024">
<title></title>
<g id="icomoon-ignore">
</g>
<path fill="#000" d="M300.014 562.973c-37.933-22.414-40.518-104.314 103.452-172.421 27.587-12.932 47.416-24.139 61.209-33.622-18.104-0.862-37.071-1.724-56.037-1.724-65.52 0-126.729 5.172-181.042 14.655l-0.862-37.933h44.829c6.897 0 10.345-7.759 6.034-12.932l-25.001-31.036h12.070c6.034 0 8.621-6.897 5.172-11.208l-24.139-29.312h8.621c4.311 0 6.034-4.311 3.449-7.759l-41.381-51.726c-1.724-2.587-5.172-2.587-6.897 0l-41.381 51.726c-2.587 3.449 0 7.759 3.449 7.759h7.759l-24.139 29.312c-3.449 4.311 0 11.208 5.172 11.208h12.070l-25.001 31.036c-4.311 5.172-0.862 12.932 6.034 12.932h44.829l-0.862 43.967c-118.108 24.139-197.422 67.244-197.422 116.384v287.943c0 31.897 25.863 57.761 57.761 57.761h106.901c19.829-43.105 53.45-95.693 111.212-132.764 137.937-87.934 68.968-115.522 24.139-142.247z"></path>
<path fill="#000" d="M668.132 387.103l-0.862-45.692h37.933c6.034 0 8.621-6.897 5.172-11.208l-21.553-26.725h10.345c5.172 0 7.759-6.034 4.311-9.483l-19.829-25.001h6.897c3.449 0 5.172-3.449 3.449-6.034l-34.484-43.105c-1.724-1.724-4.311-1.724-6.034 0l-34.484 43.105c-1.724 2.587 0 6.034 3.449 6.034h6.897l-19.829 25.001c-3.449 3.449 0 9.483 4.311 9.483h10.345l-21.553 26.725c-3.449 4.311 0 11.208 5.172 11.208h37.933l-3.449 38.795c-39.657-9.483-85.348-16.38-133.626-20.691-1.724 1.724-2.587 4.311-4.311 6.897-45.692 62.071-162.076 93.108-74.141 148.281 71.555 44.829 219.836 63.796 72.417 189.663-59.485 51.726-50.002 100.866-31.036 133.626h289.667c31.897 0 57.761-25.863 57.761-57.761v-287.943c0-42.243-58.623-80.176-150.868-105.176z"></path>
</svg>
