<!-- Generated by IcoMoon.io -->
<svg version="1.1" xmlns="http://www.w3.org/2000/svg" width="1024" height="1024" viewBox="0 0 1024 1024">
<title></title>
<g id="icomoon-ignore">
</g>
<path fill="#000" d="M512 88c-236.089 0-424 187.911-424 424s187.911 424 424 424c236.089 0 424-187.911 424-424s-187.911-424-424-424zM540.912 699.911v62.635h-62.635v-57.823c-43.365 0-81.911-14.448-106-24.088l19.271-72.271c24.089 14.448 62.635 28.911 101.177 28.911 33.729 0 57.823-14.458 57.823-38.552s-19.271-38.542-67.458-53c-67.448-24.088-110.812-53-110.812-115.635 0-53 38.542-96.365 106-110.812v-57.823h62.635v53c43.365 0 67.448 9.635 91.542 19.271l-19.265 72.271c-14.458-9.635-43.375-24.089-91.552-24.089-38.552 0-53 19.271-53 33.729 0 19.271 24.089 33.729 72.271 53 72.271 24.089 101.177 57.812 101.177 115.635 9.635 57.812-28.906 106-101.177 115.635z"></path>
</svg>
