<!-- Generated by IcoMoon.io -->
<svg version="1.1" xmlns="http://www.w3.org/2000/svg" width="819" height="1024" viewBox="0 0 819 1024">
<title></title>
<g id="icomoon-ignore">
</g>
<path fill="#000" d="M31.221 588.61c1.013 0 2.841 0 5.615 0 0 29.594 24.089 53.682 53.682 53.682 5.526 0 10.745-1.079 15.766-2.631 5.021 1.542 10.25 2.631 15.777 2.631 9.722 0 18.739-2.797 26.621-7.343 7.882 4.547 16.9 7.343 26.621 7.343 5.702 0 11.109-1.134 16.272-2.786 5.163 1.652 10.569 2.786 16.272 2.786 29.594 0 53.682-24.089 53.682-53.682h11.902c0 29.594 24.067 53.682 53.661 53.682 5.526 0 10.757-1.079 15.777-2.631 5.021 1.542 10.25 2.631 15.777 2.631 9.722 0 18.739-2.797 26.61-7.343 7.882 4.547 16.9 7.343 26.632 7.343 5.702 0 11.109-1.134 16.272-2.786 5.163 1.652 10.569 2.786 16.272 2.786 29.594 0 53.661-24.089 53.661-53.682h11.23c0 29.594 24.067 53.682 53.661 53.682 5.526 0 10.757-1.079 15.777-2.631 5.021 1.542 10.25 2.631 15.777 2.631 9.722 0 18.739-2.797 26.61-7.343 7.882 4.547 16.9 7.343 26.632 7.343 5.702 0 11.109-1.134 16.272-2.786 5.163 1.652 10.569 2.786 16.272 2.786 29.594 0 53.661-24.089 53.661-53.682 4.491 0 9.799 0 15.59 0v52.692h10.151v-16.701l15.567 2.895v22.592h10.151v-61.477c15.887 0 29.483 0 33.557 0v-161.081l-55.841-53.617h-359.991v131.003h-13.531v-130.991h-389.639v187.173c0 23.813 23.979 27.513 31.224 27.513zM775.313 588.61v28.559l-15.567-2.884v-25.685c5.13 0.011 10.36 0.011 15.567 0.011zM680.344 615.23c-14.72 0-26.632-11.934-26.632-26.621 0-14.72 11.913-26.632 26.632-26.632 14.687 0 26.61 11.913 26.61 26.632 0 14.687-11.913 26.621-26.61 26.621zM536.395 588.61c0-7.519 3.149-14.279 8.136-19.112-2.29 5.956-3.666 12.352-3.666 19.112 0 6.749 1.387 13.156 3.666 19.101-4.987-4.833-8.136-11.593-8.136-19.101zM567.914 588.61c0-14.72 11.913-26.632 26.632-26.632 14.687 0 26.61 11.913 26.61 26.632 0 14.687-11.913 26.621-26.61 26.621-14.709 0-26.632-11.934-26.632-26.621zM444.442 615.23c-14.72 0-26.632-11.934-26.632-26.621 0-14.72 11.913-26.632 26.632-26.632 14.687 0 26.61 11.913 26.61 26.632 0 14.687-11.923 26.621-26.61 26.621zM300.482 588.61c0-7.519 3.149-14.279 8.136-19.112-2.29 5.956-3.677 12.352-3.677 19.112 0 6.749 1.387 13.156 3.677 19.101-4.987-4.833-8.136-11.593-8.136-19.101zM332.014 588.61c0-14.72 11.913-26.632 26.632-26.632 14.687 0 26.61 11.913 26.61 26.632 0 14.687-11.913 26.621-26.61 26.621-14.72 0-26.632-11.934-26.632-26.621zM207.847 615.23c-14.709 0-26.621-11.934-26.621-26.621 0-14.72 11.913-26.632 26.621-26.632s26.621 11.913 26.621 26.632c0 14.687-11.923 26.621-26.621 26.621zM63.887 588.61c0-7.53 3.149-14.29 8.168-19.135-2.301 5.956-3.688 12.364-3.688 19.135s1.387 13.156 3.688 19.135c-5.021-4.856-8.168-11.616-8.168-19.135zM95.429 588.61c0-14.72 11.913-26.632 26.621-26.632s26.621 11.913 26.621 26.632c0 14.687-11.913 26.621-26.621 26.621s-26.621-11.934-26.621-26.621z"></path>
</svg>
