<!-- Generated by IcoMoon.io -->
<svg version="1.1" xmlns="http://www.w3.org/2000/svg" width="1024" height="1024" viewBox="0 0 1024 1024">
<title></title>
<g id="icomoon-ignore">
</g>
<path fill="#000" d="M39.038 607.781c1.267 0 3.552 0 7.020 0 0 36.999 30.117 67.116 67.116 67.116 6.909 0 13.434-1.349 19.711-3.303 6.277 1.954 12.815 3.303 19.724 3.303 12.155 0 23.428-3.497 33.282-9.181 9.855 5.684 21.129 9.181 33.282 9.181 7.129 0 13.889-1.418 20.344-3.497 6.455 2.078 13.213 3.497 20.344 3.497 11.508 0 22.203-3.194 31.686-8.327 9.483 5.135 20.165 8.327 31.686 8.327 7.129 0 13.889-1.418 20.344-3.497 6.455 2.078 13.213 3.497 20.358 3.497 36.999 0 67.116-30.117 67.116-67.116h470.473c3.276 0 14.88 0 29.732 0v65.877h12.691v-20.867l19.462 3.619v28.231h12.691v-76.861c22.298 0 42.312 0 47.9 0v-201.389l-69.814-67.033h-954.186v234.011c0 29.786 29.979 34.411 39.037 34.411zM963.382 607.781v35.705l-19.462-3.606v-32.113c6.318 0.013 12.871 0.013 19.462 0.013zM363.923 641.063c-18.39 0-33.282-14.921-33.282-33.282 0-18.404 14.894-33.296 33.282-33.296s33.282 14.894 33.282 33.296c0 18.362-14.894 33.282-33.282 33.282zM79.878 607.781c0-9.414 3.937-17.866 10.213-23.937-2.877 7.46-4.611 15.472-4.611 23.937 0 8.438 1.734 16.448 4.611 23.895-6.277-6.042-10.213-14.494-10.213-23.895zM119.314 607.781c0-18.404 14.894-33.296 33.282-33.296s33.282 14.894 33.282 33.296c0 18.362-14.894 33.282-33.282 33.282s-33.282-14.921-33.282-33.282zM226.58 607.781c0-18.404 14.894-33.296 33.282-33.296s33.282 14.894 33.282 33.296c0 18.362-14.894 33.282-33.282 33.282s-33.282-14.921-33.282-33.282z"></path>
</svg>
