<!-- Generated by IcoMoon.io -->
<svg version="1.1" xmlns="http://www.w3.org/2000/svg" width="2844" height="1024" viewBox="0 0 2844 1024">
<title></title>
<g id="icomoon-ignore">
</g>
<path fill="#000" d="M2132.811 737.076c-65.489 0-118.58 52.897-118.58 118.147s53.091 118.144 118.58 118.144c65.492 0 118.583-52.894 118.583-118.144s-53.091-118.147-118.583-118.147zM1072.6 737.076c-65.492 0-118.583 52.897-118.583 118.147s53.091 118.144 118.583 118.144c65.489 0 118.58-52.894 118.58-118.144s-53.091-118.147-118.58-118.147zM703.418 737.076c-65.489 0-118.58 52.897-118.58 118.147s53.091 118.144 118.58 118.144c65.489 0 118.58-52.894 118.58-118.144s-53.091-118.147-118.58-118.147zM698.5 686.447c-35.084 0-67.678 10.627-94.717 28.822l-20.794 17.097v5.002l9.571-9.763c21.515-18.568 47.774-31.826 76.722-37.731l31.679-3.18zM1841.209 41.44c-28.095 0-50.871 22.692-50.871 50.685v202.724c0 27.991 22.775 50.68 50.871 50.68h426.071c28.095 0 50.871-22.689 50.871-50.68v-202.724c0-27.991-22.775-50.685-50.871-50.685zM1638.511 0h673.234l19.8 3.981c18.257 7.694 31.067 25.707 31.067 46.699v597.25h27.23c19.152 0 34.677 15.467 34.677 34.548v138.194c0 19.084-15.525 34.551-34.677 34.551h-87.627c0 93.213-75.844 168.777-169.405 168.777-93.556 0-169.4-75.566-169.4-168.777 0-81.562 58.067-149.611 135.261-165.352l33.388-3.351-0.752-0.076c-93.556 0-169.4 75.566-169.4 168.777h-719.905c0 93.213-75.844 168.777-169.4 168.777-93.561 0-169.405-75.566-169.405-168.777 0-81.562 58.071-149.611 135.261-165.352l32.614-3.273-1.529-0.154c-93.561 0-169.405 75.566-169.405 168.777h-27.318c0 93.213-75.841 168.777-169.4 168.777-81.862 0-150.163-57.852-165.961-134.764l-3.136-30.989h-87.591c-15.048 0-27.25-12.156-27.25-27.151v-155.283c0-14.995 12.202-27.151 27.25-27.151l1140.286-0.733v-536.541h0.626v-60.709c0-20.993 12.811-39.005 31.071-46.699z"></path>
</svg>
